<svg xmlns="http://www.w3.org/2000/svg" xmlns:xlink="http://www.w3.org/1999/xlink" width="887.135" height="1081.837" viewBox="0 0 887.135 1081.837"><defs><clipPath id="a"><rect width="114" height="337" transform="translate(0.431 0.003)" fill="#fff" stroke="#707070" stroke-width="1"/></clipPath></defs><g transform="translate(-1066.45 -2431.858)"><rect width="235.806" height="235.806" transform="translate(1327.382 3038.546) rotate(-19)" fill="#e9d182"/><ellipse cx="56.576" cy="56.042" rx="56.576" ry="56.042" transform="translate(1190.862 2504.169)" fill="#e9d182"/><path d="M114.8-.505,228.724,198.812l-229.6,1.011Z" transform="translate(1825.265 2432.868) rotate(56)" fill="#e9d182"/><path d="M79.175-.373,106.533,74.6l51.175,61.2L78.6,122.518-.643,136.546,51.11,74.858Z" transform="translate(1822.404 3214.736) rotate(48)" fill="#e9d182"/><path d="M1538.5,3560.959a4.485,4.485,0,0,1-3.051-1.193c-1.407-1.3-142.706-129.791-317.13-126.09-1.977.042-3.943.063-5.88.063-51.129,0-88.259-14.64-110.436-43.561-38.924-50.761-17.526-126.25-16.6-129.438a4.5,4.5,0,0,1,8.641,2.518c-.215.738-21.035,74.371,15.123,121.478,20.384,26.557,55.113,40,103.266,40,1.878,0,3.77-.02,5.689-.061,178.118-3.791,322,127.153,323.428,128.476a4.5,4.5,0,0,1-3.055,7.805Z" transform="translate(52.989 -47.264)" fill="#e9d182"/><path d="M1104.189,3084.122a4.5,4.5,0,0,1-3.933-2.307c-7.589-13.588-16.834-28.437-26.622-44.158-36.99-59.409-78.915-126.744-56.857-167.512,11.963-22.112,40.523-33.361,87.309-34.391,36.635-.805,69.611,5.426,98.7,10.924,64.089,12.112,114.71,21.679,172.271-43.6,35.107-39.813,75.532-134.361,118.33-234.461,9.433-22.064,18.975-44.38,28.594-66.422a4.5,4.5,0,1,1,8.249,3.6c-9.61,22.021-19.143,44.316-28.568,66.36-43.09,100.783-83.791,195.978-119.855,236.875-60.949,69.117-116.44,58.631-180.692,46.487-30.059-5.681-61.141-11.556-96.835-10.769-42.667.939-69.446,10.923-79.592,29.676-19.569,36.168,20.888,101.145,56.582,158.472,9.846,15.814,19.147,30.751,26.84,44.527a4.5,4.5,0,0,1-3.925,6.695Z" transform="translate(55.79 -9.265)" fill="#e9d182"/><g transform="translate(1824.506 2773.997)" clip-path="url(#a)"><ellipse cx="116" cy="115" rx="116" ry="115" transform="translate(16.431 44.003)" fill="#e9d182"/></g><ellipse cx="188.5" cy="52" rx="188.5" ry="52" transform="translate(1117.937 3384)" fill="#e9d182"/></g></svg>