<svg xmlns="http://www.w3.org/2000/svg" width="53.807" height="60.206" viewBox="0 0 53.807 60.206"><path d="M503.5,627.679,499,573.7l53.807.107-4.763,53.868-21.936,6.232Z" transform="translate(-499 -573.7)" fill="#f1f1f1"/><path d="M1096,739.053V689.2l22.159.071-3.95,44.6Z" transform="translate(-1068.892 -684.059)" fill="#bcbcbc"/><path d="M612.3,759.7H592.4l2.107,25.225,12.555,2.172v9.753l-11.71-2.724.563,4.843,16.383,3.619v-21.2l-12.936-1.945L598.2,764.868h14.1Z" transform="translate(-588.159 -751.421)" fill="#2d3032"/><path d="M1164.951,790.008l-.032,7.011,2.275-.4,2.765-36.922h3.719l-3.592,39.077-12.759,3.1L1156.8,759.7h3.633v38.667l2.066-.685.032-7.011Z" transform="translate(-1126.931 -751.421)" fill="#2d3032"/><path d="M585.823,690.718H609.1V689.2H585.7Z" transform="translate(-581.763 -684.059)" fill="#bcbcbc"/></svg>