<svg xmlns="http://www.w3.org/2000/svg" width="185" height="162.696" viewBox="0 0 185 162.696"><path d="M78.738,142.217c19.244,17.709,46.008,22.861,72.768,11.458l22.941,9.022-3.592-21.582c21.344-18.663,16.39-44.6-.647-62.846A67.29,67.29,0,0,1,163,98.24a78.1,78.1,0,0,1-21.43,24.4,94.983,94.983,0,0,1-29.918,15.129,107.089,107.089,0,0,1-32.917,4.452ZM47.707,81.8a5.041,5.041,0,1,1,0-10.081H92.555a5.041,5.041,0,0,1,0,10.081Zm0-25.8a5.041,5.041,0,1,1,0-10.081h64.082a5.041,5.041,0,0,1,0,10.081Zm34-55.948.076,0c21.8.658,41.354,8.408,55.352,20.412,14.3,12.256,22.872,28.943,22.337,47.157l0,.083c-.564,18.226-10.135,34.388-25.156,45.784-14.721,11.172-34.731,17.763-56.527,17.123A100.83,100.83,0,0,1,61.6,128.866,81.569,81.569,0,0,1,48.6,125.235L10.179,136.967,21.688,109.6A66.532,66.532,0,0,1,6.064,89.72,55.319,55.319,0,0,1,.026,62.992C.575,44.748,10.15,28.572,25.178,17.168,39.906,6,59.913-.595,81.708.045Zm-.2,10.009-.076,0C61.965,9.479,44.2,15.286,31.223,25.132,18.551,34.747,10.486,48.221,10.031,63.267a45.4,45.4,0,0,0,4.979,21.94,57.654,57.654,0,0,0,15.823,19l2.985,2.363-6.139,14.594,21.362-6.526,1.626.654a70.181,70.181,0,0,0,12.82,3.725A90.249,90.249,0,0,0,78.062,120.6c19.468.571,37.231-5.236,50.21-15.082,12.672-9.615,20.737-23.089,21.192-38.135v-.079c.43-15.021-6.8-28.91-18.843-39.237-12.35-10.587-29.7-17.431-49.112-18.016Z" transform="translate(-0.001 -0.002)" fill="#2d3032" fill-rule="evenodd"/></svg>