<svg xmlns="http://www.w3.org/2000/svg" width="370" height="258.467" viewBox="0 0 370 258.467"><rect width="81" height="171" transform="translate(253 14.467)" fill="snow"/><ellipse cx="169.5" cy="50" rx="169.5" ry="50" transform="translate(31 158.467)" fill="snow"/><path d="M719.686,88.878s-8.144.92-8.67,13.53c-.438,10.509-1.332,16.366,2.943,18.558a6.46,6.46,0,0,0,4.957.316l17.453-5.738s.263-18.916-5.78-23.514-10.9-3.153-10.9-3.153h0Z" transform="translate(-429.41 -53.576)" fill="#36344e"/><path d="M744.342,147.48l-8.832,2.9V137.671h8.013Z" transform="translate(-444.445 -83.19)" fill="#faafb2"/><path d="M678.835,319.264c-.479,2.913-2.421,5-4.339,4.665s-3.084-2.97-2.6-5.884a7.124,7.124,0,0,1,1.346-3.217l2.189-12.314,5.957,1.246-2.791,12.007a7.226,7.226,0,0,1,.242,3.5h0Z" transform="translate(-405.938 -182.8)" fill="#faafb2"/><path d="M720.744,484.271H712.47l-4.8-44.2H720.46Z" transform="translate(-427.624 -265.92)" fill="#faafb2"/><path d="M687.114,549.259c-.87,0-1.644-.022-2.228-.075-2.2-.2-4.294-1.823-5.348-2.772a1.5,1.5,0,0,1-.378-1.691h0a1.489,1.489,0,0,1,.968-.859l5.806-1.659,9.4-6.343.1.188a16.792,16.792,0,0,1,1.272,2.858,1.27,1.27,0,0,1-.092,1.059,1.006,1.006,0,0,1-.436.365,4.319,4.319,0,0,0,2.346.8c2.4.38,2.9-2.1,2.923-2.21l.016-.083.071-.046c1.142-.735,1.843-1.07,2.086-1,.151.045.4.121,1.085,6.89a6.917,6.917,0,0,1,.222,3.259c-.354,1.621-7.432,1.063-8.848.935C696.046,548.882,690.746,549.259,687.114,549.259Z" transform="translate(-410.324 -323.803)" fill="#36344e"/><path d="M767.971,484.271H759.7l-4.8-44.2h12.787Z" transform="translate(-456.162 -265.92)" fill="#faafb2"/><path d="M734.341,549.259c-.87,0-1.644-.022-2.228-.075-2.2-.2-4.294-1.823-5.348-2.772a1.5,1.5,0,0,1-.379-1.691h0a1.49,1.49,0,0,1,.968-.859l5.806-1.659,9.4-6.343.1.188a16.8,16.8,0,0,1,1.272,2.858,1.27,1.27,0,0,1-.092,1.059,1.007,1.007,0,0,1-.436.365,4.319,4.319,0,0,0,2.346.8c2.4.38,2.9-2.1,2.923-2.21l.016-.083.071-.046c1.142-.735,1.845-1.069,2.086-1,.151.045.4.121,1.085,6.89a6.914,6.914,0,0,1,.221,3.259c-.353,1.621-7.432,1.063-8.848.935C743.273,548.882,737.973,549.259,734.341,549.259Z" transform="translate(-438.862 -323.803)" fill="#36344e"/><path d="M732.562,204.809h-40.2l14.45-47.553h16.026Z" transform="translate(-418.374 -95.025)" fill="#dfdfe0"/><path d="M697.961,157.263s-9.984-.263-11.034,2.365-13.4,65.156-13.4,65.156h8.144l16.289-67.521Z" transform="translate(-406.991 -95.025)" fill="#dfdfe0"/><circle cx="8.801" cy="8.801" r="8.801" transform="translate(283.357 40.398)" fill="#faafb2"/><path d="M720.318,97.505s-4.844,19.667.542,28.862l-7.586-1.611s-2.939-21.526,2.972-25.439l4.072-1.812Z" transform="translate(-430.567 -58.919)" fill="#36344e"/><path d="M710.47,277.421H684.091l-14.434,59.236a5.117,5.117,0,0,0,3.752,5.487c7.92,2.121,26.92,5.125,55.68-3.244a5.134,5.134,0,0,0,3.47-6.473L710.47,277.421h0Z" transform="translate(-404.635 -167.637)" fill="#36344e"/><g transform="translate(291.048 61.188)"><path d="M745.882,156.7l8.2-.361a11.262,11.262,0,0,1,8.671,5.213c5.8,9.163,16.646,28.481,6.959,31.128-12.765,3.487-18.95-15.923-18.95-15.923L745.882,156.7h0Z" transform="translate(-741.76 -155.662)" fill="#dfdfe0"/><path d="M736.773,161.418c-1.686-2.423-1.747-5.275-.137-6.37s4.281-.017,5.967,2.407a7.125,7.125,0,0,1,1.276,3.245l7.007,10.359-5.142,3.256-6.362-10.558a7.225,7.225,0,0,1-2.609-2.34h0Z" transform="translate(-735.467 -154.621)" fill="#faafb2"/><path d="M749.248,184.836l5.79-5.33,11.449,10.659-10.647,7.279Z" transform="translate(-743.794 -169.658)" fill="#dfdfe0"/></g><rect width="207.397" height="25.65" rx="12.825" transform="translate(0 50.11)" fill="#e9d182"/><g transform="translate(94.752 91.621)"><path d="M251.086,254.823a11.65,11.65,0,1,1,11.65-11.65A11.663,11.663,0,0,1,251.086,254.823Zm0-20.134a8.484,8.484,0,1,0,8.484,8.484A8.494,8.494,0,0,0,251.086,234.689Z" transform="translate(-239.436 -231.523)" fill="snow"/><path d="M299.505,290.4a1.576,1.576,0,0,1-1.03-.381l-14.726-12.628a1.583,1.583,0,1,1,2.061-2.4l14.726,12.628a1.583,1.583,0,0,1-1.031,2.785Z" transform="translate(-265.879 -257.555)" fill="snow"/></g><path d="M203.307,569.227a.446.446,0,0,0,.42.471H461.072a.474.474,0,0,0,0-.942H203.727a.446.446,0,0,0-.42.471Z" transform="translate(-122.852 -343.681)" fill="#484565"/><rect width="40.993" height="3.257" rx="1.628" transform="translate(166.404 37.18)" fill="#dfdfe0"/><rect width="40.993" height="3.257" rx="1.628" fill="#dfdfe0"/><rect width="114.013" height="3.257" rx="1.628" transform="translate(0 14.212)" fill="#dfdfe0"/></svg>