<svg xmlns="http://www.w3.org/2000/svg" width="60" height="66.463" viewBox="0 0 60 66.463"><path d="M10.416,21.92a1.482,1.482,0,0,1-1.4-1.525,1.455,1.455,0,0,1,1.4-1.525H34.294a1.471,1.471,0,0,1,1.4,1.525,1.449,1.449,0,0,1-1.4,1.525ZM42.948,35.695A13.423,13.423,0,0,1,54.186,56.468L60,62.8l-4.013,3.661-5.6-6.165a13.423,13.423,0,1,1-7.436-24.6Zm7.139,6.284a10.092,10.092,0,1,0,2.958,7.139,10.092,10.092,0,0,0-2.958-7.139Zm-39.654-11.9a1.476,1.476,0,0,1-1.4-1.525,1.449,1.449,0,0,1,1.4-1.514H22.374A1.482,1.482,0,0,1,23.8,28.578,1.449,1.449,0,0,1,22.4,30.1ZM44.759,9.27h5a3.591,3.591,0,0,1,3.575,3.575v17c-.108,1.12-2.85,1.136-3.083,0v-17a.5.5,0,0,0-.508-.508h-5V29.843c-.265,1.017-2.553,1.168-3.067,0V3.575a.5.5,0,0,0-.508-.508H3.559a.49.49,0,0,0-.508.508V46.068a.49.49,0,0,0,.508.508H23.451c1.547.157,1.622,2.829,0,3.067H11.628v5.695a.5.5,0,0,0,.508.508H23.451c1.12.124,1.482,2.672,0,3.067H12.158a3.58,3.58,0,0,1-3.575-3.575V49.643H3.575a3.51,3.51,0,0,1-2.52-1.082A3.548,3.548,0,0,1,0,46.068V3.575A3.51,3.51,0,0,1,1.082,1.082,3.542,3.542,0,0,1,3.575,0H41.19a3.521,3.521,0,0,1,2.52,1.082A3.537,3.537,0,0,1,44.759,3.6V9.27ZM10.416,13.737a1.482,1.482,0,0,1-1.4-1.525,1.455,1.455,0,0,1,1.4-1.525H34.294a1.476,1.476,0,0,1,1.4,1.525,1.455,1.455,0,0,1-1.4,1.525Z" fill="#e56969"/></svg>