<svg xmlns="http://www.w3.org/2000/svg" width="404.576" height="404.959" viewBox="0 0 404.576 404.959"><g transform="translate(-0.424 0)"><rect width="192" height="286" transform="translate(178 74.958)" fill="snow"/><ellipse cx="81.5" cy="30" rx="81.5" ry="30" transform="translate(242 344.958)" fill="snow"/><path d="M587.32,183.76H585.24V126.724A33.011,33.011,0,0,0,552.23,93.713H431.388a33.011,33.011,0,0,0-33.011,33.011v312.9a33.011,33.011,0,0,0,33.011,33.011h120.84a33.011,33.011,0,0,0,33.011-33.011V224.359h2.079Z" transform="translate(-320.874 -93.713)" fill="#3f3d56"/><path d="M584.336,129.563V446.888a25.036,25.036,0,0,1-25.024,25.033H435.987a25.041,25.041,0,0,1-25.044-25.037V129.563a25.04,25.04,0,0,1,25.043-25.033h14.96a11.905,11.905,0,0,0,11.013,16.389h70.307a11.9,11.9,0,0,0,11.013-16.389H559.3a25.036,25.036,0,0,1,25.033,25.023Z" transform="translate(-326.741 -98.763)" fill="#fff"/><path d="M581.095,466.955H471.51a2.031,2.031,0,0,1-2.029-2.029V437.743a2.032,2.032,0,0,1,2.029-2.029H581.095a2.032,2.032,0,0,1,2.029,2.029v27.183a2.032,2.032,0,0,1-2.029,2.029ZM471.51,436.525a1.219,1.219,0,0,0-1.218,1.218v27.183a1.219,1.219,0,0,0,1.218,1.218H581.095a1.219,1.219,0,0,0,1.218-1.218V437.743a1.219,1.219,0,0,0-1.218-1.218Z" transform="translate(-354.068 -253.372)" fill="#e6e6e6"/><path d="M535.608,454.074a1.421,1.421,0,1,0,0,2.841h66.968a1.421,1.421,0,1,0,.109-2.84H535.608Z" transform="translate(-384.276 -261.943)" fill="#e6e6e6"/><path d="M535.608,470.058a1.421,1.421,0,1,0,0,2.841h66.968a1.421,1.421,0,1,0,.109-2.84H535.608Z" transform="translate(-384.276 -269.405)" fill="#e6e6e6"/><path d="M581.095,551.935H471.51a2.031,2.031,0,0,1-2.029-2.029V522.723a2.032,2.032,0,0,1,2.029-2.029H581.095a2.032,2.032,0,0,1,2.029,2.029v27.183a2.032,2.032,0,0,1-2.029,2.028ZM471.51,521.5a1.219,1.219,0,0,0-1.218,1.218v27.183a1.219,1.219,0,0,0,1.218,1.218H581.095a1.219,1.219,0,0,0,1.218-1.218V522.723a1.219,1.219,0,0,0-1.218-1.218Z" transform="translate(-354.068 -293.044)" fill="#e6e6e6"/><path d="M535.608,539.33a1.421,1.421,0,1,0,0,2.841h66.968a1.421,1.421,0,0,0,.046-2.841H535.608Z" transform="translate(-384.276 -301.744)" fill="#e6e6e6"/><path d="M535.608,555.318a1.421,1.421,0,1,0,0,2.841h66.968a1.421,1.421,0,1,0,.046-2.841H535.608Z" transform="translate(-384.276 -309.208)" fill="#e6e6e6"/><path d="M581.095,637.193H471.51a2.031,2.031,0,0,1-2.029-2.029V607.981a2.032,2.032,0,0,1,2.029-2.029H581.095a2.032,2.032,0,0,1,2.029,2.029v27.183a2.032,2.032,0,0,1-2.029,2.029ZM471.51,606.763a1.219,1.219,0,0,0-1.218,1.218v27.183a1.219,1.219,0,0,0,1.218,1.218H581.095a1.219,1.219,0,0,0,1.218-1.218V607.981a1.219,1.219,0,0,0-1.218-1.218Z" transform="translate(-354.068 -332.846)" fill="#e6e6e6"/><path d="M535.608,624.591a1.421,1.421,0,1,0,0,2.841h66.968a1.421,1.421,0,1,0,.109-2.84H535.608Z" transform="translate(-384.276 -341.547)" fill="#e6e6e6"/><path d="M535.608,640.578a1.421,1.421,0,1,0,0,2.841h66.968a1.421,1.421,0,1,0,.109-2.84H535.608Z" transform="translate(-384.276 -349.01)" fill="#e6e6e6"/><path d="M621.625,810.9H253.979c-.533,0-.965-1.5-.965-3.352s.432-3.352.965-3.352H621.626c.533,0,.965,1.5.965,3.352S622.158,810.9,621.625,810.9Z" transform="translate(-252.59 -425.393)" fill="#e6e6e6"/><g transform="translate(14.319 330.817)"><path d="M281.127,741.56a10.383,10.383,0,0,0,10.027-1.766c3.512-2.947,4.613-7.8,5.509-12.3l2.65-13.3-5.548,3.82c-3.99,2.747-8.069,5.582-10.832,9.561s-3.968,9.411-1.749,13.717" transform="translate(-279.945 -714.194)" fill="#e6e6e6"/><path d="M282.74,768.52c-.7-5.087-1.417-10.24-.927-15.382a24.189,24.189,0,0,1,4.665-12.683,21.1,21.1,0,0,1,5.413-4.905c.541-.342,1.04.516.5.856a20.059,20.059,0,0,0-7.936,9.573,32.139,32.139,0,0,0-1.706,13.85c.18,2.823.561,5.626.946,8.427a.514.514,0,0,1-.347.61.5.5,0,0,1-.61-.347Z" transform="translate(-280.702 -724.127)" fill="#f2f2f2"/><path d="M293.12,774.905a7.643,7.643,0,0,0,6.66,3.437c3.371-.16,6.182-2.513,8.712-4.745l7.483-6.607-4.953-.237c-3.562-.171-7.215-.329-10.61.769s-6.521,3.742-7.141,7.251" transform="translate(-286.055 -738.674)" fill="#e6e6e6"/><path d="M279.934,789.5c3.359-5.948,7.261-12.559,14.227-14.672a15.877,15.877,0,0,1,5.984-.618c.636.053.477,1.034-.16.979a14.75,14.75,0,0,0-9.55,2.527,24.814,24.814,0,0,0-6.564,7.084c-1.087,1.653-2.061,3.381-3.034,5.1C280.528,790.457,279.621,790.06,279.934,789.5Z" transform="translate(-279.87 -742.185)" fill="#f2f2f2"/></g><g transform="translate(122.59 189.272)"><path d="M8.523,0A8.523,8.523,0,1,1,0,8.523,8.523,8.523,0,0,1,8.523,0Z" fill="#e56969"/><path d="M491.121,461.712a5.772,5.772,0,0,0,0,2.841H499.5c.1.013.179-.613.181-1.4a3.169,3.169,0,0,0-.175-1.444h-8.387Z" transform="translate(-486.677 -454.781)" fill="#e6e6e6"/></g><g transform="translate(122.59 234.747)"><path d="M8.523,0A8.523,8.523,0,1,1,0,8.523,8.523,8.523,0,0,1,8.523,0Z" fill="#e56969"/><path d="M491.121,547.005a5.772,5.772,0,0,0,0,2.841H499.5c.1.013.179-.613.181-1.4a3.169,3.169,0,0,0-.175-1.444h-8.387Z" transform="translate(-486.677 -540.074)" fill="#e6e6e6"/></g><g transform="translate(122.59 280.203)"><path d="M8.523,0A8.523,8.523,0,1,1,0,8.523,8.523,8.523,0,0,1,8.523,0Z" fill="#e56969"/><path d="M491.121,632.263a5.772,5.772,0,0,0,0,2.841H499.5c.1.013.179-.613.181-1.4a3.169,3.169,0,0,0-.175-1.444h-8.387Z" transform="translate(-486.677 -625.332)" fill="#e6e6e6"/></g><path d="M604.485,292.308A2.392,2.392,0,0,1,602.346,291,28.191,28.191,0,0,0,585.62,276.92a31.992,31.992,0,0,0-4.483-1.015l-.309-.047,15.952-49.876.27.009c30.992,8.421,48.723,33.259,53.419,40.671a2.4,2.4,0,0,1-.958,3.425l-43.949,21.965A2.4,2.4,0,0,1,604.485,292.308Z" transform="translate(-406.049 -155.462)" fill="#e6e6e6"/><path d="M804.513,535.385a4.946,4.946,0,0,1,6.777-3.4l11.88-12.952,2.22,8.859L813.767,538.83a4.972,4.972,0,0,1-9.255-3.445Z" transform="translate(-510.407 -292.267)" fill="#feb8b8"/><path d="M843.116,767.527h-7.258l-3.454-28h10.717Z" transform="translate(-523.494 -395.204)" fill="#feb8b8"/><path d="M835.472,787.6h-14.3a9.111,9.111,0,0,0-9.111,9.11v.3h23.406Z" transform="translate(-513.999 -417.645)" fill="#2f2e41"/><path d="M913.214,755.635l-6.787,2.576-13.165-24.952,10.016-3.8Z" transform="translate(-551.905 -390.503)" fill="#feb8b8"/><path d="M915.5,773.167l-13.366,5.073h0a9.111,9.111,0,0,0-5.284,11.75l.107.277,21.884-8.306Z" transform="translate(-553.304 -410.908)" fill="#2f2e41"/><path d="M873.825,617.36l6.016,32.37s16.328,45.547,15.182,46.693-16.9,5.156-16.042,2.578-18.906-41.25-18.906-41.25Z" transform="translate(-536.412 -338.171)" fill="#2f2e41"/><path d="M830.743,507.03S818.6,522.9,820.191,523.771s7.756,5.457,7.756,5.457l6.272-17.213Z" transform="translate(-517.726 -286.665)" fill="#e4e4e4"/><path d="M831.033,536.962s-2.005,14.9-1.146,18.047.286,92.527-.286,93.959-2.293,6.3-1.432,8.594,12.6,8.021,14.323,6.016,14.324-75.052,14.324-75.052,17.761-44.115,13.75-48.411S831.033,536.962,831.033,536.962Z" transform="translate(-521.407 -300.574)" fill="#2f2e41"/><circle cx="14.037" cy="14.037" r="14.037" transform="translate(321.361 112.58)" fill="#feb8b8"/><path d="M843.225,378.692a9.951,9.951,0,0,1,3.2-5.886l2.559-7.824h15.04l4.191,6.577c4.532,1.952,7.891,5.047,8.018,8.7.693,2.423-2.293,79.35-3.151,82.214-.252.834-3.679,1.28-8.5,1.478-4.417.18-10,.155-15.36.031-8.875-.206-17.148-.682-18.54-.937C827.537,462.469,842.913,380.5,843.225,378.692Z" transform="translate(-522.494 -220.352)" fill="#e4e4e4"/><path d="M872.794,561.876a4.946,4.946,0,0,0,.974-7.521l8.3-15.492-9.1.831-6.488,14.583a4.972,4.972,0,0,0,6.309,7.6Z" transform="translate(-538.766 -301.527)" fill="#feb8b8"/><path d="M873.885,374.519s-13.177,5.443-8.307,19.194,10.312,30.078,10.312,30.078-6.875,36.954-6.875,38.388-4.3,9.167-2.578,10.6,13.177,4.3,13.463,2.865a96.918,96.918,0,0,1,3.151-9.74c.573-1.146,14.037-36.953,12.316-40.1-1.265-2.319-2.375-23.566-2.873-34.623a18.185,18.185,0,0,0-9.48-15.31A12.6,12.6,0,0,0,873.885,374.519Z" transform="translate(-538.477 -224.642)" fill="#e4e4e4"/><path d="M875.658,322.174a21.076,21.076,0,0,0-3.454-.9c-4.124-1.094-6.886-5.166-6-8.851a3.986,3.986,0,0,0,.216-1.459c-.154-1.091-1.433-1.8-2.658-2.046a29.485,29.485,0,0,1-3.7-.616,5.006,5.006,0,0,1-3.271-3.927,7.29,7.29,0,0,1,1.241-4.89l.443,1.113a4.143,4.143,0,0,0,1.447-1.89,2.932,2.932,0,0,1,2.271,1.6c.711.366.813-1.137,1.6-1.359a1.57,1.57,0,0,1,.98.213c1.582.645,3.42.093,5.118-.264a21.978,21.978,0,0,1,8.942-.009,11.316,11.316,0,0,1,5.285,2.375,10.85,10.85,0,0,1,2.472,3.711,19,19,0,0,1,1.995,10.382,13.89,13.89,0,0,1-3.965,7.784c-1.132,1.139-4.825,5.114-6.85,4.436C875.215,326.722,878.656,323.559,875.658,322.174Z" transform="translate(-534.858 -189.284)" fill="#2f2e41"/><circle cx="4.265" cy="4.265" r="4.265" transform="translate(167.402 137.8)" fill="#3f3d56"/><path d="M480.945,289.783a2.4,2.4,0,0,1-1.12-.28l-43.694-23.051a2.4,2.4,0,0,1-.928-3.372,96.859,96.859,0,0,1,21.855-24.512c15.089-11.959,32.253-17.959,51.012-17.858a80.978,80.978,0,0,1,20.827,2.82l.269.073L513.21,273.475l-.224-.034a35.559,35.559,0,0,0-4.339-.385c-16.235-.458-23.271,10.6-25.543,15.371a2.354,2.354,0,0,1-1.4,1.232A2.415,2.415,0,0,1,480.945,289.783Z" transform="translate(-337.902 -153)" fill="#e56969"/><path d="M597.285,226.483,586,276.9a32.193,32.193,0,0,0-4.521-1.024l15.8-49.392Z" transform="translate(-406.355 -155.695)" fill="#3f3d56"/></g></svg>