<svg xmlns="http://www.w3.org/2000/svg" width="370" height="296.33" viewBox="0 0 370 296.33"><g transform="translate(7.635 13.622)"><path d="M232.615,192.847c0,66.3-42.448,82-101.752,82s-76.539-1.564-76.539-67.858S-22.538,25.514,36.766,25.514,232.615,126.552,232.615,192.847Z" transform="translate(-14.3 -25.514)" fill="snow"/><path d="M363.4,312.462H166.531a14.238,14.238,0,0,1-14.222-14.222V149.426A14.238,14.238,0,0,1,166.531,135.2H363.4a14.238,14.238,0,0,1,14.222,14.222V298.24A14.238,14.238,0,0,1,363.4,312.462ZM166.531,136.272a13.169,13.169,0,0,0-13.154,13.154V298.24a13.169,13.169,0,0,0,13.154,13.154H363.4a13.169,13.169,0,0,0,13.154-13.154V149.426A13.169,13.169,0,0,0,363.4,136.272H166.531Z" transform="translate(-78.625 -76.639)" fill="snow"/><g transform="translate(118.26 215.076)"><ellipse cx="4.035" cy="0.655" rx="4.035" ry="0.655" transform="translate(24.593 9.222) rotate(-1.469)" fill="snow"/><ellipse cx="4.035" cy="0.655" rx="4.035" ry="0.655" transform="translate(50.158 7.093) rotate(-1.469)" fill="snow"/><ellipse cx="4.035" cy="0.655" rx="4.035" ry="0.655" transform="translate(14.302 4.82) rotate(-1.469)" fill="snow"/><ellipse cx="0.589" cy="1.792" rx="0.589" ry="1.792" transform="matrix(0.011, -1, 1, 0.011, 6.254, 4.632)" fill="snow"/><ellipse cx="0.589" cy="1.792" rx="0.589" ry="1.792" transform="matrix(0.011, -1, 1, 0.011, 0, 1.177)" fill="snow"/><ellipse cx="0.589" cy="1.792" rx="0.589" ry="1.792" transform="matrix(0.011, -1, 1, 0.011, 34.011, 5.884)" fill="snow"/><ellipse cx="0.589" cy="1.792" rx="0.589" ry="1.792" transform="matrix(0.011, -1, 1, 0.011, 22.42, 8.071)" fill="snow"/><ellipse cx="0.589" cy="1.792" rx="0.589" ry="1.792" transform="matrix(0.011, -1, 1, 0.011, 41.63, 9.688)" fill="snow"/></g><g transform="translate(198.881 214.008)"><ellipse cx="4.035" cy="0.655" rx="4.035" ry="0.655" transform="translate(24.593 9.223) rotate(-1.469)" fill="snow"/><ellipse cx="4.035" cy="0.655" rx="4.035" ry="0.655" transform="translate(50.158 7.094) rotate(-1.469)" fill="snow"/><ellipse cx="4.035" cy="0.655" rx="4.035" ry="0.655" transform="translate(14.302 4.82) rotate(-1.469)" fill="snow"/><ellipse cx="0.589" cy="1.792" rx="0.589" ry="1.792" transform="matrix(0.011, -1, 1, 0.011, 6.254, 4.632)" fill="snow"/><ellipse cx="0.589" cy="1.792" rx="0.589" ry="1.792" transform="matrix(0.011, -1, 1, 0.011, 0, 1.177)" fill="snow"/><ellipse cx="0.589" cy="1.792" rx="0.589" ry="1.792" transform="matrix(0.011, -1, 1, 0.011, 34.011, 5.884)" fill="snow"/><ellipse cx="0.589" cy="1.792" rx="0.589" ry="1.792" transform="matrix(0.011, -1, 1, 0.011, 22.42, 8.071)" fill="snow"/><ellipse cx="0.589" cy="1.792" rx="0.589" ry="1.792" transform="matrix(0.011, -1, 1, 0.011, 41.63, 9.688)" fill="snow"/></g><path d="M222.174,342.48a1.5,1.5,0,0,1-1.086-2.6l.1-.408-.041-.1a4.025,4.025,0,0,0-7.425.028c-1.214,2.925-2.761,5.855-3.141,8.947a11.907,11.907,0,0,0,.209,4.1,47.742,47.742,0,0,1-4.343-19.829,46.081,46.081,0,0,1,.286-5.141q.237-2.1.657-4.168a48.3,48.3,0,0,1,9.577-20.469,12.853,12.853,0,0,0,5.345-5.546,9.8,9.8,0,0,0,.892-2.679c-.26.034-.981-3.929-.785-4.172-.363-.55-1.012-.824-1.408-1.361-1.97-2.671-4.684-2.2-6.1,1.425-3.027,1.527-3.056,4.061-1.2,6.5,1.182,1.55,1.344,3.647,2.381,5.307-.107.137-.218.269-.324.405a48.608,48.608,0,0,0-5.073,8.037,20.206,20.206,0,0,0-1.206-9.385c-1.155-2.786-3.319-5.132-5.225-7.54a4.147,4.147,0,0,0-7.387,2.037l-.011.106q.425.24.831.509a2.033,2.033,0,0,1-.82,3.7l-.041.006a20.23,20.23,0,0,0,.533,3.025c-2.445,9.456,2.834,12.9,10.371,13.054.166.085.329.171.495.252a49.613,49.613,0,0,0-2.671,12.568,47.055,47.055,0,0,0,.034,7.6l-.013-.09a12.434,12.434,0,0,0-4.245-7.18c-3.267-2.683-7.882-3.672-11.406-5.828a2.334,2.334,0,0,0-3.574,2.27l.014.094a13.656,13.656,0,0,1,1.532.738q.425.24.831.509a2.033,2.033,0,0,1-.82,3.7l-.042.006-.085.013a20.248,20.248,0,0,0,3.724,5.832c1.529,8.254,8.1,9.038,15.119,6.634h0a49.6,49.6,0,0,0,3.332,9.727h11.9c.043-.132.081-.269.119-.4a13.524,13.524,0,0,1-3.293-.2c.883-1.084,1.766-2.176,2.649-3.259a.736.736,0,0,0,.055-.064c.448-.555.9-1.1,1.348-1.659h0a19.808,19.808,0,0,0-.58-5.046h0Z" transform="translate(-94.484 -147.566)" fill="snow"/><path d="M472.036,342.48a1.5,1.5,0,0,0,1.086-2.6l-.1-.408.041-.1a4.025,4.025,0,0,1,7.425.028c1.214,2.925,2.761,5.855,3.141,8.947a11.908,11.908,0,0,1-.209,4.1,47.742,47.742,0,0,0,4.343-19.829,46.081,46.081,0,0,0-.286-5.141q-.237-2.1-.657-4.168a48.3,48.3,0,0,0-9.577-20.469,12.853,12.853,0,0,1-5.345-5.546,9.8,9.8,0,0,1-.892-2.679c.26.034.981-3.929.785-4.172.363-.55,1.012-.824,1.408-1.361,1.97-2.671,4.684-2.2,6.1,1.425,3.027,1.527,3.056,4.061,1.2,6.5-1.181,1.55-1.344,3.647-2.38,5.307.107.137.218.269.324.405a48.612,48.612,0,0,1,5.073,8.037,20.206,20.206,0,0,1,1.206-9.385c1.155-2.786,3.319-5.132,5.225-7.54a4.147,4.147,0,0,1,7.387,2.037q.006.053.011.106-.425.24-.831.509a2.033,2.033,0,0,0,.82,3.7l.041.006a20.232,20.232,0,0,1-.533,3.025c2.445,9.456-2.834,12.9-10.371,13.054-.166.085-.329.171-.495.252a49.614,49.614,0,0,1,2.671,12.568,47.059,47.059,0,0,1-.034,7.6l.013-.09a12.434,12.434,0,0,1,4.245-7.18c3.267-2.683,7.882-3.672,11.406-5.828a2.334,2.334,0,0,1,3.574,2.27l-.014.094a13.658,13.658,0,0,0-1.532.738q-.425.24-.831.509a2.033,2.033,0,0,0,.82,3.7l.042.006.085.013a20.248,20.248,0,0,1-3.724,5.832c-1.529,8.254-8.1,9.038-15.119,6.634h0a49.6,49.6,0,0,1-3.332,9.727h-11.9c-.043-.132-.081-.269-.119-.4a13.524,13.524,0,0,0,3.293-.2c-.883-1.084-1.766-2.176-2.649-3.259a.731.731,0,0,1-.055-.064c-.448-.555-.9-1.1-1.348-1.659h0a19.81,19.81,0,0,1,.58-5.046h0Z" transform="translate(-225.165 -133.833)" fill="snow"/><circle cx="25.094" cy="25.094" r="25.094" transform="translate(266.901 39.509)" fill="#e56969"/><rect width="113" height="101" transform="translate(98.365 40.289)" fill="snow"/></g><path d="M75.04,82.339H60.624a2.67,2.67,0,1,1,0-5.339H75.04a2.67,2.67,0,0,1,0,5.339Z" transform="translate(-27.012 -35.889)" fill="#2d3032"/><g transform="translate(269.625 41.111)"><circle cx="2.403" cy="2.403" r="2.403" fill="#e6e6e6"/><circle cx="2.403" cy="2.403" r="2.403" transform="translate(7.475)" fill="#e6e6e6"/><circle cx="2.403" cy="2.403" r="2.403" transform="translate(14.949)" fill="#e6e6e6"/></g><path d="M603.124,283.5V401.927a12.129,12.129,0,0,1-12.114,12.114H500.17l.844-1.068L602.056,284.856Z" transform="translate(-233.124 -132.136)" fill="#a5a5a5"/><path d="M357.886,0H12.114A12.129,12.129,0,0,0,0,12.114V269.79A12.129,12.129,0,0,0,12.114,281.9H357.886A12.129,12.129,0,0,0,370,269.79V12.114A12.129,12.129,0,0,0,357.886,0Zm11.047,269.79a11.047,11.047,0,0,1-11.047,11.047H12.114A11.047,11.047,0,0,1,1.068,269.79V84.185A83.117,83.117,0,0,1,84.185,1.068h273.7a11.047,11.047,0,0,1,11.047,11.047Z" fill="#a5a5a5"/><path d="M389.829,247.45,388.2,222.176a4.088,4.088,0,0,0-4.29-3.807h0a4.088,4.088,0,0,0-3.855,4.51l2.5,26.2.848,15.985a3.567,3.567,0,1,0,4.443,1.106l1.986-18.721Z" transform="translate(-177.128 -101.777)" fill="#ffb6b6"/><path d="M388.185,242.415h0a1.205,1.205,0,0,0,.132-1.455,1.564,1.564,0,0,1-.219-.928c.006-.063.015-15.075.029-15.136a2.359,2.359,0,0,0-.508-2.121,7.46,7.46,0,0,1-1.485-3.659,17.787,17.787,0,0,0-.959-4.169c-.815-1.9-2.657-3.544-5.058-2.636a4.747,4.747,0,0,0-2.4,2.094c-1.143,1.977-1.072,4.314-.982,6.55l-.468-.868a18.152,18.152,0,0,1-1.041,7.184c.538-.125.948,15.539.791,16.069a3.174,3.174,0,0,1-1.03,1.27c-.506.478-.975,1.177-.46,1.861a1.486,1.486,0,0,0,1.054.554,28.088,28.088,0,0,0,11.423-1.294,3.427,3.427,0,0,0,2.092-1.4c.4-.76-.057-1.962-.916-1.919Z" transform="translate(-174.461 -98.836)" fill="#e56969"/><ellipse cx="36.347" cy="84.914" rx="36.347" ry="84.914" transform="translate(132.496 296.33) rotate(-90)" fill="snow"/><g transform="translate(166.762 223.635)"><path d="M323.3,433.172l-3.63,1.422-7.334-13.633,5.356-2.1Z" transform="translate(-312.341 -418.862)" fill="#ffb6b6"/><path d="M315.4,454.279a1.745,1.745,0,0,0,2.258.987l7.216-2.828.234-3.058,1.493,2.379,2.723-1.065-4.359-8.873-.969.316-3.957,1.281-1.276.416,1.018,2.6-4.2,6.238a1.742,1.742,0,0,0-.177,1.609Z" transform="translate(-313.71 -429.563)" fill="#2f2e41"/></g><g transform="translate(202.462 257.203)"><path d="M396.945,497.1l-3.9.081-2.172-15.328,5.752-.12Z" transform="translate(-384.645 -481.735)" fill="#ffb6b6"/><path d="M379.207,515.26a1.745,1.745,0,0,0,1.778,1.707l7.748-.161,1.276-2.788.579,2.748,2.924-.059-1.025-9.833-1.019-.038-4.156-.165-1.341-.051.058,2.789-6.1,4.4a1.742,1.742,0,0,0-.722,1.448Z" transform="translate(-379.206 -493.334)" fill="#2f2e41"/></g><path d="M315.636,272.273l25.631,4.476-.965,4.823s1.608,2.023.965,2.78-1.929-.529-.643.757,1.7,1.632-.231,3.562,1.18-1.153,1.18-1.153.147,3.55.895,4.664c5.172,7.707,3.784,14.6,1.14,23.5-1.5,5.035,1.588,14.74,1.588,16.513l-.3,12.423s6.752,27.329,3.215,40.19l.5,4.947-8.216.2-9.646-38.583a27.371,27.371,0,0,1-1.56-5.309c-.048-1.443-.048-.157-.048-1.443a24.931,24.931,0,0,0-.322-2.894c0-.322-2.572-31.762-2.572-31.762s-9.435,5.206-10.4,6.17-2.682.082-2.67,1.068-.885,1.344-1.6,2.136-1.9-.805-1.255,1.445-8.537,5.672-9.5,6.637,7.553,7.935,6.485,21.283l-.534,5.339-6.941,3.2-14.823-27.615a9.387,9.387,0,0,1,1.341-10L307.3,294.773s2.545-12.211,4.8-13.5l3.537-9Z" transform="translate(-132.433 -126.903)" fill="#2f2e41"/><path d="M360.413,235.021c.225-.961-1.633-7.572-.842-9.909.518-1.53,1.762-2.659,1.746-4.482a2.873,2.873,0,0,0-.023-.367c-.007-.065-.02-.131-.029-.2,1.609-5.731,2.415-16.387,2.415-16.387l-7.7-9.183c0-.04-.011-.078-.015-.119-.158-1.357-1.3-.372-2.555-1.086-.559-.315-.268-2.891-.914-2.714-.022.006-.042.015-.064.022l-.02-.022-1.27-1.366-6.988-.643-1.624,2.215v.016c-1.383.256-1.739.408-1.95,1.942-.039.289-.064.579-.074.871-.048,1.094-5.768,2.192-5.506,3.232l-1.878,1.252s-7.058,8.8-4.486,11.37a7.454,7.454,0,0,1,1.7,4.366c.007.06.02.113.03.17-.295.947-.706,2.554-.033,2.9,1.2.618,3.775,18.585,1.051,19.867-6.453,3.037,10.858,9.019,17.745,9.382a20.945,20.945,0,0,0,6.356-.55l6.47.546-.534-3.2c4.636-.4-1.235-6.928-1-7.924Z" transform="translate(-152.909 -87.89)" fill="#e56969"/><g transform="translate(144.242 69.734)"><path d="M278.34,159.308l18.866,16.238a4.2,4.2,0,0,0,5.831.824h0a4.2,4.2,0,0,0,.74-6.046l-20.135-16.539-6.666-17.661a3.663,3.663,0,1,0-4.429,1.574l5.794,21.611Z" transform="translate(-270.161 -130.609)" fill="#e56969"/><path d="M284.361,181.142h0c-.1.552,12.488,10.686,12.993,10.931a1.606,1.606,0,0,1,.714.67,1.49,1.49,0,0,1,.081.176,2.422,2.422,0,0,0,1.638,1.526,7.66,7.66,0,0,1,3.347,2.288,18.259,18.259,0,0,0,3.186,3.023c1.772,1.159,4.284,1.525,5.824-.614a4.875,4.875,0,0,0,.862-3.15c-.144-2.34-1.531-4.3-2.876-6.162l.893.477c-1.5-2-4.312-2.513-4.906-4.942-.39.412-1.145.033-1.312-.509s-12.248-10.729-12.12-11.281c.162-.7.167-1.561-.663-1.853a1.526,1.526,0,0,0-1.216.124c-3.494,1.87-4.873,2.677-7.32,5.793a3.519,3.519,0,0,0-1,2.382c.087.879,1.162,1.646,1.873,1.122Z" transform="translate(-275.902 -149.736)" fill="#e56969"/></g><circle cx="11.059" cy="11.059" r="11.059" transform="translate(181.982 79.134)" fill="#ffb6b6"/><path d="M108.1,182.13H50.77a3.223,3.223,0,1,0,0,6.445H108.1a3.223,3.223,0,1,0,0-6.445Z" transform="translate(-22.161 -84.889)" fill="#2d3032"/><path d="M83.111,148.286H50.77a3.223,3.223,0,1,0,0,6.445H83.111a3.223,3.223,0,1,0,0-6.445Z" transform="translate(-22.161 -69.115)" fill="#2d3032"/><path d="M108.1,363.13H50.77a3.223,3.223,0,1,0,0,6.445H108.1a3.223,3.223,0,1,0,0-6.445Z" transform="translate(-22.161 -169.251)" fill="#979797"/><path d="M83.111,329.286H50.77a3.223,3.223,0,1,0,0,6.445H83.111a3.223,3.223,0,1,0,0-6.445Z" transform="translate(-22.161 -153.477)" fill="#979797"/><path d="M623.736,470.328a1.212,1.212,0,0,0,.878-2.1l-.083-.33.033-.079a3.254,3.254,0,0,1,6,.022c.982,2.364,2.231,4.733,2.539,7.232a9.626,9.626,0,0,1-.169,3.311,38.592,38.592,0,0,0,3.511-16.028,37.252,37.252,0,0,0-.231-4.155q-.191-1.7-.531-3.369a39.039,39.039,0,0,0-7.742-16.546,10.389,10.389,0,0,1-4.321-4.483,7.925,7.925,0,0,1-.721-2.166,9.783,9.783,0,0,0,.635-3.373c.293-.445.818-.666,1.138-1.1,1.592-2.159,3.786-1.782,4.931,1.152,2.446,1.235,2.47,3.283.969,5.252-.955,1.253-1.086,2.948-1.924,4.29.086.11.176.217.262.328a39.291,39.291,0,0,1,4.1,6.5,16.333,16.333,0,0,1,.975-7.587c.933-2.252,2.683-4.148,4.224-6.095a3.353,3.353,0,0,1,5.971,1.646l.009.086q-.343.194-.672.411a1.644,1.644,0,0,0,.663,2.991l.034.005a16.357,16.357,0,0,1-.431,2.445c1.976,7.643-2.291,10.427-8.383,10.552-.135.069-.266.138-.4.2a40.1,40.1,0,0,1,2.159,10.159,38.027,38.027,0,0,1-.028,6.142l.01-.072a10.051,10.051,0,0,1,3.431-5.8c2.641-2.169,6.371-2.968,9.22-4.711a1.886,1.886,0,0,1,2.889,1.835l-.012.076a11.042,11.042,0,0,0-1.238.6q-.343.194-.672.411a1.644,1.644,0,0,0,.663,2.991l.034.005.069.01a16.364,16.364,0,0,1-3.01,4.714c-1.236,6.672-6.544,7.305-12.221,5.362h0a40.093,40.093,0,0,1-2.693,7.862h-9.621c-.034-.107-.066-.217-.1-.324a10.932,10.932,0,0,0,2.662-.159c-.714-.876-1.428-1.759-2.141-2.635a.605.605,0,0,1-.045-.052c-.362-.448-.728-.893-1.09-1.341h0a16.012,16.012,0,0,1,.469-4.079Z" transform="translate(-290.328 -198.455)" fill="snow"/><g transform="translate(179.177 75.318)"><path d="M361.881,152.266c1.547-5.64-15.312-10.476-18.588-5.934a3.574,3.574,0,0,0-2.912-.84,6.024,6.024,0,0,0-2.056,1.173,8.12,8.12,0,0,0-2.309,2.325,2.764,2.764,0,0,0,.1,3.1c.574.662,1.584,4.177,2.447,4.351.6.123,1.109.222,1.545.293.388-.566,1.378-1.278,1.307-1.963.586.388.372,1.071.254,1.769-.394,2.324-9.261,20.318-4.182,15.016a10.645,10.645,0,0,0,1.842.828,23.165,23.165,0,0,0,2.872-6.259l0,.042a4.935,4.935,0,0,0,3.563,4.129c7.624,2.209,13.791-1.032,15.912-6.877-.777-1.577-1.115-1.405-1.045-1.452a1.825,1.825,0,0,1,2.719.866c.123.322.234.6.331.8,1.105-3.953,2.42-3.383-1.807-11.369Z" transform="translate(-335.594 -142.684)" fill="#2f2e41"/><path d="M374.238,146.559l-.779-3.981a1.588,1.588,0,0,1,.023-1,1.077,1.077,0,0,1,1.126-.493c.434.063.758.459,1.19.535,1.5.265,3.483-1.217,4.021,2.532.224,1.563,2.718,1.728,3.551,3.069a3.6,3.6,0,0,1-.2,4.373,3.429,3.429,0,0,1-3.545.529,7.709,7.709,0,0,1-2.952-2.3,26.582,26.582,0,0,0-2.529-2.808" transform="translate(-353.21 -141.068)" fill="#2f2e41"/><path d="M379.906,155.513c-3.042-.425-5.116-1.531-6.163-3.288a6.171,6.171,0,0,1-.413-4.939l.643.239a5.569,5.569,0,0,0,.363,4.354c.937,1.566,2.843,2.56,5.665,2.954l-.095.679Z" transform="translate(-353.025 -143.966)" fill="#e56969"/></g></svg>