<svg xmlns="http://www.w3.org/2000/svg" width="754" height="506" viewBox="0 0 754 506"><g transform="translate(-940 -6355)"><rect width="506" height="754" transform="translate(940 6861) rotate(-90)" fill="#fff"/><g transform="translate(1129.698 6285.717)"><path d="M436.691,569.9l-9.479-.95-.845-37.015,13.991,1.4Z" transform="translate(-115.276 -66.837)" fill="#9e616a"/><path d="M688.4,736.72l-30.566-3.064.039-.387a11.957,11.957,0,0,1,13.089-10.7h0l18.669,1.871Z" transform="translate(-365.485 -224.221)" fill="#2f2e41"/><path d="M741.583,703.862c-17.907,0-32.476-28.561-32.476-63.667a115.635,115.635,0,0,1,3.641-29.335c.337-1.283.7-2.554,1.086-3.782,5.938-19.128,16.311-30.549,27.749-30.549,17.907,0,32.476,28.56,32.476,63.666S759.49,703.862,741.583,703.862Zm0-125.779c-10.561,0-20.625,11.288-26.265,29.458-.377,1.206-.736,2.454-1.066,3.709a114.089,114.089,0,0,0-3.591,28.941c0,34.253,13.871,62.117,30.921,62.117S772.5,674.444,772.5,640.2s-13.871-62.112-30.921-62.112Z" transform="translate(-376.914 -191.682)" fill="#3f3d56"/><path d="M432.108,592.67l-35.833-3.661.143-1,35.833,3.661Z" transform="translate(-108.568 -79.334)" fill="#3f3d56"/><path d="M757.592,685.362c-6.8,0-11.935-16.219-11.935-37.726s5.131-37.725,11.935-37.725,11.935,16.218,11.935,37.725S764.4,685.362,757.592,685.362Zm0-73.9c-4.992,0-10.381,13.829-10.381,36.17s5.388,36.171,10.381,36.171,10.381-13.829,10.381-36.171-5.388-36.171-10.381-36.171Z" transform="translate(-385.061 -199.124)" fill="#3f3d56"/><ellipse cx="4.311" cy="8.486" rx="4.311" ry="8.486" transform="translate(369.487 440.027)" fill="#cacaca"/><path d="M837.232,704.291c-18.466,0-33.49-29.016-33.49-64.681a116.314,116.314,0,0,1,3.594-29.218c.366-1.4.754-2.75,1.152-4.026,6.1-19.685,16.848-31.437,28.743-31.437,18.466,0,33.49,29.016,33.49,64.681S855.7,704.291,837.232,704.291Zm0-127.808c-11.011,0-21.456,11.628-27.259,30.345-.392,1.255-.772,2.585-1.132,3.954a114.743,114.743,0,0,0-3.545,28.824c0,34.812,14.326,63.131,31.935,63.131s31.936-28.319,31.936-63.127S854.842,576.483,837.232,576.483Z" transform="translate(-398.009 -191.326)" fill="#3f3d56"/><path d="M853.531,685.067c-6.8,0-11.935-16.218-11.935-37.725s5.131-37.725,11.935-37.725,11.935,16.218,11.935,37.725S860.336,685.067,853.531,685.067Zm0-73.9c-4.992,0-10.381,13.829-10.381,36.171s5.388,36.171,10.381,36.171,10.381-13.829,10.381-36.171-5.388-36.171-10.381-36.171Z" transform="translate(-406.447 -199.058)" fill="#3f3d56"/><ellipse cx="4.311" cy="8.486" rx="4.311" ry="8.486" transform="translate(444.042 439.798)" fill="#cacaca"/><path d="M858.264,741.361H562.191a.777.777,0,1,1,0-1.554H858.264a.777.777,0,1,1,0,1.554Z" transform="translate(-343.993 -228.078)" fill="#cacaca"/><path d="M700.9,355.794a7.814,7.814,0,0,0,5.81,10.48l3.959,27.486,10.791-9.581-5.414-24.632a7.857,7.857,0,0,0-15.146-3.753Z" transform="translate(-374.969 -141.346)" fill="#9e616a"/><g transform="translate(-12.474 95.622)"><path d="M460.694,454.574H272.417a16.851,16.851,0,0,1-16.832-16.832V164.7a16.851,16.851,0,0,1,16.832-16.832H460.694A16.851,16.851,0,0,1,477.526,164.7V437.742A16.851,16.851,0,0,1,460.694,454.574Z" transform="translate(-255.585 -147.866)" fill="#e4e4e4"/><path d="M464.27,446.914H275.331a5.2,5.2,0,0,1-5.189-5.189V166.874a5.194,5.194,0,0,1,5.189-5.189H464.27a5.2,5.2,0,0,1,5.189,5.189V441.726A5.194,5.194,0,0,1,464.27,446.914Z" transform="translate(-258.83 -150.946)" fill="#fff"/><rect width="124.805" height="4.638" transform="translate(68.356 156.132)" fill="#e4e4e4"/><rect width="124.805" height="4.638" transform="translate(68.356 170.817)" fill="#e4e4e4"/><rect width="124.805" height="4.638" transform="translate(68.356 185.502)" fill="#e4e4e4"/><rect width="28.276" height="28.276" transform="translate(28.78 158.998)" fill="#e4e4e4"/><rect width="124.805" height="4.638" transform="translate(68.356 217.68)" fill="#e4e4e4"/><rect width="124.805" height="4.638" transform="translate(68.356 232.365)" fill="#e4e4e4"/><rect width="124.805" height="4.638" transform="translate(68.356 247.051)" fill="#e4e4e4"/><rect width="28.276" height="28.276" transform="translate(28.78 220.546)" fill="#e4e4e4"/><g transform="translate(-1347.606 -6321.063)"><circle cx="25" cy="25" r="25" transform="translate(1435.528 6379.418)" fill="#2d3032"/><path d="M25,2a23.007,23.007,0,0,0-8.952,44.193,23.006,23.006,0,0,0,17.9-42.387A22.854,22.854,0,0,0,25,2m0-2A25,25,0,1,1,0,25,25,25,0,0,1,25,0Z" transform="translate(1424.528 6375.418)" fill="#3f3d56"/></g></g><g transform="translate(34.766 241.48)"><path d="M460.694,454.574H272.417a16.851,16.851,0,0,1-16.832-16.832V164.7a16.851,16.851,0,0,1,16.832-16.832H460.694A16.851,16.851,0,0,1,477.526,164.7V437.742A16.851,16.851,0,0,1,460.694,454.574Z" transform="translate(-255.585 -147.866)" fill="#e4e4e4"/><path d="M464.27,446.914H275.331a5.2,5.2,0,0,1-5.189-5.189V166.874a5.194,5.194,0,0,1,5.189-5.189H464.27a5.2,5.2,0,0,1,5.189,5.189V441.726A5.194,5.194,0,0,1,464.27,446.914Z" transform="translate(-258.83 -150.946)" fill="#fff"/><rect width="124.805" height="4.638" transform="translate(68.356 156.132)" fill="#e4e4e4"/><rect width="124.805" height="4.638" transform="translate(68.356 170.817)" fill="#e4e4e4"/><rect width="124.805" height="4.638" transform="translate(68.356 185.502)" fill="#e4e4e4"/><rect width="28.276" height="28.276" transform="translate(28.78 158.998)" fill="#e4e4e4"/><rect width="124.805" height="4.638" transform="translate(68.356 217.68)" fill="#e4e4e4"/><rect width="124.805" height="4.638" transform="translate(68.356 232.365)" fill="#e4e4e4"/><rect width="124.805" height="4.638" transform="translate(68.356 247.051)" fill="#e4e4e4"/><rect width="28.276" height="28.276" transform="translate(28.78 220.546)" fill="#e4e4e4"/><g transform="translate(-1347.606 -6321.063)"><path d="M27.5,0,55,55H0Z" transform="translate(1424.709 6378.418) rotate(-21)" fill="#2d3032"/><path d="M27.5,4.472,3.236,53H51.764L27.5,4.472M27.5,0,55,55H0Z" transform="translate(1413.709 6377.418) rotate(-21)" fill="#3f3d56"/></g></g><g transform="translate(-148.444 172.232)"><path d="M460.694,454.574H272.417a16.851,16.851,0,0,1-16.832-16.832V164.7a16.851,16.851,0,0,1,16.832-16.832H460.694A16.851,16.851,0,0,1,477.526,164.7V437.742A16.851,16.851,0,0,1,460.694,454.574Z" transform="translate(-255.585 -147.866)" fill="#e4e4e4"/><path d="M464.27,446.914H275.331a5.2,5.2,0,0,1-5.189-5.189V166.874a5.194,5.194,0,0,1,5.189-5.189H464.27a5.2,5.2,0,0,1,5.189,5.189V441.726A5.194,5.194,0,0,1,464.27,446.914Z" transform="translate(-258.83 -150.946)" fill="#fff"/><rect width="124.805" height="4.638" transform="translate(68.356 156.132)" fill="#e4e4e4"/><rect width="124.805" height="4.638" transform="translate(68.356 170.817)" fill="#e4e4e4"/><rect width="124.805" height="4.638" transform="translate(68.356 185.502)" fill="#e4e4e4"/><rect width="28.276" height="28.276" transform="translate(28.78 158.998)" fill="#e4e4e4"/><rect width="124.805" height="4.638" transform="translate(68.356 217.68)" fill="#e4e4e4"/><rect width="124.805" height="4.638" transform="translate(68.356 232.365)" fill="#e4e4e4"/><rect width="124.805" height="4.638" transform="translate(68.356 247.051)" fill="#e4e4e4"/><rect width="28.276" height="28.276" transform="translate(28.78 220.546)" fill="#e4e4e4"/><rect width="52.419" height="50.604" transform="matrix(0.933, -0.361, 0.361, 0.933, 83.586, 68.834)" fill="#2d3032"/><path d="M365.709,274.427,345.934,223.3l52.912-20.464,19.775,51.13Zm-17.765-50.241L366.6,272.417l50.013-19.343-18.653-48.231Z" transform="translate(-275.725 -160.119)" fill="#3f3d56"/></g><path d="M494.987,348.366l69.483-.253v27.373l-69.483,2.8Z" transform="translate(-130.572 -25.861)" fill="#3f3d56"/><path d="M471.9,579.167l-9.429-1.361.761-37.018,13.917,2.009Z" transform="translate(-123.325 -68.81)" fill="#9e616a"/><path d="M722.871,745.941l-30.4-4.387.055-.385a11.957,11.957,0,0,1,13.541-10.126h0l18.57,2.68Z" transform="translate(-373.205 -226.097)" fill="#2f2e41"/><path d="M418.335,451.9l-1.012-.056,3.069-55.761h62.863V397.1h-61.9Z" transform="translate(-113.26 -36.554)" fill="#3f3d56"/><rect width="1.015" height="43.256" transform="translate(311.539 514.113) rotate(-80.427)" fill="#3f3d56"/><path d="M780.335,614.658q-.571,1.833-1.075,3.743l-1.06.117-32.987,3.667-75.569-7.608,78.612-4.057,31.085,4.012Z" transform="translate(-368.118 -199.259)" fill="#3f3d56"/><path d="M779.5,373.227s-10.984-3.5-18.046,10.507S743.4,413.153,743.4,413.153l6.277,1.4s1.569-9.806,5.492-11.207L753.6,415.955s47.077,14.71,68.261-1.4l-.785-4.9s3.138.7,3.138,4.9l2.354-2.1s-2.354-4.2-9.415-9.806c-4.635-3.678-6.228-10.675-6.775-15.05a17.271,17.271,0,0,0-4.7-9.918C800.993,372.823,792.442,367.662,779.5,373.227Z" transform="translate(-384.559 -145.828)" fill="#2f2e41"/><path d="M725.182,567l-1.532,5.459s-30.879-7.49-34.9,11.876-9.54,79.3-9.54,79.3l15.593,3.2,14.808-65.34,59.976-13.083-3.927-33.848Z" transform="translate(-370.249 -186.788)" fill="#2f2e41"/><path d="M758.684,577.619S717.1,569,714.053,589.791s1.521,60.354,2.029,61.368-2.029,19.78-2.029,19.78l18.258,2.536s11.665-55.282,6.593-69.483l34.315-2.123a23.569,23.569,0,0,0,22.2-21.938c.261-4.535-.875-8.652-4.787-10.934-12.172-7.1-34.488-7.1-34.488-7.1Z" transform="translate(-377.785 -188.421)" fill="#2f2e41"/><circle cx="18.258" cy="18.258" r="18.258" transform="translate(382.42 241.48)" fill="#a0616a"/><path d="M766.54,451.282l-11.665-1.456L746.3,470.073s-11.964,74.341-8.921,75.355a13.716,13.716,0,0,0,5.325.761l57.577,3s2.569-11.582,1.554-20.2,10.858-55.826,10.858-55.826L810.411,451.6l-9.715-.179-6.994-5.44-19.464-.061Z" transform="translate(-383.105 -162.569)" fill="#e4e4e4"/><path d="M492.69,286.681l-.507-3.043-14.2-17.244L463.4,218.134,449.415,232.9l14.874,47.188,20.287,25.866Z" transform="translate(-120.413 3.112)" fill="#e4e4e4"/><path d="M766.146,410.917s6.277-8.631,11.769-10.2,6.277-9.415,6.277-9.415,14.123,15.692,22.754,16.477.785-18.831.785-18.831l-15.692-3.923-14.908,1.569-11.769,7.846Z" transform="translate(-389.454 -148.995)" fill="#2f2e41"/><path d="M571.957,423.13l-.491-20.812h-47.2l-1.508,55.8-1.014-.027,1.535-56.79h49.166l.016.49.507,21.3Z" transform="translate(-136.536 -37.718)" fill="#3f3d56"/><path d="M584.763,381.715h-1.015V343l16.372,4.753-.284.974-15.073-4.376Z" transform="translate(-150.357 -24.722)" fill="#3f3d56"/><path d="M594.191,341.913l10.651,4.057-2.029,5.579L594.191,348Z" transform="translate(-152.685 -24.479)" fill="#3f3d56"/><path d="M540.021,398.041v8.114h30.217V398.58Z" transform="translate(-140.61 -36.991)" fill="#3f3d56"/><path d="M440.164,392.82v8.114h30.218v-7.576Z" transform="translate(-118.351 -35.827)" fill="#3f3d56"/><path d="M760.472,512.29h-.247v-6.754a3.909,3.909,0,0,0-3.909-3.909H742.008a3.909,3.909,0,0,0-3.909,3.909h0v37.051a3.909,3.909,0,0,0,3.909,3.909h14.309a3.909,3.909,0,0,0,3.909-3.909V517.1h.246Z" transform="translate(-383.377 -174.986)" fill="#3f3d56"/><circle cx="2.394" cy="2.394" r="2.394" transform="translate(363.515 335.756)" fill="#d0cde1"/><path d="M563.858,338l-1.522,28.909-22.315,4.565,20.287-8.115Z" transform="translate(-140.61 -23.606)" opacity="0.15"/><path d="M708.82,336.134V274.971H887.552V320.2h-162.8Z" transform="translate(-376.85 -124.463)" fill="#fff"/><path d="M708.82,336.134V274.971H887.552V320.2h-162.8Zm1.554-59.609v55.857l13.734-13.735H886V276.525Z" transform="translate(-376.85 -124.463)" fill="#3f3d56"/><rect width="99.676" height="8.082" transform="translate(372.275 161.89)" fill="#2d3032"/><rect width="99.676" height="8.082" transform="translate(372.275 174.012)" fill="#2d3032"/><path d="M757.128,546.689a7.814,7.814,0,0,0,11.136-4.422l27.766-.412-8.122-11.928-25.122,2.219a7.857,7.857,0,0,0-5.659,14.542Z" transform="translate(-386.69 -181.295)" fill="#9e616a"/><path d="M813.106,456.626l4.565-3.55s7.608-4.057,9.129,10.143,12.679,61.368,1.522,61.875-52.767,1.627-52.767,1.627L774,512.734l41.134-3.869Z" transform="translate(-391.379 -164.044)" fill="#e4e4e4"/></g></g></svg>