<svg xmlns="http://www.w3.org/2000/svg" width="485" height="879"><g transform="translate(-1157 -6187)"><rect width="485" height="879" fill="#fff" rx="242.5" transform="translate(1157 6187)"/><g transform="translate(1017 6449.717)"><path fill="#9e616a" d="m321.415 503.063-9.479-.95-.845-37.015 13.991 1.4Z"/><path fill="#e4e4e4" d="M442.187 133.635H253.91a16.851 16.851 0 0 1-16.832-16.832v-273.042a16.851 16.851 0 0 1 16.832-16.832h188.277a16.851 16.851 0 0 1 16.832 16.832v273.042a16.851 16.851 0 0 1-16.832 16.832Z"/><path fill="#fff" d="M442.518 122.895H253.579a5.2 5.2 0 0 1-5.189-5.189v-274.851a5.194 5.194 0 0 1 5.189-5.189h188.939a5.2 5.2 0 0 1 5.189 5.189v274.852a5.194 5.194 0 0 1-5.189 5.188Z"/><path fill="#e4e4e4" d="M305.434-16.941h124.805v4.638H305.434zM305.434-2.256h124.805v4.638H305.434zM305.434 12.429h124.805v4.638H305.434zM265.858-14.075h28.276v28.276h-28.276zM305.434 44.607h124.805v4.638H305.434zM305.434 59.292h124.805v4.638H305.434zM305.434 73.978h124.805v4.638H305.434zM265.858 47.473h28.276v28.276h-28.276z"/><g transform="translate(-1110.528 -6494.136)"><circle cx="25" cy="25" r="25" fill="#2d3032" transform="translate(1435.528 6379.418)"/><path fill="#3f3d56" d="M1449.528 6377.418a23.007 23.007 0 0 0-8.952 44.193 23.006 23.006 0 0 0 17.9-42.387 22.854 22.854 0 0 0-8.948-1.806m0-2a25 25 0 1 1-25 25 25 25 0 0 1 25-25Z"/></g><path fill="#2f2e41" d="m322.915 512.499-30.566-3.064.039-.387a11.957 11.957 0 0 1 13.089-10.7l18.669 1.871Z"/><path fill="#e4e4e4" d="M543.901 213.157H355.624a16.851 16.851 0 0 1-16.832-16.832V-76.717a16.851 16.851 0 0 1 16.832-16.832h188.277a16.851 16.851 0 0 1 16.832 16.832v273.042a16.851 16.851 0 0 1-16.832 16.832Z"/><path fill="#fff" d="M544.232 202.417H355.293a5.2 5.2 0 0 1-5.189-5.189V-77.623a5.194 5.194 0 0 1 5.189-5.189h188.939a5.2 5.2 0 0 1 5.189 5.189v274.852a5.194 5.194 0 0 1-5.189 5.188Z"/><path fill="#e4e4e4" d="M407.148 62.581h124.805v4.638H407.148zM407.148 77.266h124.805v4.638H407.148zM407.148 91.951h124.805v4.638H407.148zM367.572 65.447h28.276v28.276h-28.276zM407.148 124.129h124.805v4.638H407.148zM407.148 138.814h124.805v4.638H407.148zM407.148 153.5h124.805v4.638H407.148zM367.572 126.995h28.276v28.276h-28.276z"/><path fill="#2d3032" d="M441.568-46.051 486.952-4.56l-51.347 19.71Z"/><path fill="#3f3d56" d="m432.171-42.876-5.261 54 45.304-17.39-40.043-36.61m-1.603-4.175L475.952-5.56l-51.347 19.71Z"/><path fill="#e4e4e4" d="M395.665 288.495H207.388a16.851 16.851 0 0 1-16.832-16.832V-1.379a16.851 16.851 0 0 1 16.832-16.832h188.277a16.851 16.851 0 0 1 16.832 16.832v273.042a16.851 16.851 0 0 1-16.832 16.832Z"/><path fill="#fff" d="M395.996 277.755H207.057a5.2 5.2 0 0 1-5.189-5.189V-2.285a5.194 5.194 0 0 1 5.189-5.189h188.939a5.2 5.2 0 0 1 5.189 5.189v274.852a5.194 5.194 0 0 1-5.189 5.188Z"/><path fill="#e4e4e4" d="M258.912 137.919h124.805v4.638H258.912zM258.912 152.604h124.805v4.638H258.912zM258.912 167.289h124.805v4.638H258.912zM219.336 140.785h28.276v28.276h-28.276zM258.912 199.467h124.805v4.638H258.912zM258.912 214.152h124.805v4.638H258.912zM258.912 228.838h124.805v4.638H258.912zM219.336 202.333h28.276v28.276h-28.276z"/><path fill="#2d3032" d="m274.142 50.621 48.907-18.923 18.268 47.213-48.907 18.924z"/><path fill="#3f3d56" d="m280.54 96.095-19.775-51.127 52.912-20.464 19.775 51.13Zm-17.765-50.241 18.656 48.231 50.013-19.343-18.653-48.231ZM364.669 512.18c-17.907 0-32.476-28.561-32.476-63.667a115.635 115.635 0 0 1 3.641-29.335c.337-1.283.7-2.554 1.086-3.782 5.938-19.128 16.311-30.549 27.749-30.549 17.907 0 32.476 28.56 32.476 63.666s-14.569 63.667-32.476 63.667Zm0-125.779c-10.561 0-20.625 11.288-26.265 29.458a84.57 84.57 0 0 0-1.066 3.709 114.089 114.089 0 0 0-3.591 28.941c0 34.253 13.871 62.117 30.921 62.117s30.918-27.864 30.918-62.108-13.871-62.112-30.921-62.112ZM323.54 513.336l-35.833-3.661.143-1 35.833 3.661Z"/><path fill="#3f3d56" d="M372.531 486.238c-6.8 0-11.935-16.219-11.935-37.726s5.131-37.725 11.935-37.725 11.935 16.218 11.935 37.725-5.127 37.726-11.935 37.726Zm0-73.9c-4.992 0-10.381 13.829-10.381 36.17s5.388 36.171 10.381 36.171 10.381-13.829 10.381-36.171-5.388-36.171-10.381-36.171Z"/><ellipse cx="4.311" cy="8.486" fill="#cacaca" rx="4.311" ry="8.486" transform="translate(369.487 440.027)"/><path fill="#3f3d56" d="M439.223 512.965c-18.466 0-33.49-29.016-33.49-64.681a116.314 116.314 0 0 1 3.594-29.218c.366-1.4.754-2.75 1.152-4.026 6.1-19.685 16.848-31.437 28.743-31.437 18.466 0 33.49 29.016 33.49 64.681s-15.021 64.681-33.489 64.681Zm0-127.808c-11.011 0-21.456 11.628-27.259 30.345a90.719 90.719 0 0 0-1.132 3.954 114.743 114.743 0 0 0-3.545 28.824c0 34.812 14.326 63.131 31.935 63.131s31.936-28.319 31.936-63.127-14.325-63.127-31.935-63.127Z"/><path fill="#3f3d56" d="M447.084 486.009c-6.8 0-11.935-16.218-11.935-37.725s5.131-37.725 11.935-37.725 11.935 16.218 11.935 37.725-5.13 37.725-11.935 37.725Zm0-73.9c-4.992 0-10.381 13.829-10.381 36.171s5.388 36.171 10.381 36.171 10.381-13.829 10.381-36.171-5.388-36.171-10.381-36.171Z"/><ellipse cx="4.311" cy="8.486" fill="#cacaca" rx="4.311" ry="8.486" transform="translate(444.042 439.798)"/><path fill="#cacaca" d="M514.271 513.283H218.198a.777.777 0 1 1 0-1.554h296.073a.777.777 0 1 1 0 1.554Z"/><path fill="#9e616a" d="M325.931 214.448a7.814 7.814 0 0 0 5.81 10.48l3.959 27.486 10.791-9.581-5.414-24.632a7.857 7.857 0 0 0-15.146-3.753Z"/><path fill="#3f3d56" d="m364.415 322.505 69.483-.253v27.373l-69.483 2.8Z"/><path fill="#9e616a" d="m348.575 510.357-9.429-1.361.761-37.018 13.917 2.009Z"/><path fill="#2f2e41" d="m349.666 519.844-30.4-4.387.055-.385a11.957 11.957 0 0 1 13.541-10.126l18.57 2.68Z"/><path fill="#3f3d56" d="m305.075 415.346-1.012-.056 3.069-55.761h62.863v1.017h-61.9ZM311.539 514.113l.169-1 42.653 7.193-.168 1z"/><path fill="#3f3d56" d="M412.217 415.399q-.571 1.833-1.075 3.743l-1.06.117-32.987 3.667-75.569-7.608 78.612-4.057 31.085 4.012Z"/><path fill="#2f2e41" d="M394.941 227.399s-10.984-3.5-18.046 10.507-18.054 29.419-18.054 29.419l6.277 1.4s1.569-9.806 5.492-11.207l-1.569 12.609s47.077 14.71 68.261-1.4l-.785-4.9s3.138.7 3.138 4.9l2.354-2.1s-2.354-4.2-9.415-9.806c-4.635-3.678-6.228-10.675-6.775-15.05a17.271 17.271 0 0 0-4.7-9.918c-4.685-4.858-13.236-10.019-26.178-4.454ZM354.933 380.212l-1.532 5.459s-30.879-7.49-34.9 11.876-9.54 79.3-9.54 79.3l15.593 3.2 14.808-65.34 59.976-13.083-3.927-33.848Z"/><path fill="#2f2e41" d="M380.899 389.198s-41.584-8.619-44.631 12.172 1.521 60.354 2.029 61.368-2.029 19.78-2.029 19.78l18.258 2.536s11.665-55.282 6.593-69.483l34.315-2.123a23.569 23.569 0 0 0 22.2-21.938c.261-4.535-.875-8.652-4.787-10.934-12.172-7.1-34.488-7.1-34.488-7.1Z"/><circle cx="18.258" cy="18.258" r="18.258" fill="#a0616a" transform="translate(382.42 241.48)"/><path fill="#e4e4e4" d="m383.435 288.713-11.665-1.456-8.575 20.247s-11.964 74.341-8.921 75.355a13.716 13.716 0 0 0 5.325.761l57.577 3s2.569-11.582 1.554-20.2 10.858-55.826 10.858-55.826l-2.282-21.563-9.715-.179-6.994-5.44-19.464-.061Z"/><path fill="#e4e4e4" d="m372.277 289.793-.507-3.043-14.2-17.244-14.583-48.26-13.985 14.766 14.874 47.188 20.287 25.866Z"/><path fill="#2f2e41" d="M376.692 261.922s6.277-8.631 11.769-10.2 6.277-9.415 6.277-9.415 14.123 15.692 22.754 16.477.785-18.831.785-18.831l-15.692-3.923-14.908 1.569-11.769 7.846Z"/><path fill="#3f3d56" d="m435.421 385.412-.491-20.812h-47.2l-1.508 55.8-1.014-.027 1.535-56.79h49.166l.016.49.507 21.3ZM434.406 356.993h-1.015v-38.715l16.372 4.753-.284.974-15.073-4.376Z"/><path fill="#3f3d56" d="m441.506 317.434 10.651 4.057-2.029 5.579-8.622-3.549ZM399.411 361.05v8.114h30.217v-7.575ZM321.813 356.993v8.114h30.218v-7.576ZM377.095 337.304h-.247v-6.754a3.909 3.909 0 0 0-3.909-3.909h-14.308a3.909 3.909 0 0 0-3.909 3.909v37.051a3.909 3.909 0 0 0 3.909 3.909h14.309a3.909 3.909 0 0 0 3.909-3.909v-25.487h.246Z"/><circle cx="2.394" cy="2.394" r="2.394" fill="#d0cde1" transform="translate(363.515 335.756)"/><path d="m423.248 314.394-1.522 28.909-22.315 4.565 20.287-8.115Z" opacity=".15"/><path fill="#fff" d="M331.97 211.671v-61.163h178.732v45.229h-162.8Z"/><path fill="#3f3d56" d="M331.97 211.671v-61.163h178.732v45.229h-162.8Zm1.554-59.609v55.857l13.734-13.735H509.15v-42.122Z"/><path fill="#2d3032" d="M372.275 161.89h99.676v8.082h-99.676zM372.275 174.012h99.676v8.082h-99.676z"/><path fill="#9e616a" d="M370.438 365.394a7.814 7.814 0 0 0 11.136-4.422l27.766-.412-8.122-11.928-25.122 2.219a7.857 7.857 0 0 0-5.659 14.542Z"/><path fill="#e4e4e4" d="m421.727 292.582 4.565-3.55s7.608-4.057 9.129 10.143 12.679 61.368 1.522 61.875-52.767 1.627-52.767 1.627l-1.555-13.987 41.134-3.869Z"/></g></g></svg>