<?xml version="1.0" encoding="UTF-8" standalone="no"?>
<svg
   width="754"
   height="506"
   viewBox="0 0 754 506"
   version="1.1"
   id="svg166"
   sodipodi:docname="access-2.svg"
   inkscape:version="1.1.2 (0a00cf5339, 2022-02-04)"
   xmlns:inkscape="http://www.inkscape.org/namespaces/inkscape"
   xmlns:sodipodi="http://sodipodi.sourceforge.net/DTD/sodipodi-0.dtd"
   xmlns="http://www.w3.org/2000/svg"
   xmlns:svg="http://www.w3.org/2000/svg">
  <defs
     id="defs170" />
  <sodipodi:namedview
     id="namedview168"
     pagecolor="#ffffff"
     bordercolor="#666666"
     borderopacity="1.0"
     inkscape:pageshadow="2"
     inkscape:pageopacity="0.0"
     inkscape:pagecheckerboard="0"
     showgrid="false"
     inkscape:zoom="1.0928014"
     inkscape:rotation="-1"
     inkscape:cx="581.52341"
     inkscape:cy="267.78461"
     inkscape:window-width="1920"
     inkscape:window-height="958"
     inkscape:window-x="0"
     inkscape:window-y="0"
     inkscape:window-maximized="1"
     inkscape:current-layer="g164" />
  <g
     transform="translate(-956.21928,-6362.0114)"
     id="g164">
    <ellipse
       style="fill:#fefaf9;fill-opacity:1;fill-rule:evenodd;stroke-width:1.08004"
       id="path194"
       cx="1515.3501"
       cy="-6630.1733"
       rx="175.02371"
       ry="223.85979"
       transform="scale(1,-1)" />
    <g
       transform="translate(1129.698,6285.717)"
       id="g162">
      <path
         d="m 436.691,569.9 -9.479,-0.95 -0.845,-37.015 13.991,1.4 z"
         transform="translate(-115.276,-66.837)"
         fill="#9e616a"
         id="path4" />
      <path
         d="m 688.4,736.72 -30.566,-3.064 0.039,-0.387 a 11.957,11.957 0 0 1 13.089,-10.7 v 0 l 18.669,1.871 z"
         transform="translate(-365.485,-224.221)"
         fill="#2f2e41"
         id="path6" />
      <path
         d="m 741.583,703.862 c -17.907,0 -32.476,-28.561 -32.476,-63.667 a 115.635,115.635 0 0 1 3.641,-29.335 c 0.337,-1.283 0.7,-2.554 1.086,-3.782 5.938,-19.128 16.311,-30.549 27.749,-30.549 17.907,0 32.476,28.56 32.476,63.666 0,35.106 -14.569,63.667 -32.476,63.667 z m 0,-125.779 c -10.561,0 -20.625,11.288 -26.265,29.458 -0.377,1.206 -0.736,2.454 -1.066,3.709 a 114.089,114.089 0 0 0 -3.591,28.941 c 0,34.253 13.871,62.117 30.921,62.117 17.05,0 30.918,-27.864 30.918,-62.108 0,-34.244 -13.871,-62.112 -30.921,-62.112 z"
         transform="translate(-376.914,-191.682)"
         fill="#3f3d56"
         id="path8" />
      <path
         d="m 432.108,592.67 -35.833,-3.661 0.143,-1 35.833,3.661 z"
         transform="translate(-108.568,-79.334)"
         fill="#3f3d56"
         id="path10" />
      <path
         d="m 757.592,685.362 c -6.8,0 -11.935,-16.219 -11.935,-37.726 0,-21.507 5.131,-37.725 11.935,-37.725 6.804,0 11.935,16.218 11.935,37.725 0,21.507 -5.127,37.726 -11.935,37.726 z m 0,-73.9 c -4.992,0 -10.381,13.829 -10.381,36.17 0,22.341 5.388,36.171 10.381,36.171 4.993,0 10.381,-13.829 10.381,-36.171 0,-22.342 -5.388,-36.171 -10.381,-36.171 z"
         transform="translate(-385.061,-199.124)"
         fill="#3f3d56"
         id="path12" />
      <ellipse
         cx="4.3109999"
         cy="8.4860001"
         rx="4.3109999"
         ry="8.4860001"
         transform="translate(369.487,440.027)"
         fill="#cacaca"
         id="ellipse14" />
      <path
         d="m 837.232,704.291 c -18.466,0 -33.49,-29.016 -33.49,-64.681 a 116.314,116.314 0 0 1 3.594,-29.218 c 0.366,-1.4 0.754,-2.75 1.152,-4.026 6.1,-19.685 16.848,-31.437 28.743,-31.437 18.466,0 33.49,29.016 33.49,64.681 0,35.665 -15.021,64.681 -33.489,64.681 z m 0,-127.808 c -11.011,0 -21.456,11.628 -27.259,30.345 -0.392,1.255 -0.772,2.585 -1.132,3.954 a 114.743,114.743 0 0 0 -3.545,28.824 c 0,34.812 14.326,63.131 31.935,63.131 17.609,0 31.936,-28.319 31.936,-63.127 0,-34.808 -14.325,-63.127 -31.935,-63.127 z"
         transform="translate(-398.009,-191.326)"
         fill="#3f3d56"
         id="path16" />
      <path
         d="m 853.531,685.067 c -6.8,0 -11.935,-16.218 -11.935,-37.725 0,-21.507 5.131,-37.725 11.935,-37.725 6.804,0 11.935,16.218 11.935,37.725 0,21.507 -5.13,37.725 -11.935,37.725 z m 0,-73.9 c -4.992,0 -10.381,13.829 -10.381,36.171 0,22.342 5.388,36.171 10.381,36.171 4.993,0 10.381,-13.829 10.381,-36.171 0,-22.342 -5.388,-36.171 -10.381,-36.171 z"
         transform="translate(-406.447,-199.058)"
         fill="#3f3d56"
         id="path18" />
      <ellipse
         cx="4.3109999"
         cy="8.4860001"
         rx="4.3109999"
         ry="8.4860001"
         transform="translate(444.042,439.798)"
         fill="#cacaca"
         id="ellipse20" />
      <path
         d="m 479.31964,511.31797 h -296.073 a 0.777,0.777 0 1 1 0,-1.554 h 296.073 a 0.777,0.777 0 1 1 0,1.554 z"
         fill="#cacaca"
         id="path22" />
      <path
         d="m 700.9,355.794 a 7.814,7.814 0 0 0 5.81,10.48 l 3.959,27.486 10.791,-9.581 -5.414,-24.632 A 7.857,7.857 0 0 0 700.9,355.794 Z"
         transform="translate(-374.969,-141.346)"
         fill="#9e616a"
         id="path24" />
      <g
         transform="translate(-12.474,95.622)"
         id="g52">
        <path
           d="M 460.694,454.574 H 272.417 A 16.851,16.851 0 0 1 255.585,437.742 V 164.7 a 16.851,16.851 0 0 1 16.832,-16.832 h 188.277 a 16.851,16.851 0 0 1 16.832,16.832 v 273.042 a 16.851,16.851 0 0 1 -16.832,16.832 z"
           transform="translate(-255.585,-147.866)"
           fill="#e4e4e4"
           id="path26" />
        <path
           d="M 464.27,446.914 H 275.331 a 5.2,5.2 0 0 1 -5.189,-5.189 V 166.874 a 5.194,5.194 0 0 1 5.189,-5.189 H 464.27 a 5.2,5.2 0 0 1 5.189,5.189 v 274.852 a 5.194,5.194 0 0 1 -5.189,5.188 z"
           transform="translate(-258.83,-150.946)"
           fill="#ffffff"
           id="path28" />
        <rect
           width="124.805"
           height="4.638"
           transform="translate(68.356,156.132)"
           fill="#e4e4e4"
           id="rect30"
           x="0"
           y="0" />
        <rect
           width="124.805"
           height="4.638"
           transform="translate(68.356,170.817)"
           fill="#e4e4e4"
           id="rect32"
           x="0"
           y="0" />
        <rect
           width="124.805"
           height="4.638"
           transform="translate(68.356,185.502)"
           fill="#e4e4e4"
           id="rect34"
           x="0"
           y="0" />
        <rect
           width="28.275999"
           height="28.275999"
           transform="translate(28.78,158.998)"
           fill="#e4e4e4"
           id="rect36"
           x="0"
           y="0" />
        <rect
           width="124.805"
           height="4.638"
           transform="translate(68.356,217.68)"
           fill="#e4e4e4"
           id="rect38"
           x="0"
           y="0" />
        <rect
           width="124.805"
           height="4.638"
           transform="translate(68.356,232.365)"
           fill="#e4e4e4"
           id="rect40"
           x="0"
           y="0" />
        <rect
           width="124.805"
           height="4.638"
           transform="translate(68.356,247.051)"
           fill="#e4e4e4"
           id="rect42"
           x="0"
           y="0" />
        <rect
           width="28.275999"
           height="28.275999"
           transform="translate(28.78,220.546)"
           fill="#e4e4e4"
           id="rect44"
           x="0"
           y="0" />
        <g
           transform="translate(-1347.606,-6321.063)"
           id="g50">
          <circle
             cx="25"
             cy="25"
             r="25"
             transform="translate(1435.528,6379.418)"
             fill="#2d3032"
             id="circle46" />
          <path
             d="M 25,2 A 23.007,23.007 0 0 0 16.048,46.193 23.006,23.006 0 0 0 33.948,3.806 22.854,22.854 0 0 0 25,2 M 25,0 A 25,25 0 1 1 0,25 25,25 0 0 1 25,0 Z"
             transform="translate(1424.528,6375.418)"
             fill="#3f3d56"
             id="path48" />
        </g>
      </g>
      <g
         transform="translate(34.766,241.48)"
         id="g80">
        <path
           d="M 460.694,454.574 H 272.417 A 16.851,16.851 0 0 1 255.585,437.742 V 164.7 a 16.851,16.851 0 0 1 16.832,-16.832 h 188.277 a 16.851,16.851 0 0 1 16.832,16.832 v 273.042 a 16.851,16.851 0 0 1 -16.832,16.832 z"
           transform="translate(-255.585,-147.866)"
           fill="#e4e4e4"
           id="path54" />
        <path
           d="M 464.27,446.914 H 275.331 a 5.2,5.2 0 0 1 -5.189,-5.189 V 166.874 a 5.194,5.194 0 0 1 5.189,-5.189 H 464.27 a 5.2,5.2 0 0 1 5.189,5.189 v 274.852 a 5.194,5.194 0 0 1 -5.189,5.188 z"
           transform="translate(-258.83,-150.946)"
           fill="#ffffff"
           id="path56" />
        <rect
           width="124.805"
           height="4.638"
           transform="translate(68.356,156.132)"
           fill="#e4e4e4"
           id="rect58"
           x="0"
           y="0" />
        <rect
           width="124.805"
           height="4.638"
           transform="translate(68.356,170.817)"
           fill="#e4e4e4"
           id="rect60"
           x="0"
           y="0" />
        <rect
           width="124.805"
           height="4.638"
           transform="translate(68.356,185.502)"
           fill="#e4e4e4"
           id="rect62"
           x="0"
           y="0" />
        <rect
           width="28.275999"
           height="28.275999"
           transform="translate(28.78,158.998)"
           fill="#e4e4e4"
           id="rect64"
           x="0"
           y="0" />
        <rect
           width="124.805"
           height="4.638"
           transform="translate(68.356,217.68)"
           fill="#e4e4e4"
           id="rect66"
           x="0"
           y="0" />
        <rect
           width="124.805"
           height="4.638"
           transform="translate(68.356,232.365)"
           fill="#e4e4e4"
           id="rect68"
           x="0"
           y="0" />
        <rect
           width="124.805"
           height="4.638"
           transform="translate(68.356,247.051)"
           fill="#e4e4e4"
           id="rect70"
           x="0"
           y="0" />
        <rect
           width="28.275999"
           height="28.275999"
           transform="translate(28.78,220.546)"
           fill="#e4e4e4"
           id="rect72"
           x="0"
           y="0" />
        <g
           transform="translate(-1347.606,-6321.063)"
           id="g78">
          <path
             d="M 27.5,0 55,55 H 0 Z"
             transform="rotate(-21,17919.786,-654.31194)"
             fill="#2d3032"
             id="path74" />
          <path
             d="M 27.5,4.472 3.236,53 H 51.764 L 27.5,4.472 M 27.5,0 55,55 H 0 Z"
             transform="rotate(-21,17911.589,-625.13659)"
             fill="#3f3d56"
             id="path76" />
        </g>
      </g>
      <g
         transform="translate(-148.444,172.232)"
         id="g106">
        <path
           d="M 460.694,454.574 H 272.417 A 16.851,16.851 0 0 1 255.585,437.742 V 164.7 a 16.851,16.851 0 0 1 16.832,-16.832 h 188.277 a 16.851,16.851 0 0 1 16.832,16.832 v 273.042 a 16.851,16.851 0 0 1 -16.832,16.832 z"
           transform="translate(-255.585,-147.866)"
           fill="#e4e4e4"
           id="path82" />
        <path
           d="M 464.27,446.914 H 275.331 a 5.2,5.2 0 0 1 -5.189,-5.189 V 166.874 a 5.194,5.194 0 0 1 5.189,-5.189 H 464.27 a 5.2,5.2 0 0 1 5.189,5.189 v 274.852 a 5.194,5.194 0 0 1 -5.189,5.188 z"
           transform="translate(-258.83,-150.946)"
           fill="#ffffff"
           id="path84" />
        <rect
           width="124.805"
           height="4.638"
           transform="translate(68.356,156.132)"
           fill="#e4e4e4"
           id="rect86"
           x="0"
           y="0" />
        <rect
           width="124.805"
           height="4.638"
           transform="translate(68.356,170.817)"
           fill="#e4e4e4"
           id="rect88"
           x="0"
           y="0" />
        <rect
           width="124.805"
           height="4.638"
           transform="translate(68.356,185.502)"
           fill="#e4e4e4"
           id="rect90"
           x="0"
           y="0" />
        <rect
           width="28.275999"
           height="28.275999"
           transform="translate(28.78,158.998)"
           fill="#e4e4e4"
           id="rect92"
           x="0"
           y="0" />
        <rect
           width="124.805"
           height="4.638"
           transform="translate(68.356,217.68)"
           fill="#e4e4e4"
           id="rect94"
           x="0"
           y="0" />
        <rect
           width="124.805"
           height="4.638"
           transform="translate(68.356,232.365)"
           fill="#e4e4e4"
           id="rect96"
           x="0"
           y="0" />
        <rect
           width="124.805"
           height="4.638"
           transform="translate(68.356,247.051)"
           fill="#e4e4e4"
           id="rect98"
           x="0"
           y="0" />
        <rect
           width="28.275999"
           height="28.275999"
           transform="translate(28.78,220.546)"
           fill="#e4e4e4"
           id="rect100"
           x="0"
           y="0" />
        <rect
           width="52.418999"
           height="50.604"
           transform="matrix(0.933,-0.361,0.361,0.933,83.586,68.834)"
           fill="#2d3032"
           id="rect102"
           x="0"
           y="0" />
        <path
           d="m 365.709,274.427 -19.775,-51.127 52.912,-20.464 19.775,51.13 z m -17.765,-50.241 18.656,48.231 50.013,-19.343 -18.653,-48.231 z"
           transform="translate(-275.725,-160.119)"
           fill="#3f3d56"
           id="path104" />
      </g>
      <path
         d="m 494.987,348.366 69.483,-0.253 v 27.373 l -69.483,2.8 z"
         transform="translate(-130.572,-25.861)"
         fill="#3f3d56"
         id="path108" />
      <path
         d="m 471.9,579.167 -9.429,-1.361 0.761,-37.018 13.917,2.009 z"
         transform="translate(-123.325,-68.81)"
         fill="#9e616a"
         id="path110" />
      <path
         d="m 722.871,745.941 -30.4,-4.387 0.055,-0.385 a 11.957,11.957 0 0 1 13.541,-10.126 v 0 l 18.57,2.68 z"
         transform="translate(-373.205,-226.097)"
         fill="#2f2e41"
         id="path112" />
      <path
         d="m 418.335,451.9 -1.012,-0.056 3.069,-55.761 h 62.863 v 1.017 h -61.9 z"
         transform="translate(-113.26,-36.554)"
         fill="#3f3d56"
         id="path114" />
      <rect
         width="1.015"
         height="43.256001"
         transform="rotate(-80.427,459.80945,72.816261)"
         fill="#3f3d56"
         id="rect116"
         x="0"
         y="0" />
      <path
         d="m 780.335,614.658 q -0.571,1.833 -1.075,3.743 l -1.06,0.117 -32.987,3.667 -75.569,-7.608 78.612,-4.057 31.085,4.012 z"
         transform="translate(-368.118,-199.259)"
         fill="#3f3d56"
         id="path118" />
      <path
         d="m 779.5,373.227 c 0,0 -10.984,-3.5 -18.046,10.507 -7.062,14.007 -18.054,29.419 -18.054,29.419 l 6.277,1.4 c 0,0 1.569,-9.806 5.492,-11.207 l -1.569,12.609 c 0,0 47.077,14.71 68.261,-1.4 l -0.785,-4.9 c 0,0 3.138,0.7 3.138,4.9 l 2.354,-2.1 c 0,0 -2.354,-4.2 -9.415,-9.806 -4.635,-3.678 -6.228,-10.675 -6.775,-15.05 a 17.271,17.271 0 0 0 -4.7,-9.918 c -4.685,-4.858 -13.236,-10.019 -26.178,-4.454 z"
         transform="translate(-384.559,-145.828)"
         fill="#2f2e41"
         id="path120" />
      <path
         d="m 725.182,567 -1.532,5.459 c 0,0 -30.879,-7.49 -34.9,11.876 -4.021,19.366 -9.54,79.3 -9.54,79.3 l 15.593,3.2 14.808,-65.34 59.976,-13.083 -3.927,-33.848 z"
         transform="translate(-370.249,-186.788)"
         fill="#2f2e41"
         id="path122" />
      <path
         d="m 758.684,577.619 c 0,0 -41.584,-8.619 -44.631,12.172 -3.047,20.791 1.521,60.354 2.029,61.368 0.508,1.014 -2.029,19.78 -2.029,19.78 l 18.258,2.536 c 0,0 11.665,-55.282 6.593,-69.483 l 34.315,-2.123 a 23.569,23.569 0 0 0 22.2,-21.938 c 0.261,-4.535 -0.875,-8.652 -4.787,-10.934 -12.172,-7.1 -34.488,-7.1 -34.488,-7.1 z"
         transform="translate(-377.785,-188.421)"
         fill="#2f2e41"
         id="path124" />
      <circle
         cx="18.257999"
         cy="18.257999"
         r="18.257999"
         transform="translate(382.42,241.48)"
         fill="#a0616a"
         id="circle126" />
      <path
         d="m 766.54,451.282 -11.665,-1.456 -8.575,20.247 c 0,0 -11.964,74.341 -8.921,75.355 a 13.716,13.716 0 0 0 5.325,0.761 l 57.577,3 c 0,0 2.569,-11.582 1.554,-20.2 -1.015,-8.618 10.858,-55.826 10.858,-55.826 l -2.282,-21.563 -9.715,-0.179 -6.994,-5.44 -19.464,-0.061 z"
         transform="translate(-383.105,-162.569)"
         fill="#e4e4e4"
         id="path128" />
      <path
         d="m 492.69,286.681 -0.507,-3.043 -14.2,-17.244 -14.583,-48.26 -13.985,14.766 14.874,47.188 20.287,25.866 z"
         transform="translate(-120.413,3.112)"
         fill="#e4e4e4"
         id="path130" />
      <path
         d="m 766.146,410.917 c 0,0 6.277,-8.631 11.769,-10.2 5.492,-1.569 6.277,-9.415 6.277,-9.415 0,0 14.123,15.692 22.754,16.477 8.631,0.785 0.785,-18.831 0.785,-18.831 l -15.692,-3.923 -14.908,1.569 -11.769,7.846 z"
         transform="translate(-389.454,-148.995)"
         fill="#2f2e41"
         id="path132" />
      <path
         d="m 571.957,423.13 -0.491,-20.812 h -47.2 l -1.508,55.8 -1.014,-0.027 1.535,-56.79 h 49.166 l 0.016,0.49 0.507,21.3 z"
         transform="translate(-136.536,-37.718)"
         fill="#3f3d56"
         id="path134" />
      <path
         d="m 584.763,381.715 h -1.015 V 343 l 16.372,4.753 -0.284,0.974 -15.073,-4.376 z"
         transform="translate(-150.357,-24.722)"
         fill="#3f3d56"
         id="path136" />
      <path
         d="m 594.191,341.913 10.651,4.057 -2.029,5.579 -8.622,-3.549 z"
         transform="translate(-152.685,-24.479)"
         fill="#3f3d56"
         id="path138" />
      <path
         d="m 540.021,398.041 v 8.114 h 30.217 v -7.575 z"
         transform="translate(-140.61,-36.991)"
         fill="#3f3d56"
         id="path140" />
      <path
         d="m 440.164,392.82 v 8.114 h 30.218 v -7.576 z"
         transform="translate(-118.351,-35.827)"
         fill="#3f3d56"
         id="path142" />
      <path
         d="m 760.472,512.29 h -0.247 v -6.754 a 3.909,3.909 0 0 0 -3.909,-3.909 h -14.308 a 3.909,3.909 0 0 0 -3.909,3.909 v 0 37.051 a 3.909,3.909 0 0 0 3.909,3.909 h 14.309 a 3.909,3.909 0 0 0 3.909,-3.909 V 517.1 h 0.246 z"
         transform="translate(-383.377,-174.986)"
         fill="#3f3d56"
         id="path144" />
      <circle
         cx="2.3940001"
         cy="2.3940001"
         r="2.3940001"
         transform="translate(363.515,335.756)"
         fill="#d0cde1"
         id="circle146" />
      <path
         d="m 563.858,338 -1.522,28.909 -22.315,4.565 20.287,-8.115 z"
         transform="translate(-140.61,-23.606)"
         opacity="0.15"
         id="path148" />
      <path
         d="M 708.82,336.134 V 274.971 H 887.552 V 320.2 h -162.8 z"
         transform="translate(-376.85,-124.463)"
         fill="#ffffff"
         id="path150" />
      <path
         d="M 708.82,336.134 V 274.971 H 887.552 V 320.2 h -162.8 z m 1.554,-59.609 v 55.857 l 13.734,-13.735 H 886 v -42.122 z"
         transform="translate(-376.85,-124.463)"
         fill="#3f3d56"
         id="path152" />
      <rect
         width="99.676003"
         height="8.0819998"
         transform="translate(372.275,161.89)"
         fill="#2d3032"
         id="rect154"
         x="0"
         y="0" />
      <rect
         width="99.676003"
         height="8.0819998"
         transform="translate(372.275,174.012)"
         fill="#2d3032"
         id="rect156"
         x="0"
         y="0" />
      <path
         d="m 757.128,546.689 a 7.814,7.814 0 0 0 11.136,-4.422 l 27.766,-0.412 -8.122,-11.928 -25.122,2.219 a 7.857,7.857 0 0 0 -5.659,14.542 z"
         transform="translate(-386.69,-181.295)"
         fill="#9e616a"
         id="path158" />
      <path
         d="m 813.106,456.626 4.565,-3.55 c 0,0 7.608,-4.057 9.129,10.143 1.521,14.2 12.679,61.368 1.522,61.875 -11.157,0.507 -52.767,1.627 -52.767,1.627 L 774,512.734 l 41.134,-3.869 z"
         transform="translate(-391.379,-164.044)"
         fill="#e4e4e4"
         id="path160" />
    </g>
    <circle
       id="path667"
       style="fill:#000000;stroke:#000000"
       cx="1713.7332"
       cy="6698.9136"
       r="0.46067786" />
    <circle
       id="path669"
       style="fill:#000000;stroke:#000000"
       cx="1713.7332"
       cy="-6698.9136"
       r="0.46067786"
       transform="scale(1,-1)" />
  </g>
</svg>
