<svg xmlns="http://www.w3.org/2000/svg" xmlns:xlink="http://www.w3.org/1999/xlink" width="415.276" height="359.25" viewBox="0 0 415.276 359.25"><defs><filter id="a" x="51.676" y="247.336" width="311.899" height="111.914" filterUnits="userSpaceOnUse"><feOffset dy="19" input="SourceAlpha"/><feGaussianBlur stdDeviation="16" result="b"/><feFlood flood-opacity="0.851"/><feComposite operator="in" in2="b"/><feComposite in="SourceGraphic"/></filter><linearGradient id="c" x1="0.5" y1="0.846" x2="0.5" y2="0.018" gradientUnits="objectBoundingBox"><stop offset="0" stop-color="#919092"/><stop offset="0.42" stop-color="#8f8e90"/><stop offset="0.57" stop-color="#888789"/><stop offset="0.67" stop-color="#7c7b7d"/><stop offset="0.76" stop-color="#6b6b6c"/><stop offset="0.83" stop-color="#565556"/><stop offset="0.9" stop-color="#3b3a3b"/><stop offset="0.96" stop-color="#1b1b1b"/><stop offset="1"/></linearGradient></defs><g transform="translate(0.25 0.25)"><path d="M40.748,113.61c-2.251,1.528-1.821,7.282,1.062,7.282H254.055c2.934,0,3.086-5.525,1.062-7.282" transform="translate(59.494 175.029)" fill="#cccaca"/><g transform="matrix(1, 0, 0, 1, -0.25, -0.25)" filter="url(#a)"><path d="M236.758,108.68H58.281a1.779,1.779,0,0,0-1.062.356l-16.9,12.222a1.843,1.843,0,0,0,1.062,3.336H253.629a1.843,1.843,0,0,0,1.062-3.336l-16.9-12.222a1.779,1.779,0,0,0-1.062-.356Z" transform="translate(60.12 167.66)" fill="#777678"/></g><path d="M132.286,115.688c0,2.7-13.71-1.91-30.935-1.91s-31.441,4.609-31.441,1.91S83.872,106.7,101.1,106.7,132.286,113.015,132.286,115.688Z" transform="translate(106.29 164.345)" opacity="0.49"/><path d="M127.637,138.159c-19.881-2.852-30.075-2.877-49.956-.051a3.857,3.857,0,0,1-4.6-3.463c-1.619-16.627-2.4-25.029-4.047-42.165h66.828c-1.442,17.111-2.175,25.539-3.592,42.191a3.875,3.875,0,0,1-4.629,3.514Z" transform="translate(104.944 142.358)" fill="url(#c)"/><rect width="414.776" height="235.551" rx="2.84" transform="translate(0 0)" fill="#444"/><path d="M2.84-.25h409.1a3.093,3.093,0,0,1,3.09,3.09V232.711a3.093,3.093,0,0,1-3.09,3.09H2.84a3.093,3.093,0,0,1-3.09-3.09V2.84A3.093,3.093,0,0,1,2.84-.25ZM411.936,235.3a2.593,2.593,0,0,0,2.59-2.59V2.84a2.593,2.593,0,0,0-2.59-2.59H2.84A2.593,2.593,0,0,0,.25,2.84V232.711a2.593,2.593,0,0,0,2.59,2.59Z" transform="translate(0 0)" fill="#191919"/><path d="M3.412,0H224.271a3.4,3.4,0,0,1,3.412,3.389V403.267a3.4,3.4,0,0,1-3.412,3.389H3.412A3.4,3.4,0,0,1,0,403.267V3.389A3.4,3.4,0,0,1,3.412,0Z" transform="translate(410.704 3.921) rotate(90)" fill="#d1d1d1"/><path d="M3.412-.25H224.271a3.655,3.655,0,0,1,3.662,3.639V403.267a3.655,3.655,0,0,1-3.662,3.639H3.412A3.655,3.655,0,0,1-.25,403.267V3.389A3.655,3.655,0,0,1,3.412-.25ZM224.271,406.407a3.154,3.154,0,0,0,3.162-3.139V3.389A3.154,3.154,0,0,0,224.271.25H3.412A3.154,3.154,0,0,0,.25,3.389V403.267a3.154,3.154,0,0,0,3.162,3.139Z" transform="translate(410.704 3.921) rotate(90)" fill="#191919"/></g></svg>