<svg xmlns="http://www.w3.org/2000/svg" xmlns:xlink="http://www.w3.org/1999/xlink" width="664.68" height="580.831" viewBox="0 0 664.68 580.831"><defs><linearGradient id="a" x1="0.064" y1="-4.047" x2="1.987" y2="2.155" gradientUnits="objectBoundingBox"><stop offset="0.01"/><stop offset="0.08" stop-opacity="0.69"/><stop offset="0.21" stop-opacity="0.322"/><stop offset="1" stop-opacity="0"/></linearGradient><linearGradient id="b" x1="0.344" y1="2.446" x2="0.639" y2="-2.75" xlink:href="#a"/><linearGradient id="c" x1="-41.583" y1="0" x2="-44.146" y2="-2.522" xlink:href="#a"/><linearGradient id="d" x1="-0.169" y1="0.336" x2="2.022" y2="-1.569" gradientUnits="objectBoundingBox"><stop offset="0.01"/><stop offset="0.13" stop-opacity="0.69"/><stop offset="0.25" stop-opacity="0.322"/><stop offset="1" stop-opacity="0"/></linearGradient><linearGradient id="e" x1="0.362" y1="0.472" x2="0.713" y2="-1.492" xlink:href="#d"/></defs><g transform="translate(0.003 0.001)"><path d="M293.046,55.262C211.466,85.224,142.9,148.61,118.118,223.683c-7.12,21.6-10.937,43.866-19.184,65.264-9.177,23.732-23.732,45.9-33.8,69.417C34.62,429.068,49.927,509.838,98.3,566.894c36.449,42.976,90.342,60.142,151.809,45.487,30.279-7.2,56.345-23.337,85.694-31.782,40.484-11.649,86.228-10.541,127.582-11.609,46.2-1.206,143.008-17.8,189.365-21.755,71.079-6.091,67.677-153.589,52.093-190.769s-39.87-70.624-57.353-107.053c-20.212-42.086-31.544-88.344-59.806-126.3-43.272-58.125-124.3-89.768-205.167-86.149a297.921,297.921,0,0,0-89.471,18.294Z" transform="translate(-49.39 -36.69)" fill="#8a8a8a" opacity="0.18"/><ellipse cx="294.797" cy="29.784" rx="294.797" ry="29.784" transform="translate(35.008 462.943)" fill="#2d3032"/><path d="M272.632,238.255h-111.7l-20.311-86.5h111.7Z" transform="translate(137.488 148.368)" fill="#8a8a8a"/><path d="M266.026,238.255h-105.1l-20.311-86.5h105.1Z" transform="translate(137.488 148.368)" fill="#2d3032"/><rect width="398.349" height="106.124" transform="translate(159.742 383.478)" fill="#8a8a8a"/><rect width="398.349" height="106.124" transform="translate(159.742 383.478)" fill="url(#a)"/><rect width="394.651" height="251.327" rx="17.57" transform="translate(132.489 76.024)" fill="#8a8a8a"/><path d="M511.041,177v15.09a34.788,34.788,0,0,1-34.748,34.748H151.118A34.748,34.748,0,0,1,116.37,192.09h0V177Z" transform="translate(16.1 100.493)" fill="url(#b)"/><path d="M338.766,161.28V259.1H254.1a8.84,8.84,0,0,1-8.84-8.84h0V170.12a8.84,8.84,0,0,1,8.84-8.84Z" transform="translate(142.116 85.124)" fill="#020202" opacity="0.1"/><path d="M183.774,203.33h63.109A4.114,4.114,0,0,1,251,207.444h0a4.114,4.114,0,0,1-4.114,4.114H183.774a4.114,4.114,0,0,1-4.114-4.114h0A4.114,4.114,0,0,1,183.774,203.33Z" transform="translate(77.979 126.236)" fill="#473f47"/><path d="M138.439,155.569l-1.879,12.4,5.2.593,5.676-13.112Z" transform="translate(133.518 151.986)" fill="#fcbdba"/><path d="M193.7,198.5a3.185,3.185,0,0,1-.653-.712,2.136,2.136,0,0,1-1.8.218l-2.611-.435a4.41,4.41,0,0,1-1.325-.376h-.178l-.554,1.068a16.059,16.059,0,0,0-1.642,6.111,55.376,55.376,0,0,0,15.09,1.444,2.314,2.314,0,0,0,2.156-.89,1.74,1.74,0,0,0,0-1.4,4.193,4.193,0,0,0-2.413-2.156c-1.345-.554-2.709-1.028-3.955-1.661A9,9,0,0,1,193.7,198.5Z" transform="translate(83.141 120.233)" fill="#8a8a8a"/><path d="M155.952,157.567l-1.622,12.44,5.221.475,5.4-13.211Z" transform="translate(150.892 153.765)" fill="#fcbdba"/><path d="M381.011,115.886v38.387A19.026,19.026,0,0,1,361.985,173.3h-111.4L205.43,225.233V96.86H361.985A19.026,19.026,0,0,1,381.011,115.886Z" transform="translate(103.174 22.14)" fill="#020202" opacity="0.1"/><rect width="164.031" height="76.438" rx="9.62" transform="translate(315.566 102.664)" fill="#fff"/><path d="M232.559,134.76a4.074,4.074,0,0,1-1.879-.277,4.47,4.47,0,0,1-1.839-2.848c-3.1-9.592-9.532-18.927-19.184-21.755-2.512,10.225-2.334,20.9-2.136,31.446,0,2.808.316,6.032,2.571,7.693a8.563,8.563,0,0,0,4.9,1.266,65.917,65.917,0,0,0,31.643-6.744c2.947-1.463,9.018-7.179,3.362-9.038-1.7-.574-5.458.3-7.278.3Z" transform="translate(105.118 34.87)" fill="#020202" opacity="0.1"/><path d="M137.28,113.434l7.753,43.094-7.753,46.357,12.558.969,18.294-52.211-6.19-41.374Z" transform="translate(134.222 107.813)" fill="#473f47"/><path d="M172.36,110.27,186.3,167.643,175.03,207.138l-11.174-.574,1.562-33.7L145.74,118.379Z" transform="translate(142.494 107.813)" fill="#473f47"/><path d="M229.593,124.109a23.1,23.1,0,0,1,5.34-2.274,1.978,1.978,0,0,1,1.839.119,1.741,1.741,0,0,1,.534,1.028,6.388,6.388,0,0,1-.3,3.8,38.423,38.423,0,0,0,6.605,2.887,3.52,3.52,0,0,1,2.353,1.543,2.235,2.235,0,0,1-.672,2.413,4.984,4.984,0,0,1-2.413,1.088c-5.735,1.345-15.07,0-16.435-6.863-.3-1.5.257-1.76,1.444-2.611C228.526,124.821,229.1,124.465,229.593,124.109Z" transform="translate(123.647 46.39)" fill="#fcbdba"/><path d="M213.094,99.792a25.117,25.117,0,0,1,2.472,8.346,8.385,8.385,0,0,1-3.342,7.614,8.625,8.625,0,0,0-1.978,1.266c-2.1,2.156.3,6.052-.91,8.84a4.133,4.133,0,0,1-5.2,1.978,7.021,7.021,0,0,1-3.955-4.568,21.874,21.874,0,0,1-.712-6.21l-.217-12.46a16.356,16.356,0,0,1,1.266-8.128,8.188,8.188,0,0,1,7.5-4.074C211.156,92.791,212.046,97.339,213.094,99.792Z" transform="translate(97.053 17.764)" fill="#fcbdba"/><path d="M268.784,146.565S244.894,167.9,243.173,167.9,230.832,154.5,230.832,154.5l-.811,30.457a69.695,69.695,0,0,1-9.2,4.549,39.554,39.554,0,0,1-17.424,3.56c-11.609-1.048-16.731-4.944-16.731-4.944l7.159-71.534s13.528-9.73,18.155-8.247a28.361,28.361,0,0,0,10.007,0c6.685-.89,13.508,8.247,13.508,8.247l8.88,29.171,20.825-7.4A7.911,7.911,0,0,1,268.784,146.565Z" transform="translate(84.832 33.21)" fill="#fff"/><path d="M223.586,92.61a7.179,7.179,0,0,0-1.048-4.489c-1.6-2.235-4.885-2.433-7.575-1.839a27,27,0,0,0-5.34,2.1,7.713,7.713,0,0,1-3.955.514,14.022,14.022,0,0,0-9.631,3.6c-3.639,3.441-4.489,8.524-4.865,13.29-.4,5.4,1.978,9.889,5.557,14,3.026,3.58,8.544,7.1,12.479,2.571a11.253,11.253,0,0,0,2.235-8.069,4.529,4.529,0,0,1-3.955-3.5,3.224,3.224,0,0,1,1.068-3.2,2.492,2.492,0,0,1,3.421.85,2.135,2.135,0,0,1,.257.574,14.8,14.8,0,0,0,1.246-3.619c.455-1.206,1.978-2.255,2.967-1.444.574.455.91,1.464,1.642,1.305a1.384,1.384,0,0,0,.613-.455,19.166,19.166,0,0,0,3.6-4.746,17.047,17.047,0,0,0,1.365-6.566,2.611,2.611,0,0,1-.079-.87Z" transform="translate(89.191 11.517)" fill="#0f1010"/><path d="M201.766,88.043a12.44,12.44,0,0,0-12.519,6.645c-2.749,5.636-.771,12.3-.316,18.571a9.77,9.77,0,0,1-5.7,10.778c-4.43,2.67-9.533,4.47-13.073,8.247a18.353,18.353,0,0,0-4.667,11.233,8.781,8.781,0,0,0,.87,5.063,9.769,9.769,0,0,0,2.966,2.868,30.378,30.378,0,0,0,22.941,5.32,21.32,21.32,0,0,0,16.672-15.624c1.74-8.346-2.492-16.633-4.094-25.018a7.674,7.674,0,0,1,.653-5.933c1.325-1.78,3.777-2.2,5.7-3.323C221.583,100.76,209.38,89.071,201.766,88.043Z" transform="translate(64.06 13.434)" fill="#0f1010"/><rect width="8.049" height="8.049" rx="1.99" transform="translate(276.506 109.547)" fill="#8a8a8a"/><path d="M211.383,200.3a3.679,3.679,0,0,1-.653-.712,2.156,2.156,0,0,1-1.8.277l-2.611-.4a4.669,4.669,0,0,1-1.345-.356H204.8l-.534,1.088a16.532,16.532,0,0,0-1.5,6.151,57.018,57.018,0,0,0,15.11,1.147,2.274,2.274,0,0,0,2.136-.949,1.741,1.741,0,0,0,0-1.4,4.094,4.094,0,0,0-2.452-2.1c-1.365-.534-2.749-.969-4.074-1.6A8.663,8.663,0,0,1,211.383,200.3Z" transform="translate(100.564 122.11)" fill="#8a8a8a"/><path d="M259.694,207.49h-8.01L245.3,224.775H212.288l6.388-17.285h-8.01L154.48,359.3h8.01l5.557-15.011H201L195.438,359.3h8.01l5.557-15.011h.237v-.633l49.977-135V359.3h8.01V207.49Zm-16.573,23.179-8.326,22.506H201.767l8.326-22.506Zm-51.875,51.005,8.326-22.486h33.067l-8.366,22.486Zm30.852,5.933-8.326,22.487H180.744l8.385-22.605Zm-51.875,50.906,8.326-22.506h33.028l-8.326,22.506Z" transform="translate(53.36 130.303)" fill="#8a8a8a"/><rect width="138.103" height="97.798" rx="4.47" transform="translate(387.376 235.882)" fill="#fff"/><path d="M302.409,196.872H206.55V126.11h1.721v69.022h94.139Z" transform="translate(201.948 123.3)" fill="#8a8a8a"/><path d="M207.57,163.353l-.91-1.483,24.168-14.853,35.539,5.478,31.406-18.116.87,1.5L266.7,154.315l-.3-.059-35.2-5.419Z" transform="translate(202.055 131.385)" fill="#8a8a8a"/><circle cx="3.797" cy="3.797" r="3.797" transform="translate(430.352 275.674)" fill="#8a8a8a"/><circle cx="3.797" cy="3.797" r="3.797" transform="translate(464.783 280.994)" fill="#8a8a8a"/><circle cx="3.797" cy="3.797" r="3.797" transform="translate(495.814 263.293)" fill="#8a8a8a"/><circle cx="3.797" cy="3.797" r="3.797" transform="translate(430.352 275.674)" fill="#020202" opacity="0.28"/><circle cx="3.797" cy="3.797" r="3.797" transform="translate(464.783 280.994)" fill="#020202" opacity="0.28"/><circle cx="3.797" cy="3.797" r="3.797" transform="translate(495.814 263.293)" fill="#020202" opacity="0.28"/><path d="M327.225,217.81s-27.47,51.915-32.612,68.231-4.667,64.394-4.667,64.394H304.9s0-48.513,6.348-56.681,41.73-49.858,41.73-49.858Z" transform="translate(185.794 140.393)" fill="#473f47"/><path d="M307.25,223.149s16.652,67.242,25.275,82.292,32.2,42.165,32.2,42.165l12.7-6.8s-32.652-42.837-30.832-55.376,6.447-60.518,6.447-60.518S330.033,212.43,307.25,223.149Z" transform="translate(202.724 141.363)" fill="#473f47"/><path d="M363.713,172.889s13.27,6.784,8.326,23.1-20.588,53.062-18.887,63.939-.119,11.233-.119,11.233-34.906,12.578-45.784-1.7c0,0,20.766-73.472,25.176-82.648S349.434,167.47,363.713,172.889Z" transform="translate(202.724 94.993)" fill="#8a8a8a"/><path d="M355.345,196.894a48.433,48.433,0,0,1-5.379,11.392,33.094,33.094,0,0,1-4.114,5.933c-4.489,4.826-11.214,6.665-17.226,9.315a10.2,10.2,0,0,0-2.947,1.78,11.57,11.57,0,0,0-2.1,3.441c-3.263,7.14-7.654,14.378-14.813,17.6,2.947-11.253,5.933-22.506,9.3-33.621a14.5,14.5,0,0,1,7.06-9.889c7.515-5.518,14.971-11.134,22.566-16.553,2.591-1.859,5.3-3.955,7.5-.593C357.105,188.647,356.235,193.809,355.345,196.894Z" transform="translate(204.21 107.258)" fill="url(#c)"/><path d="M324.171,165.688c-.752.771-1.721,1.562-1.721,2.63a4.687,4.687,0,0,0,.969,2.2c2.294,3.955.2,9.493,2.967,13.073a7.91,7.91,0,0,0,3.955,2.531,13.409,13.409,0,0,1,4.489,1.444,5.636,5.636,0,0,1,1.681,3.955c.158,1.78-.158,3.56,0,5.34a3.5,3.5,0,0,0,1.463,3.085,3.54,3.54,0,0,0,1.562.3,37.756,37.756,0,0,0,9.2-.712,2.67,2.67,0,0,0,1.206-.475,2.829,2.829,0,0,0,.653-1.444c1.305-5.933,2.65-11.866,3.955-17.8a37.222,37.222,0,0,1,2.868-6.151,20.627,20.627,0,0,0,1.029-9.236,17.979,17.979,0,0,0-2.334-6.606,13.211,13.211,0,0,0-4.193-4.786,16.017,16.017,0,0,0-4.173-1.721c-5.063-1.562-12.974-3.659-17.364.692C326.781,155.641,327.968,161.91,324.171,165.688Z" transform="translate(217.585 73.517)" fill="#fcbdba"/><path d="M324.07,175.385c1.088-.672,4.608.732,5.933.712,4.173-.119,7.575,1.978,10.917-.593,2.729-1.978,3.817-5.518,4.766-8.761a2.4,2.4,0,0,0,0-.534,1.582,1.582,0,0,0-.257-.633c-1.543-2.255-4.687-2.492-7.337-3.145a26.283,26.283,0,0,1-12.262-7.693,5,5,0,0,1-1.661-2.907,4.094,4.094,0,0,1,1.978-3.2,15.129,15.129,0,0,1,11.372-1.978,109.585,109.585,0,0,1,11.372,3.283c3.6,1.009,7.318,1.622,10.9,2.769a7.91,7.91,0,0,1,2.156.989,6.487,6.487,0,0,1,1.978,2.63,9.512,9.512,0,0,1,0,8.346,4.194,4.194,0,0,0-.574,1.246,3.757,3.757,0,0,0,.178,1.325c.89,3.955-1.068,7.911-2.967,11.332l-4.944,9.216a8.209,8.209,0,0,1-2.175,2.887,2.789,2.789,0,0,1-3.362.119c-1.028-.89-1.088-2.67-2.294-3.263a2.947,2.947,0,0,0-2.472.3c-2.175,1.048-3.955,2.709-6.091,3.955a16.2,16.2,0,0,1-12.123,1.483,8.524,8.524,0,0,1-3.283-1.622c-2.116-1.819-1.978-4.252-1.543-6.724S321.835,176.769,324.07,175.385Z" transform="translate(217.151 70.465)" fill="#0f1010"/><path d="M370.3,193.14s-14.279,36.726-70.96,43.747l-1.978-7.911s37.853-14.971,46.021-30.16a99.172,99.172,0,0,0,6.072-13.27c2.571-7.12,10.818-10.956,17.424-7.258C370.792,180.483,373.225,184.834,370.3,193.14Z" transform="translate(193.055 100.352)" fill="#8a8a8a"/><path d="M298.686,202.4a4.213,4.213,0,0,0,1.187,2.67,33.245,33.245,0,0,1-11.352,2.1,2.71,2.71,0,0,0-1.978.554c-.752.811-.158,2.136.534,2.986a17.957,17.957,0,0,0,11.431,5.933,12.321,12.321,0,0,0,8.405-1.365,16.848,16.848,0,0,0,4.371-4.865,3.046,3.046,0,0,0,.514-.969,2.907,2.907,0,0,0-.475-1.978c-.455-.85-1.088-2.531-1.978-2.947s-2.116,0-3.026-.158C303.709,203.762,301.375,202.1,298.686,202.4Z" transform="translate(182.137 125.29)" fill="#fcbdba"/><path d="M362.477,287.989a2.215,2.215,0,0,1,0,3.6,70.406,70.406,0,0,1-21.656,15.822c-2.255,1.048-5.36,1.8-6.9-.158s.1-4.925,1.4-7.179a24.028,24.028,0,0,0,3.164-9.889,9.177,9.177,0,0,1,.692-3.481c1.6-2.947,9.473-5.933,12.736-5.933C356.247,280.731,359.827,284.983,362.477,287.989Z" transform="translate(228.187 201.95)" fill="#8a8a8a"/><path d="M316.989,296.937a2.175,2.175,0,0,1-1.76,3.125,70.23,70.23,0,0,1-26.64,2.966c-2.492-.217-5.557-1.107-5.933-3.58s2.531-4.232,4.786-5.518a24.544,24.544,0,0,0,7.634-6.981,8.662,8.662,0,0,1,2.334-2.67c2.848-1.78,11.194-.534,14.042,1.108C315.209,287.543,316.2,293,316.989,296.937Z" transform="translate(178.646 204.531)" fill="#8a8a8a"/><path d="M112.436,290.311a17.384,17.384,0,0,0,1.365,7.357,12.321,12.321,0,0,0,5.36,4.984,21.082,21.082,0,0,0,15.644,1.543,3.1,3.1,0,0,0,1.8-1.088,2.552,2.552,0,0,0,.316-1.562,11.609,11.609,0,0,0-4.094-7.357,25.454,25.454,0,0,1-5.636-6.447c-2.393-4.865-.613-17.8-9.73-15.663C109.846,273.8,112.219,284.932,112.436,290.311Z" transform="translate(11.747 193.219)" fill="#fbb9ad"/><path d="M111.788,285.766s-1.305,3.2.3,5.063,18,12.044,29.033,3.837-14.991-9.256-14.991-9.256Z" transform="translate(11.13 206.486)" fill="#8a8a8a"/><path d="M112.329,282.407a2.314,2.314,0,0,1,2.947.751,9.612,9.612,0,0,0,8.781,3.145c3.6-.85,5.023-5,6.8-5.023s11.312,8.109,11.866,11.589-4.331,6.052-9.711,6.388-17.6-3.4-19.915-6.23a11.49,11.49,0,0,1-.771-10.62Z" transform="translate(11.221 202.448)" fill="#fff"/><path d="M96.626,292.811a16.751,16.751,0,0,0,1.365,7.357,12.262,12.262,0,0,0,5.36,4.964,21.023,21.023,0,0,0,15.624,1.543,3.065,3.065,0,0,0,1.819-1.088,2.63,2.63,0,0,0,.316-1.543,11.649,11.649,0,0,0-4.094-7.357,26.52,26.52,0,0,1-5.636-6.428c-2.393-4.845-.613-17.8-9.73-15.663C94.036,276.337,96.409,287.491,96.626,292.811Z" transform="translate(-3.711 195.683)" fill="#fbb9ad"/><path d="M95.978,288.3s-1.305,3.184.3,5.043,17.958,12.044,28.993,3.857-14.951-9.256-14.951-9.256Z" transform="translate(-4.328 208.96)" fill="#8a8a8a"/><path d="M96.523,284.918a2.334,2.334,0,0,1,2.947.771,9.513,9.513,0,0,0,8.781,3.145c3.58-.87,5.023-5,6.784-5.023s11.312,8.089,11.866,11.57-4.331,6.052-9.711,6.388-17.582-3.382-19.9-6.21a11.471,11.471,0,0,1-.771-10.64Z" transform="translate(-4.24 204.922)" fill="#fff"/><path d="M93.149,216.09s-1.681,93.684,5.241,124.932l17.621,2.175,4.806-128.037Z" transform="translate(-6.779 137.802)" fill="#473f47"/><path d="M129.911,210.51s14.022,50.431,3.955,131.577l-17.621,2.176L105.15,214.9Z" transform="translate(5.13 133.256)" fill="#473f47"/><path d="M145.02,209.947c-.2,3.4-1.286,6.329-4.232,7.318a5.529,5.529,0,0,1-.771.2c-5.4,1.088-12.5-3.026-17.424-6.625a68.956,68.956,0,0,1-5.933-4.786V169.8l26.383,26.936A41.532,41.532,0,0,1,145.02,209.947Z" transform="translate(16.383 93.454)" fill="#fff"/><path d="M150.7,214.942c0,1.7.218,3.4.218,5.1,0,9.335-2.156,18.986.613,28.163a10.284,10.284,0,0,1,.791,6.25,7.635,7.635,0,0,1-3.955,3.758c-8.247,4.509-17.8,5.933-27.055,7.2-7,.989-16.929,3.065-23.4-.712-2.749-1.6-3.679-4.588-4.568-7.575a142.911,142.911,0,0,1-4.351-29.488c0-1.305-.2-2.591-.257-3.955q-.811-13.409-.554-26.857c.119-6.507.633-13.528,4.885-18.432,5.636-6.526,16.553-10.858,24.86-12.38a27.69,27.69,0,0,1,8.168-.455,34.254,34.254,0,0,1,11.036,3.758c4.114,1.978,7.772,3.758,9.889,7.812a55.693,55.693,0,0,1,4.608,14.833,52.765,52.765,0,0,1,.316,14.556c-.237,2.373-.85,4.727-1.088,7.08a7.574,7.574,0,0,0-.158,1.345Z" transform="translate(-11.522 89.191)" fill="#fff"/><path d="M113.567,261.26c-2.709.791-8.959-1.7-11.036-1.978-1.246-.218-2.373-.85-3.619-1.127-6.19-1.543-6.922-18.946-7.515-23.634-1.6-12.361-4.074-25.176-4.252-37.576a41.393,41.393,0,0,1,1.641-14.18,16.356,16.356,0,0,1,9.275-10.324c7.911-2.848,10.264,22.17,11.352,27.352s1.226,14.358,4.648,18.511,10.264,4.924,14.734,2.828a13.844,13.844,0,0,0,7.614-13.092,44.491,44.491,0,0,1-.455-5.617,4.964,4.964,0,0,1,2.868-4.489,4.489,4.489,0,0,1,4.489,1.424,11.412,11.412,0,0,1,2.215,4.43,50.334,50.334,0,0,1,1.978,10.4c.791,8.366-.475,16.949,1.523,25.117a22.407,22.407,0,0,1,1.266,7.911,9.889,9.889,0,0,1-9.651,7.911,14.141,14.141,0,0,1-11.372-6.507,5.794,5.794,0,0,0-1.562-1.76,4.39,4.39,0,0,0-2.294-.455c-3.777,0-9.2.87-10.423,5.1-.87,3.026,1.226,5.933-.415,9.058a1.74,1.74,0,0,1-1.009.692Z" transform="translate(-12.542 95.816)" fill="#020202" opacity="0.1"/><path d="M124.649,170.54a5.933,5.933,0,0,1-3.145,2.868,14.437,14.437,0,0,0-4.687,1.978h0a8.227,8.227,0,0,0-2.116,4.549l-1.127,5.261-.593,2.65a4.152,4.152,0,0,1-.475,1.365,3.342,3.342,0,0,1-2.67,1.107,10.62,10.62,0,0,1-5.933-1.523,1.523,1.523,0,0,1-.732-.672,1.978,1.978,0,0,1-.119-1.167l.653-7.575a9.612,9.612,0,0,0-.93-6.072,48.749,48.749,0,0,1-4.806-12.618,8.8,8.8,0,0,1,7.4-11.174,20.054,20.054,0,0,1,11.372-.119c1.384.475,1.8,1.424,2.452,2.67.969,1.978,1.978,3.955,2.709,5.933s1.721,4.588,2.452,6.962A8.089,8.089,0,0,1,124.649,170.54Z" transform="translate(-2.226 72.759)" fill="#fbb9ad"/><path d="M141.666,179.309c.237-.4.692-.791,1.068-.554a1.206,1.206,0,0,1,.316.554,2.472,2.472,0,0,0,2.156,1.246c.85,0,1.74-.138,2.611-.138a7.357,7.357,0,0,1,5.775,3.105,11.728,11.728,0,0,1,2.1,6.388,8.069,8.069,0,0,1-1.582,5.775c-1.978,2.314-5.557,2.373-8.623,2.274h-2.808a2.61,2.61,0,0,1-2.907-2.116c-1.147-2.789-3.224-5.577-1.8-8.385S139.966,181.287,141.666,179.309Z" transform="translate(36.745 102.139)" fill="#fbb9ad"/><path d="M111.729,216.462V195.5a4.074,4.074,0,0,1,2.591-3.8l51.915-20.667c2.69-1.068,8.168,2.136,8.168,5.023l-2.551,48.513a4.074,4.074,0,0,1-2.531,3.777l-49.443,22.783c-2.709,1.107-8.227-2.1-8.227-5Z" transform="translate(11.485 94.455)" fill="#8a8a8a"/><path d="M111.719,216.462V195.5a3.955,3.955,0,0,1,2.571-3.8l51.935-20.667c2.69-1.068,8.168,2.136,8.168,5.023l-2.551,48.513a4.094,4.094,0,0,1-2.531,3.777l-49.443,22.783c-2.69,1.107-8.207-2.1-8.207-5Z" transform="translate(11.495 94.455)" fill="url(#d)"/><path d="M113,217.123V196.159a4.094,4.094,0,0,1,2.591-3.817L167.506,171.7a4.094,4.094,0,0,1,5.617,3.8v49.8a4.094,4.094,0,0,1-2.531,3.777l-51.915,21.557a4.094,4.094,0,0,1-5.36-2.235,3.956,3.956,0,0,1-.316-1.562Z" transform="translate(12.805 95.019)" fill="#8a8a8a"/><path d="M113,195.416l35.6,18.314L172.133,172.2s.91-.534.91,2.551v49.8L113,243.217Z" transform="translate(12.805 95.763)" fill="url(#e)"/><path d="M120.39,156.09a4.964,4.964,0,0,1-3.184,2.136c-3.52.752-5.656-.949-7.436,3.145a8.266,8.266,0,0,0-.514,4.43c0,.316,1.107,3.817,1.384,3.639-.91.653-1.622-1.127-2.611-1.642s-2.452.989-2.215,2.274a7.594,7.594,0,0,0,2.136,3.283,11.174,11.174,0,0,1,2.472,6.922c0,.574-.218,1.345-.811,1.365s-1.246-.811-1.7-1.127a17.187,17.187,0,0,0-2.274-1.285c-2.413-1.147-6.052-1.5-8.069-3.125a5.735,5.735,0,0,1-1.978-3.4c0-.316,0-3.718.593-3.54a4.707,4.707,0,0,1-3.145-5.933h0a4.924,4.924,0,0,1,1.4-2.176c-2.472-3.441-1.325-8.544,1.641-11.57a19.52,19.52,0,0,1,11.471-4.9,31.5,31.5,0,0,1,13.844.91,10.719,10.719,0,0,1,4.213,2.274,4.984,4.984,0,0,1,1.6,4.311,1.463,1.463,0,0,1-1.562-.3,2.868,2.868,0,0,1-4.806,2.927,3.106,3.106,0,0,1-.455,1.384Z" transform="translate(-6.926 68.42)" fill="#0f1010"/><path d="M112.143,161.769l-.593.178a.811.811,0,0,0-.475.218.752.752,0,0,0,0,.415,8.227,8.227,0,0,0-2.116,4.549l-1.127,5.261a42.6,42.6,0,0,1-4.272-10.719A41.53,41.53,0,0,0,112.143,161.769Z" transform="translate(3.575 85.505)" fill="#dc9f95"/><path d="M112.917,194.763a3.2,3.2,0,0,1,2.789-1.167,11.57,11.57,0,0,1,1.7,1.048,4.114,4.114,0,0,0,1.6.356,15.821,15.821,0,0,0,6.586-.93,8.465,8.465,0,0,1,3.4-.85,4.984,4.984,0,0,1,3.382,2.433,9.513,9.513,0,0,1,.336,10.363,10.245,10.245,0,0,1-3.4,3.105,21.141,21.141,0,0,1-9.73,2.413c-3.362.158-6.784,0-10.126.158a3.8,3.8,0,0,1-2.334-.316,3.58,3.58,0,0,1-1.127-2.947c-.119-2.551-.554-4.707.93-6.863a78.213,78.213,0,0,1,5.992-6.8Z" transform="translate(5.808 116.352)" fill="#fbb9ad"/><path d="M104.338,172.879s-37.161,48.592-25.413,65.759,61.309-2.828,61.309-2.828l-4.826-14.22S100.6,226,100.343,222.1s22.071-26.2,22.071-26.2S126.41,163.247,104.338,172.879Z" transform="translate(-22.755 94.726)" fill="#fff"/></g></svg>