<svg xmlns="http://www.w3.org/2000/svg" width="34" height="24.624" viewBox="0 0 34 24.624"><path d="M1.988,0H32.112A1.958,1.958,0,0,1,34.05,1.952v20.7a1.938,1.938,0,0,1-.338,1.108.77.77,0,0,1-.183.277.725.725,0,0,1-.183.127,1.938,1.938,0,0,1-1.249.457H1.988A1.958,1.958,0,0,1,.05,22.685V1.952A1.958,1.958,0,0,1,1.988,0ZM1.905,21.832,12.09,11.248,1.905,2.642v19.19Zm11.719-9.263L2.742,23.109H31.264l-10.4-10.539L17.82,15.12h0a.748.748,0,0,1-.955,0Zm8.751-1.34,9.819,10.689V2.548ZM2.863,1.5l14.45,11.711L31.126,1.5Z" transform="translate(-0.05)" fill="#2d3032"/></svg>