<svg xmlns="http://www.w3.org/2000/svg" width="34" height="24.624"><path fill="#2d3032" d="M1.938 0h30.124A1.958 1.958 0 0 1 34 1.952v20.7a1.938 1.938 0 0 1-.338 1.108.77.77 0 0 1-.183.277.725.725 0 0 1-.183.127 1.938 1.938 0 0 1-1.249.457H1.938A1.958 1.958 0 0 1 0 22.685V1.952A1.958 1.958 0 0 1 1.938 0Zm-.083 21.832L12.04 11.248 1.855 2.642v19.19Zm11.719-9.263L2.692 23.109h28.522l-10.4-10.539-3.044 2.55a.748.748 0 0 1-.955 0Zm8.751-1.34 9.819 10.689V2.548ZM2.813 1.5l14.45 11.711L31.076 1.5Z"/></svg>