<svg xmlns="http://www.w3.org/2000/svg" width="34" height="33.831"><path fill="#2d3032" d="M9.359 13.916a28.485 28.485 0 0 0 4.171 5.847 23.654 23.654 0 0 0 6.606 4.872.682.682 0 0 0 .573.033 2.466 2.466 0 0 0 .8-.577 9.763 9.763 0 0 0 .728-.892c1.064-1.4 2.38-3.127 4.237-2.267a.777.777 0 0 1 .111.063l6.191 3.556a.866.866 0 0 1 .064.041A2.769 2.769 0 0 1 34 26.993a6.485 6.485 0 0 1-.906 3.072 6.369 6.369 0 0 1-2.977 2.635 13.4 13.4 0 0 1-3.671 1 12.478 12.478 0 0 1-5.614-.468 24.689 24.689 0 0 1-5.645-2.732l-.146-.09c-.92-.57-1.911-1.183-2.875-1.91a36.008 36.008 0 0 1-9.534-10.818C.653 14.1-.429 10.237.161 6.553a8.012 8.012 0 0 1 2.7-5.072A7.237 7.237 0 0 1 8.24.041a.8.8 0 0 1 .624.393l3.963 6.715a2.088 2.088 0 0 1 .333 2.24 4.445 4.445 0 0 1-1.515 1.707c-.217.18-.473.367-.736.559-.885.648-1.9 1.388-1.553 2.261Zm3 6.954a30.047 30.047 0 0 1-4.42-6.186.8.8 0 0 1-.056-.108c-.878-2.064.7-3.217 2.073-4.223.234-.171.46-.337.664-.506l.037-.029a3.042 3.042 0 0 0 1.018-1.062.6.6 0 0 0-.129-.627.821.821 0 0 1-.084-.117L7.691 1.619a5.513 5.513 0 0 0-3.814 1.119 6.426 6.426 0 0 0-2.123 4.068c-.527 3.291.475 6.805 2.294 10.1a34.32 34.32 0 0 0 9.093 10.307c.935.706 1.875 1.287 2.748 1.828l.146.09a23.164 23.164 0 0 0 5.272 2.558 10.906 10.906 0 0 0 4.906.411 11.88 11.88 0 0 0 3.229-.866 4.8 4.8 0 0 0 2.251-1.966 4.872 4.872 0 0 0 .7-2.275 1.249 1.249 0 0 0-.444-1.064l-6.157-3.536c-.681-.3-1.558.853-2.267 1.785a10.46 10.46 0 0 1-.873 1.056 3.981 3.981 0 0 1-1.373.944 2.224 2.224 0 0 1-1.869-.1 25.242 25.242 0 0 1-7.046-5.205Z"/></svg>