<svg xmlns="http://www.w3.org/2000/svg" width="34" height="34" viewBox="0 0 34 34"><g transform="translate(0)"><path d="M30.289,24.765a.766.766,0,0,1,.147.015,17.063,17.063,0,0,0,.867-1.739c0-.012.01-.024.016-.035a14.829,14.829,0,0,0,.888-2.883,15.654,15.654,0,0,0,.286-2.377H27.82a15.123,15.123,0,0,1-2.114,7.02h4.582Zm-.815,1.49H24.766A31.487,31.487,0,0,1,19,32.389q.567-.071,1.122-.181a14.778,14.778,0,0,0,2.919-.9h0A16.382,16.382,0,0,0,25.7,29.865a15.03,15.03,0,0,0,2.283-1.88l0,0h0a15.028,15.028,0,0,0,1.489-1.727ZM15,32.389a31.5,31.5,0,0,1-5.766-6.133H4.527a15.049,15.049,0,0,0,1.488,1.727l0,0h0A15.057,15.057,0,0,0,8.3,29.865,16.358,16.358,0,0,0,10.96,31.3L11,31.32a14.806,14.806,0,0,0,2.883.888q.554.111,1.121.181ZM3.556,24.765H8.294a15.119,15.119,0,0,1-2.113-7.02H1.507a15.615,15.615,0,0,0,.286,2.377,14.8,14.8,0,0,0,.9,2.919h0a16.913,16.913,0,0,0,.859,1.725Zm-2.049-8.51h4.7a16.208,16.208,0,0,1,2.326-7.02H3.556A16.889,16.889,0,0,0,2.7,10.96L2.681,11a14.818,14.818,0,0,0-.888,2.883,15.619,15.619,0,0,0-.286,2.377Zm3.02-8.51H9.49A34.89,34.89,0,0,1,15.1,1.6q-.621.073-1.226.194a14.791,14.791,0,0,0-2.919.9h0A16.36,16.36,0,0,0,8.3,4.136a15.072,15.072,0,0,0-2.283,1.88l0,0h0A15.051,15.051,0,0,0,4.527,7.745ZM18.9,1.6A34.9,34.9,0,0,1,24.51,7.745h4.964a15.026,15.026,0,0,0-1.489-1.727l0,0h0A15.028,15.028,0,0,0,25.7,4.136,16.382,16.382,0,0,0,23.04,2.7l-.035-.016a14.817,14.817,0,0,0-2.883-.888Q19.517,1.672,18.9,1.6ZM30.444,9.235h-4.98a16.2,16.2,0,0,1,2.326,7.02h4.7a15.685,15.685,0,0,0-.286-2.377,14.815,14.815,0,0,0-.9-2.919h0a16.833,16.833,0,0,0-.859-1.725ZM13.587.331a17.732,17.732,0,0,1,6.825,0,16.293,16.293,0,0,1,3.175.981l.041.016a17.817,17.817,0,0,1,2.9,1.573A16.816,16.816,0,0,1,31.1,7.475a17.854,17.854,0,0,1,1.573,2.9h0v0a16.256,16.256,0,0,1,1,3.212,17.75,17.75,0,0,1,0,6.826,16.3,16.3,0,0,1-.981,3.174c0,.014-.01.027-.016.041a17.83,17.83,0,0,1-1.573,2.9A16.815,16.815,0,0,1,26.525,31.1a17.806,17.806,0,0,1-2.9,1.573h0a16.279,16.279,0,0,1-3.212,1,17.732,17.732,0,0,1-6.825,0,16.307,16.307,0,0,1-3.175-.981l-.041-.016a17.787,17.787,0,0,1-2.9-1.573A16.82,16.82,0,0,1,2.9,26.526a17.818,17.818,0,0,1-1.573-2.9h0v0a16.273,16.273,0,0,1-1-3.212,17.727,17.727,0,0,1,0-6.826,16.3,16.3,0,0,1,.981-3.175c0-.014.01-.027.016-.041A17.811,17.811,0,0,1,2.9,7.474,16.82,16.82,0,0,1,7.474,2.9a17.841,17.841,0,0,1,2.9-1.573h0a16.339,16.339,0,0,1,3.213-1Zm4.158,2.233V7.745h4.932a35.478,35.478,0,0,0-4.932-5.181Zm0,6.671v7.02H26.3a15.34,15.34,0,0,0-2.578-7.02Zm0,8.51v7.02h6.228a14.094,14.094,0,0,0,2.361-7.02Zm0,8.51V31.5a32.152,32.152,0,0,0,5.187-5.244ZM16.255,31.5V26.256H11.068A32.134,32.134,0,0,0,16.255,31.5Zm0-6.735v-7.02H7.666a14.085,14.085,0,0,0,2.361,7.02h6.228Zm0-8.51V9.235H10.277A15.345,15.345,0,0,0,7.7,16.255Zm0-8.51V2.564a35.483,35.483,0,0,0-4.933,5.181Z" transform="translate(0 0)" fill="#2d3032"/></g></svg>