<svg xmlns="http://www.w3.org/2000/svg" width="230" height="230" viewBox="0 0 230 230"><g transform="translate(-722 -12796.601)"><path d="M6640.441,12953.284v-110.5l-110.5,110.5h110.5m35,35h-230l230-230Z" transform="translate(-5723.441 38.316)" fill="#e56969"/><path d="M8.586,11.414l-10-10L1.414-1.414l10,10Z" transform="translate(750.5 12998.5)" fill="#2d3032"/><path d="M8.586,11.414l-10-10L1.414-1.414l10,10Z" transform="translate(775.5 12973.5)" fill="#2d3032"/><path d="M8.586,11.414l-10-10L1.414-1.414l10,10Z" transform="translate(800.5 12948.5)" fill="#2d3032"/><path d="M8.586,11.414l-10-10L1.414-1.414l10,10Z" transform="translate(825.5 12923.5)" fill="#2d3032"/><path d="M8.586,11.414l-10-10L1.414-1.414l10,10Z" transform="translate(850.5 12898.5)" fill="#2d3032"/><path d="M8.586,11.414l-10-10L1.414-1.414l10,10Z" transform="translate(875.5 12873.5)" fill="#2d3032"/><path d="M8.586,11.414l-10-10L1.414-1.414l10,10Z" transform="translate(900.5 12848.5)" fill="#2d3032"/><path d="M8.586,11.414l-10-10L1.414-1.414l10,10Z" transform="translate(755.5 12993.5)" fill="#2d3032"/><path d="M8.586,11.414l-10-10L1.414-1.414l10,10Z" transform="translate(780.5 12968.5)" fill="#2d3032"/><path d="M8.586,11.414l-10-10L1.414-1.414l10,10Z" transform="translate(805.5 12943.5)" fill="#2d3032"/><path d="M8.586,11.414l-10-10L1.414-1.414l10,10Z" transform="translate(830.5 12918.5)" fill="#2d3032"/><path d="M8.586,11.414l-10-10L1.414-1.414l10,10Z" transform="translate(855.5 12893.5)" fill="#2d3032"/><path d="M8.586,11.414l-10-10L1.414-1.414l10,10Z" transform="translate(880.5 12868.5)" fill="#2d3032"/><path d="M8.586,11.414l-10-10L1.414-1.414l10,10Z" transform="translate(905.5 12843.5)" fill="#2d3032"/><path d="M8.586,11.414l-10-10L1.414-1.414l10,10Z" transform="translate(760.5 12988.5)" fill="#2d3032"/><path d="M8.586,11.414l-10-10L1.414-1.414l10,10Z" transform="translate(785.5 12963.5)" fill="#2d3032"/><path d="M8.586,11.414l-10-10L1.414-1.414l10,10Z" transform="translate(810.5 12938.5)" fill="#2d3032"/><path d="M8.586,11.414l-10-10L1.414-1.414l10,10Z" transform="translate(835.5 12913.5)" fill="#2d3032"/><path d="M8.586,11.414l-10-10L1.414-1.414l10,10Z" transform="translate(860.5 12888.5)" fill="#2d3032"/><path d="M8.586,11.414l-10-10L1.414-1.414l10,10Z" transform="translate(885.5 12863.5)" fill="#2d3032"/><path d="M8.586,11.414l-10-10L1.414-1.414l10,10Z" transform="translate(910.5 12838.5)" fill="#2d3032"/><path d="M8.586,11.414l-10-10L1.414-1.414l10,10Z" transform="translate(765.5 12983.5)" fill="#2d3032"/><path d="M8.586,11.414l-10-10L1.414-1.414l10,10Z" transform="translate(790.5 12958.5)" fill="#2d3032"/><path d="M8.586,11.414l-10-10L1.414-1.414l10,10Z" transform="translate(815.5 12933.5)" fill="#2d3032"/><path d="M8.586,11.414l-10-10L1.414-1.414l10,10Z" transform="translate(840.5 12908.5)" fill="#2d3032"/><path d="M8.586,11.414l-10-10L1.414-1.414l10,10Z" transform="translate(865.5 12883.5)" fill="#2d3032"/><path d="M8.586,11.414l-10-10L1.414-1.414l10,10Z" transform="translate(890.5 12858.5)" fill="#2d3032"/><path d="M8.586,11.414l-10-10L1.414-1.414l10,10Z" transform="translate(915.5 12833.5)" fill="#2d3032"/><path d="M13.586,16.414l-15-15L1.414-1.414l15,15Z" transform="translate(745.5 13003.5)" fill="#2d3032"/><path d="M13.586,16.414l-15-15L1.414-1.414l15,15Z" transform="translate(770.5 12978.5)" fill="#2d3032"/><path d="M13.586,16.414l-15-15L1.414-1.414l15,15Z" transform="translate(795.5 12953.5)" fill="#2d3032"/><path d="M13.586,16.414l-15-15L1.414-1.414l15,15Z" transform="translate(820.5 12928.5)" fill="#2d3032"/><path d="M13.586,16.414l-15-15L1.414-1.414l15,15Z" transform="translate(845.5 12903.5)" fill="#2d3032"/><path d="M13.586,16.414l-15-15L1.414-1.414l15,15Z" transform="translate(870.5 12878.5)" fill="#2d3032"/><path d="M13.586,16.414l-15-15L1.414-1.414l15,15Z" transform="translate(895.5 12853.5)" fill="#2d3032"/><path d="M13.586,16.414l-15-15L1.414-1.414l15,15Z" transform="translate(920.5 12828.5)" fill="#2d3032"/></g></svg>