<svg xmlns="http://www.w3.org/2000/svg" width="230" height="230"><path fill="#e56969" d="M195 194.999v-110.5l-110.5 110.5H195m35 35H0l230-230Z"/><path fill="#2d3032" d="m37.086 213.313-10-10 2.828-2.828 10 10ZM62.086 188.313l-10-10 2.828-2.828 10 10ZM87.086 163.313l-10-10 2.828-2.828 10 10ZM112.086 138.313l-10-10 2.828-2.828 10 10ZM137.086 113.313l-10-10 2.828-2.828 10 10ZM162.086 88.313l-10-10 2.828-2.828 10 10ZM187.086 63.313l-10-10 2.828-2.828 10 10ZM42.086 208.313l-10-10 2.828-2.828 10 10ZM67.086 183.313l-10-10 2.828-2.828 10 10ZM92.086 158.313l-10-10 2.828-2.828 10 10ZM117.086 133.313l-10-10 2.828-2.828 10 10ZM142.086 108.313l-10-10 2.828-2.828 10 10ZM167.086 83.313l-10-10 2.828-2.828 10 10ZM192.086 58.313l-10-10 2.828-2.828 10 10ZM47.086 203.313l-10-10 2.828-2.828 10 10ZM72.086 178.313l-10-10 2.828-2.828 10 10ZM97.086 153.313l-10-10 2.828-2.828 10 10ZM122.086 128.313l-10-10 2.828-2.828 10 10ZM147.086 103.313l-10-10 2.828-2.828 10 10ZM172.086 78.313l-10-10 2.828-2.828 10 10ZM197.086 53.313l-10-10 2.828-2.828 10 10ZM52.086 198.313l-10-10 2.828-2.828 10 10ZM77.086 173.313l-10-10 2.828-2.828 10 10ZM102.086 148.313l-10-10 2.828-2.828 10 10ZM127.086 123.313l-10-10 2.828-2.828 10 10ZM152.086 98.313l-10-10 2.828-2.828 10 10ZM177.086 73.313l-10-10 2.828-2.828 10 10ZM202.086 48.313l-10-10 2.828-2.828 10 10ZM37.086 223.313l-15-15 2.828-2.828 15 15ZM62.086 198.313l-15-15 2.828-2.828 15 15ZM87.086 173.313l-15-15 2.828-2.828 15 15ZM112.086 148.313l-15-15 2.828-2.828 15 15ZM137.086 123.313l-15-15 2.828-2.828 15 15ZM162.086 98.313l-15-15 2.828-2.828 15 15ZM187.086 73.313l-15-15 2.828-2.828 15 15ZM212.086 48.313l-15-15 2.828-2.828 15 15Z"/></svg>