<svg xmlns="http://www.w3.org/2000/svg" width="60" height="49.112" viewBox="0 0 60 49.112"><path d="M19.169,42.484A48.31,48.31,0,0,1,15.517,39a35.256,35.256,0,0,1-3.257-3.984H6.684c.205.264.415.518.63.771.317.371.654.728,1,1.079l.024.024c.454.454.923.879,1.411,1.284a19.7,19.7,0,0,0,3.208,2.148c.576.312,1.172.6,1.8.869l.059.029a18.435,18.435,0,0,0,1.821.664c.62.19,1.255.352,1.909.483l.625.112ZM41.84,16.279a14.362,14.362,0,0,1,14.37,14.37,14.32,14.32,0,0,1-2.2,7.641l5.9,6.426a.339.339,0,0,1-.02.479L55.7,49.022a.339.339,0,0,1-.479-.02l-5.664-6.23a14.353,14.353,0,0,1-17.876-1.958l-.02-.02a14.375,14.375,0,0,1,4.687-23.422,14.168,14.168,0,0,1,5.488-1.094ZM50.4,22.055a12.063,12.063,0,1,0,2.651,3.95l0-.02a12.243,12.243,0,0,0-2.627-3.921l-.02-.01ZM5.063,32.572h5.674A22.22,22.22,0,0,1,8.921,28.3a18.652,18.652,0,0,1-.781-4.473H2.48c.024.439.063.874.117,1.309.063.513.142,1.02.244,1.523a19.3,19.3,0,0,0,.488,1.934A17.91,17.91,0,0,0,4,30.424l.015.034c.166.386.342.767.527,1.138.166.337.337.659.518.977ZM2.48,21.381h5.7a19.2,19.2,0,0,1,.928-4.433,23.9,23.9,0,0,1,1.938-4.311H5.063c-.181.317-.352.64-.518.972-.186.376-.361.757-.532,1.147l-.024.049a19.473,19.473,0,0,0-.669,1.831c-.19.62-.352,1.255-.483,1.909-.1.5-.181,1.011-.244,1.528-.049.435-.088.869-.112,1.309Zm4.209-11.2H12.6A39.717,39.717,0,0,1,15.791,6.23l.015-.015q1.6-1.758,3.555-3.52l-.02,0c-.254.039-.518.088-.791.142a19.3,19.3,0,0,0-1.934.488A17.994,17.994,0,0,0,14.78,4l-.024.01c-.62.269-1.221.557-1.8.869s-1.128.645-1.66,1A18.855,18.855,0,0,0,9.756,7.031,18.661,18.661,0,0,0,8.335,8.325l-.01.01c-.352.352-.688.713-1.006,1.079-.22.254-.43.513-.63.771ZM25.854,2.7q1.956,1.772,3.564,3.535a39.1,39.1,0,0,1,3.193,3.955h5.913c-.205-.264-.415-.518-.63-.767-.322-.371-.659-.737-1.011-1.089l-.02-.02a18.326,18.326,0,0,0-1.411-1.279A18.855,18.855,0,0,0,33.91,5.884c-.527-.356-1.084-.688-1.66-1s-1.177-.6-1.8-.869L30.4,3.989c-.6-.254-1.211-.474-1.831-.669s-1.255-.352-1.9-.483l-.02,0c-.254-.049-.513-.1-.767-.137ZM18.066.439C18.793.293,19.541.186,20.3.107S21.835,0,22.607,0s1.538.039,2.3.112a22.006,22.006,0,0,1,2.236.332c.718.142,1.436.327,2.143.542a21.089,21.089,0,0,1,2.075.757l.063.024q1.025.439,1.992.962l.015.01q.952.52,1.846,1.118a21.385,21.385,0,0,1,1.738,1.294q.835.688,1.6,1.455a21.377,21.377,0,0,1,1.45,1.6q.688.835,1.294,1.738c.327.488.64.991.933,1.509a19.723,19.723,0,0,0-2.021-.107,18.912,18.912,0,0,0-8.506,2.007c-.142-.239-.288-.474-.439-.713h-7.5V20.79a18.775,18.775,0,0,0-2.446,7.353V23.828h-10.8a16.334,16.334,0,0,0,.845,4.307,20.734,20.734,0,0,0,2.139,4.438h7.812v-.02a18.935,18.935,0,0,0,2.446,7.353l.508.82a19.11,19.11,0,0,0,3.393,3.911c-.2.044-.4.088-.591.127A22.006,22.006,0,0,1,24.9,45.1c-.762.073-1.528.112-2.3.112s-1.538-.039-2.3-.112a22.006,22.006,0,0,1-2.236-.332,21.765,21.765,0,0,1-2.139-.542,20.878,20.878,0,0,1-2.08-.762l-.059-.024Q12.758,43,11.8,42.475T9.936,41.347A21.386,21.386,0,0,1,8.2,40.053q-.835-.688-1.6-1.45a21.378,21.378,0,0,1-1.45-1.6q-.688-.835-1.294-1.738T2.729,33.4c-.347-.64-.669-1.3-.962-1.982l-.01-.029c-.288-.684-.547-1.377-.767-2.08a22.022,22.022,0,0,1-.552-2.168A22.306,22.306,0,0,1,.112,24.9C.039,24.14,0,23.373,0,22.607s.039-1.538.112-2.3a22.306,22.306,0,0,1,.327-2.241c.146-.718.327-1.436.542-2.139a20.793,20.793,0,0,1,.762-2.075l.024-.063q.439-1.025.962-1.982T3.857,9.941q.608-.9,1.294-1.738t1.45-1.6A21.514,21.514,0,0,1,8.2,5.151c.557-.459,1.138-.889,1.733-1.289s1.221-.776,1.86-1.128,1.313-.674,1.987-.967l.034-.01A21.3,21.3,0,0,1,15.9,1,20.982,20.982,0,0,1,18.066.439Zm5.762,3.716v6.03h5.747q-1.157-1.479-2.583-2.978-1.443-1.516-3.164-3.052Zm-2.446,37V35.024H15.3A36.8,36.8,0,0,0,18,38.061l.01.015q1.538,1.545,3.374,3.081Zm0-19.775V12.636H13.9a23.518,23.518,0,0,0-2.256,4.482,17.286,17.286,0,0,0-1,4.263H21.381Zm0-11.2V4.155Q19.66,5.686,18.212,7.207q-1.428,1.5-2.583,2.978Z" fill="#e56969"/></svg>