<svg xmlns="http://www.w3.org/2000/svg" width="60" height="48.191" viewBox="0 0 60 48.191"><path d="M28.385,28.076l30.953.007a.671.671,0,0,1,.662.662v2.489a.679.679,0,0,1-.662.662l-30.953-.007a.671.671,0,0,1-.662-.662V28.738A.664.664,0,0,1,28.385,28.076ZM.983,27.72H19.488a.986.986,0,0,1,.983.982V47.208a.987.987,0,0,1-.983.983H.983A.986.986,0,0,1,0,47.208V28.7A.985.985,0,0,1,.983,27.72ZM.983,0H19.488a.986.986,0,0,1,.983.983V19.488a.987.987,0,0,1-.983.983H.983A.986.986,0,0,1,0,19.488V.983A.985.985,0,0,1,.983,0Zm27.4,8.326,30.953.006A.671.671,0,0,1,60,8.994v2.489a.679.679,0,0,1-.662.662l-30.953-.007a.671.671,0,0,1-.662-.662V8.988a.663.663,0,0,1,.662-.662Zm0,7.97,30.953.006a.671.671,0,0,1,.662.662v2.489a.679.679,0,0,1-.662.662l-30.953-.007a.671.671,0,0,1-.662-.662V16.957A.663.663,0,0,1,28.385,16.3Zm0-16.3L59.338.007A.67.67,0,0,1,60,.668V3.157a.679.679,0,0,1-.662.662L28.385,3.813a.671.671,0,0,1-.662-.662V.662A.664.664,0,0,1,28.385,0Zm0,36.4,30.953.006A.671.671,0,0,1,60,37.07v2.489a.679.679,0,0,1-.662.662l-30.953-.006a.671.671,0,0,1-.662-.662V37.064A.664.664,0,0,1,28.385,36.4Zm0,7.97,30.953.006A.671.671,0,0,1,60,45.04v2.489a.679.679,0,0,1-.662.662l-30.953-.006a.671.671,0,0,1-.662-.662V45.034A.664.664,0,0,1,28.385,44.372Z" fill="#e56969" fill-rule="evenodd"/></svg>