<svg xmlns="http://www.w3.org/2000/svg" width="60" height="60" viewBox="0 0 60 60"><path d="M51.4,2.931l7.021,6.953a2.4,2.4,0,0,1,0,3.4l-5.385,5.333L42.585,8.269l5.39-5.338a2.448,2.448,0,0,1,3.427,0ZM15.087,8.173,26.463,24.231l14.076-13.94L50.988,20.643,35.086,36.4l7.436,10.493L37.4,50.559l-7.831-8.694L18.095,53.228a2.448,2.448,0,0,1-3.427,0L7.641,46.275a2.4,2.4,0,0,1,0-3.4L19.711,30.923,2.954,12.321c-7.573-8.51.478-20.6,12.133-4.149ZM4.37,45.859l10.5,10.391L2.944,58.2,4.37,45.859Zm36.872,4.656c4.135-3.027,7.045-2.722,8.681.749.386.822,1.562,4.342,3.984,6.267C56.285,59.423,60,59.684,60,59.8c-5.82.537-29.715.73-18.758-9.284Z" transform="translate(-0.001 -0.002)" fill="#e56969" fill-rule="evenodd"/></svg>