<svg xmlns="http://www.w3.org/2000/svg" width="60" height="60" viewBox="0 0 60 60"><path d="M.027,65.07c-.016.4-.027.8-.027,1.2A24.743,24.743,0,0,0,.6,71.7a23.222,23.222,0,0,0,1.729,5.044.2.2,0,0,0,.033.068,27.119,27.119,0,0,0,2.774,4.6,26.54,26.54,0,0,0,3.636,3.989,27.222,27.222,0,0,0,4.427,3.271,32.615,32.615,0,0,0,5.11,2.5,31.2,31.2,0,0,0,5.668,1.587,34.221,34.221,0,0,0,12.051,0,30.022,30.022,0,0,0,5.6-1.558.243.243,0,0,0,.076-.029,32.812,32.812,0,0,0,5.11-2.5A28.472,28.472,0,0,0,51.233,85.4a25.926,25.926,0,0,0,3.636-3.989,27.9,27.9,0,0,0,2.774-4.6A24.143,24.143,0,0,0,59.4,71.7a24.645,24.645,0,0,0,.6-5.434c0-.4-.011-.8-.027-1.191-19.924,0-39.973,0-59.946,0Zm2.633,2.378h8.3a24.221,24.221,0,0,0,4.1,11.157H6.28a24.2,24.2,0,0,1-1.512-2.739.128.128,0,0,1-.033-.049,22.267,22.267,0,0,1-2.075-8.369ZM7.987,80.973h8.762a58.312,58.312,0,0,0,9.9,9.775c-.737-.078-1.458-.181-2.157-.308a27.769,27.769,0,0,1-5.148-1.445,30.074,30.074,0,0,1-4.7-2.29,25.845,25.845,0,0,1-4.031-2.983,24.661,24.661,0,0,1-2.628-2.739v-.01Zm25.359,9.775a57.3,57.3,0,0,0,9.9-9.775h8.762a24.242,24.242,0,0,1-2.628,2.739A25.844,25.844,0,0,1,45.348,86.7a29.733,29.733,0,0,1-4.7,2.29.148.148,0,0,1-.054.029A28.3,28.3,0,0,1,35.5,90.425c-.721.132-1.441.229-2.157.308v.015ZM53.72,78.6H44.936a24.062,24.062,0,0,0,4.1-11.157h8.3a23.358,23.358,0,0,1-.5,3.779,21.5,21.5,0,0,1-1.6,4.638A25.5,25.5,0,0,1,53.72,78.6ZM31.314,89.21V80.973h8.708a58.822,58.822,0,0,1-8.708,8.237Zm0-10.605V67.448h15.1A22.933,22.933,0,0,1,41.859,78.6ZM28.686,67.448V78.6H18.141A22.951,22.951,0,0,1,13.59,67.448Zm0,13.525V89.21a58.612,58.612,0,0,1-8.713-8.237Z" transform="translate(0 -33.296)" fill="#e56969"/><path d="M45.642,18.619l.937-.02.78-.02a5.772,5.772,0,0,1,1.582-6.816A4.576,4.576,0,0,0,51.564,14.4a13.375,13.375,0,0,1,1.967,1.631c.114-.42-.314-.923-.834-1.445a2.463,2.463,0,0,1,1.241,1.089,2.708,2.708,0,0,1,.238,1.958,4.034,4.034,0,0,1-.276.942h1.3a6.473,6.473,0,0,0-2.3-8.213,4.148,4.148,0,0,0-2.482-.488,4.377,4.377,0,0,0-2.731.62,6.128,6.128,0,0,0-2.726,4.453c-.07,1.04-.125,2.837.683,3.672ZM.96,27.979c.114-2.851,3.907-2.964,6.871-4.629l1.983,4.629Zm12.858-1.567h.39a.611.611,0,0,0,.639-.576V24.9a.611.611,0,0,0-.639-.576H11.895a.611.611,0,0,0-.639.576v.933a.611.611,0,0,0,.639.576h.4l-.341,1.567h2.2l-.331-1.567ZM9.771,21.339c.076-.542-1.7-2.324-2.027-3.31a2.458,2.458,0,0,1-.184-3.081c.3-.42.173-1.548.173-2.124,0-5.718,11.124-5.722,11.124,0,0,.723-.184,1.665.249,2.236a2.461,2.461,0,0,1-.266,2.974c-.39,1.04-2.249,2.72-2.124,3.31.114,2.93-6.968,2.832-6.947,0Zm18.3-1.123,2.785,7.368,1.4-4.375-.688-.674a.934.934,0,0,1-.206-1.069c.374-.659,1.138-.542,1.853-.542.753,0,1.685-.127,1.918.723a1.063,1.063,0,0,1-.238.889l-.688.674,1.4,4.375,2.52-7.368c3.278,2.661,9.883,1.1,10.68,7.758H16.506c.84-7.007,8.258-5.073,11.563-7.758ZM25.8,10.461a3.107,3.107,0,0,0,.726,1.587l.011.01h0l1.555,2.226a11.868,11.868,0,0,0,2.081,2.461,4.435,4.435,0,0,0,2.937,1.064,4.574,4.574,0,0,0,3.1-1.113,12.593,12.593,0,0,0,2.14-2.627l1.75-2.593c.358-.732.466-1.177.347-1.392-.065-.122-.309-.166-.7-.151a1.953,1.953,0,0,1-.959-.024l.71-2.446c-5.484.508-8.567-4.116-12.474-.6l.509,2.9c-.634.117-1.783-.254-1.739.7ZM40.559,9.1a1.218,1.218,0,0,1,.8.586c.266.474.157,1.182-.336,2.192h0a.25.25,0,0,0-.027.054l-1.772,2.627a13.351,13.351,0,0,1-2.314,2.822,5.564,5.564,0,0,1-3.8,1.357,5.489,5.489,0,0,1-3.625-1.309,12.752,12.752,0,0,1-2.254-2.646l-1.555-2.226a3.941,3.941,0,0,1-.894-2.07,1.486,1.486,0,0,1,.163-.762,1.528,1.528,0,0,1,.564-.591,2.55,2.55,0,0,1,.412-.186,31.657,31.657,0,0,1-.065-3.935,5.063,5.063,0,0,1,.19-.913,5.516,5.516,0,0,1,2.628-3.017,7.638,7.638,0,0,1,1.414-.62c2.98-.967,6.936-.435,9.054,1.631a5.135,5.135,0,0,1,1.523,3.437l-.1,3.569Zm8.648,14.321.7-2.192-.341-.337a.472.472,0,0,1-.1-.532c.184-.332.569-.269.927-.269.374,0,.84-.068.959.361a.55.55,0,0,1-.114.444l-.347.342.7,2.192-1.192.85-1.187-.859Zm6.264-.762a10.838,10.838,0,0,0-1.989-2.534,26.1,26.1,0,0,1,4.1,1.655,3.184,3.184,0,0,1,1.36,1.186,6.42,6.42,0,0,1,.764,3.081l.217,1.934H51.3a12.025,12.025,0,0,0-.851-2.632,9.852,9.852,0,0,1,5.018-2.69ZM44.9,20.988c.824-.327,1.674-.605,2.417-.864a12.888,12.888,0,0,0-1.165,1.294c-.4-.146-.813-.293-1.252-.43Z" transform="translate(-0.44 0.005)" fill="#e56969" fill-rule="evenodd"/></svg>