<svg xmlns="http://www.w3.org/2000/svg" width="60" height="48.191"><path fill="#e56969" fill-rule="evenodd" d="m28.385 28.076 30.953.007a.671.671 0 0 1 .662.662v2.489a.679.679 0 0 1-.662.662l-30.953-.007a.671.671 0 0 1-.662-.662v-2.489a.664.664 0 0 1 .662-.662ZM.983 27.72h18.505a.986.986 0 0 1 .983.982v18.506a.987.987 0 0 1-.983.983H.983A.986.986 0 0 1 0 47.208V28.7a.985.985 0 0 1 .983-.98ZM.983 0h18.505a.986.986 0 0 1 .983.983v18.505a.987.987 0 0 1-.983.983H.983A.986.986 0 0 1 0 19.488V.983A.985.985 0 0 1 .983 0Zm27.4 8.326 30.953.006a.671.671 0 0 1 .664.662v2.489a.679.679 0 0 1-.662.662l-30.953-.007a.671.671 0 0 1-.662-.662V8.988a.663.663 0 0 1 .662-.662Zm0 7.97 30.953.006a.671.671 0 0 1 .662.662v2.489a.679.679 0 0 1-.662.662l-30.953-.007a.671.671 0 0 1-.662-.662v-2.489a.663.663 0 0 1 .664-.657Zm0-16.3 30.955.011A.67.67 0 0 1 60 .668v2.489a.679.679 0 0 1-.662.662l-30.953-.006a.671.671 0 0 1-.662-.662V.662A.664.664 0 0 1 28.385 0Zm0 36.4 30.953.006a.671.671 0 0 1 .664.668v2.489a.679.679 0 0 1-.662.662l-30.953-.006a.671.671 0 0 1-.662-.662v-2.489a.664.664 0 0 1 .662-.664Zm0 7.97 30.953.006a.671.671 0 0 1 .664.668v2.489a.679.679 0 0 1-.662.662l-30.953-.006a.671.671 0 0 1-.662-.662v-2.489a.664.664 0 0 1 .662-.662Z"/></svg>