<svg xmlns="http://www.w3.org/2000/svg" width="60" height="60"><path fill="#e56969" fill-rule="evenodd" d="m51.399 2.929 7.021 6.953a2.4 2.4 0 0 1 0 3.4l-5.385 5.333L42.584 8.267l5.39-5.338a2.448 2.448 0 0 1 3.427 0ZM15.086 8.171l11.376 16.058 14.076-13.94 10.449 10.352-15.902 15.757 7.436 10.493-5.122 3.666-7.831-8.694-11.474 11.363a2.448 2.448 0 0 1-3.427 0L7.64 46.273a2.4 2.4 0 0 1 0-3.4l12.07-11.952L2.953 12.319c-7.573-8.51.478-20.6 12.133-4.149ZM4.369 45.857l10.5 10.391-11.926 1.95 1.426-12.341Zm36.872 4.656c4.135-3.027 7.045-2.722 8.681.749.386.822 1.562 4.342 3.984 6.267 2.378 1.892 6.093 2.153 6.093 2.269-5.82.537-29.715.73-18.758-9.284Z"/></svg>