<svg xmlns="http://www.w3.org/2000/svg" width="180" height="176.963"><path fill="#2d3032" d="M22.616 125.721a4.238 4.238 0 0 1 5.2 6.694l-19.189 14.9-.146 19.613 23.119-1.292 12.788-20.317a4.226 4.226 0 1 1 7.148 4.512L37.66 171.876a4.236 4.236 0 0 1-3.428 2.095l-29.779 1.655H4.2a4.22 4.22 0 0 1-4.2-4.233l.19-25.854a4.256 4.256 0 0 1 1.626-3.662l20.8-16.157ZM59 78.819c9.653-28.842 22.646-49.275 40.941-62.165C118.94 3.299 143.344-1.774 175.32.541a4.245 4.245 0 0 1 3.94 4.145c3.091 34.627-3.618 59.177-17.944 77.78-13.8 17.885-34.466 29.984-60.144 40.135v33.793a4.251 4.251 0 0 1-2.344 3.794L72.7 176.329a4.239 4.239 0 0 1-6.416-3.047c-5.786-44.222-11.938-46.346-48.089-58.855-4.306-1.494-8.979-3.105-12.128-4.219a4.243 4.243 0 0 1-1.875-6.665L21.415 78.98a4.238 4.238 0 0 1 3.662-1.8L59 78.819Zm65.036-41.146a17.8 17.8 0 1 1-12.6 5.215 17.756 17.756 0 0 1 12.6-5.215Zm8.5 9.316a12.023 12.023 0 1 0 3.515 8.5 11.977 11.977 0 0 0-3.515-8.5Zm-27.731-23.407C87.506 35.769 75.246 55.719 66.091 84.268a4.226 4.226 0 0 1-4.291 3.149l-34.818-1.7-12.861 18.354c2.724.952 4.819 1.685 6.826 2.373 38.553 13.33 46.565 16.1 52.835 59.28l18.91-11.674v-34.32h.015a4.232 4.232 0 0 1 2.71-3.94c25.575-9.843 46.009-21.386 59.192-38.494C167.19 60.963 173.284 39.284 171.1 8.758c-28.168-1.553-49.685 3.149-66.3 14.824Z"/></svg>