<svg xmlns="http://www.w3.org/2000/svg" width="185" height="162.696"><path fill="#2d3032" fill-rule="evenodd" d="M78.737 142.215c19.244 17.709 46.008 22.861 72.768 11.458l22.941 9.022-3.592-21.582c21.344-18.663 16.39-44.6-.647-62.846a67.29 67.29 0 0 1-7.208 19.971 78.1 78.1 0 0 1-21.43 24.4 94.983 94.983 0 0 1-29.918 15.129 107.089 107.089 0 0 1-32.917 4.452ZM47.706 81.798a5.041 5.041 0 1 1 0-10.081h44.848a5.041 5.041 0 0 1 0 10.081Zm0-25.8a5.041 5.041 0 1 1 0-10.081h64.082a5.041 5.041 0 0 1 0 10.081Zm34-55.948h.076c21.8.658 41.354 8.408 55.352 20.412 14.3 12.256 22.872 28.943 22.337 47.157v.083c-.564 18.226-10.135 34.388-25.156 45.784-14.721 11.172-34.731 17.763-56.527 17.123a100.83 100.83 0 0 1-16.189-1.745 81.569 81.569 0 0 1-13-3.631l-38.421 11.732 11.509-27.367a66.532 66.532 0 0 1-15.624-19.88A55.319 55.319 0 0 1 .025 62.99c.549-18.244 10.124-34.42 25.152-45.824C39.905 5.998 59.912-.597 81.707.043Zm-.2 10.009h-.076c-19.466-.582-37.231 5.225-50.208 15.071C18.55 34.745 10.485 48.219 10.03 63.265a45.4 45.4 0 0 0 4.979 21.94 57.654 57.654 0 0 0 15.823 19l2.985 2.363-6.139 14.594 21.362-6.526 1.626.654a70.181 70.181 0 0 0 12.82 3.725 90.249 90.249 0 0 0 14.575 1.583c19.468.571 37.231-5.236 50.21-15.082 12.672-9.615 20.737-23.089 21.192-38.135v-.079c.43-15.021-6.8-28.91-18.843-39.237-12.35-10.587-29.7-17.431-49.112-18.016Z"/></svg>