<svg xmlns="http://www.w3.org/2000/svg" width="180" height="143.858"><path fill="#2d3032" fill-rule="evenodd" d="M71.939 51.46c10.547 7.559 27.451-.557 34.1 12.6a15.117 15.117 0 0 1 .557 12.056 9.939 9.939 0 0 1-2.871 3.926 10.838 10.838 0 0 1-1.9 1.216c-8.675 4.304-17.725-1.717-22.518-8.997-4.409-6.709-6.328-15.073-7.368-20.8ZM146.5 0H10.635A10.672 10.672 0 0 0 0 10.635v113.936a10.672 10.672 0 0 0 10.635 10.635h106l-9.185-7.822H10.43a2.84 2.84 0 0 1-2.08-.864 2.923 2.923 0 0 1-.864-2.08V29.78h141.738v43.462l7.91 6.416V10.635A10.672 10.672 0 0 0 146.5 0ZM20.757 11.953a5.251 5.251 0 1 0 5.259 5.259 5.264 5.264 0 0 0-5.259-5.259Zm35.61 0a5.251 5.251 0 1 0 5.259 5.259 5.264 5.264 0 0 0-5.259-5.259Zm-17.8 0a5.251 5.251 0 1 0 5.259 5.259 5.264 5.264 0 0 0-5.259-5.259Zm86.865 97.237A48.887 48.887 0 0 0 138.97 92.9l37.793 39.858c2.856 2.7 4.468 5 2.08 9.126a5.833 5.833 0 0 1-3.779 1.963 6.378 6.378 0 0 1-4.16-1.436l-45.469-33.221ZM105.5 86.06c2.549-1.362 6.035-4.731 6.87-8.408l23.656 12.978c-3.413 6.8-7.764 12.612-13.726 16.743-6.226-8.35-9.712-13.389-16.8-21.314Z"/></svg>