<svg xmlns="http://www.w3.org/2000/svg" width="231" height="179.169"><path fill="#2d3032" fill-rule="evenodd" d="M23.862 18.624v108.408H131.5a44.673 44.673 0 0 1-1.087-18.322H40.926a2.989 2.989 0 0 1 0-5.978h18.9V57.98a1.259 1.259 0 0 1 1.259-1.259h9.542a1.259 1.259 0 0 1 1.259 1.259v44.752h13.475V71.326a1.259 1.259 0 0 1 1.259-1.259h9.542a1.265 1.265 0 0 1 1.259 1.259v31.406H110.9V44.63a1.259 1.259 0 0 1 1.259-1.259h9.541a1.271 1.271 0 0 1 1.259 1.259v58.1h8.762a45.072 45.072 0 0 1 4.715-10.742v-30.2a1.255 1.255 0 0 1 1.254-1.259h9.547a1.261 1.261 0 0 1 1.254 1.259v17.117a44.726 44.726 0 0 1 26.222-8.477c1.448 0 2.887.072 4.318.208V18.624ZM135.107 136.15H105.89v15.75l21.751 20.682-6.271 6.587-15.48-14.722v11.821h-9.118v-11.816l-15.485 14.717-6.267-6.587L96.772 151.9v-15.75H0v-9.118h14.744V18.624H.2V9.506h96.572V0h9.118v9.506h96.568v9.118h-14.311V72.49a44.771 44.771 0 0 1 24.941 65.826l17.348 18.9a2.15 2.15 0 0 1-.126 3.032l-12.737 11.631a2.138 2.138 0 0 1-3.018-.135L197.96 153.5a44.806 44.806 0 0 1-62.853-17.347Zm64.874-46.2a35.862 35.862 0 0 0-38.945-7.765c-23.835 9.872-29.313 40.61-11.6 58.3a35.74 35.74 0 1 0 50.549-50.54Z"/></svg>