<svg xmlns="http://www.w3.org/2000/svg" width="180" height="133.678" viewBox="0 0 180 133.678"><path d="M12.185,0h155.63A12.222,12.222,0,0,1,180,12.185V121.493a12.222,12.222,0,0,1-12.185,12.185H12.185A12.222,12.222,0,0,1,0,121.493V12.185A12.222,12.222,0,0,1,12.185,0ZM73.329,92.939a4.876,4.876,0,1,1-6.423,7.337L48.368,84.037a4.879,4.879,0,0,1-.457-6.884,5.147,5.147,0,0,1,.482-.478L66.906,60.455A4.877,4.877,0,0,1,73.329,67.8L58.978,80.367,73.329,92.939Zm39.765,7.337a4.876,4.876,0,0,1-6.423-7.337l14.351-12.572L106.671,67.8a4.877,4.877,0,0,1,6.423-7.341l18.513,16.221a5.148,5.148,0,0,1,.482.478,4.879,4.879,0,0,1-.457,6.884Zm-23.186-43.7a4.886,4.886,0,0,1,9.517,2.218L88.833,104.157a4.886,4.886,0,1,1-9.517-2.215L89.909,56.573ZM7.745,34.119v88.562a3.361,3.361,0,0,0,3.371,3.371H169.383a3.361,3.361,0,0,0,3.371-3.371V34.119ZM156.217,13.7a6.019,6.019,0,1,1-6.019,6.019,6.019,6.019,0,0,1,6.019-6.019Zm-40.792,0a6.019,6.019,0,1,1-6.015,6.019,6.019,6.019,0,0,1,6.015-6.019Zm20.4,0a6.019,6.019,0,1,1-6.019,6.019,6.021,6.021,0,0,1,6.019-6.019Z" fill="#2d3032" fill-rule="evenodd"/></svg>