<svg xmlns="http://www.w3.org/2000/svg" width="370" height="258.467"><path fill="snow" d="M253 14.467h81v171h-81z"/><ellipse cx="169.5" cy="50" fill="snow" rx="169.5" ry="50" transform="translate(31 158.467)"/><path fill="#36344e" d="M290.276 35.302s-8.144.92-8.67 13.53c-.438 10.509-1.332 16.366 2.943 18.558a6.46 6.46 0 0 0 4.957.316l17.453-5.738s.263-18.916-5.78-23.514-10.9-3.153-10.9-3.153Z"/><path fill="#faafb2" d="m299.897 64.29-8.832 2.9V54.481h8.013ZM272.897 136.464c-.479 2.913-2.421 5-4.339 4.665s-3.084-2.97-2.6-5.884a7.124 7.124 0 0 1 1.346-3.217l2.189-12.314 5.957 1.246-2.791 12.007a7.226 7.226 0 0 1 .242 3.5ZM293.12 218.351h-8.274l-4.8-44.2h12.79Z"/><path fill="#36344e" d="M276.79 225.456c-.87 0-1.644-.022-2.228-.075-2.2-.2-4.294-1.823-5.348-2.772a1.5 1.5 0 0 1-.378-1.691 1.489 1.489 0 0 1 .968-.859l5.806-1.659 9.4-6.343.1.188a16.792 16.792 0 0 1 1.272 2.858 1.27 1.27 0 0 1-.092 1.059 1.006 1.006 0 0 1-.436.365 4.319 4.319 0 0 0 2.346.8c2.4.38 2.9-2.1 2.923-2.21l.016-.083.071-.046c1.142-.735 1.843-1.07 2.086-1 .151.045.4.121 1.085 6.89a6.917 6.917 0 0 1 .222 3.259c-.354 1.621-7.432 1.063-8.848.935-.033.007-5.333.384-8.965.384Z"/><path fill="#faafb2" d="M311.809 218.351h-8.271l-4.8-44.2h12.787Z"/><path fill="#36344e" d="M295.479 225.456c-.87 0-1.644-.022-2.228-.075-2.2-.2-4.294-1.823-5.348-2.772a1.5 1.5 0 0 1-.379-1.691 1.49 1.49 0 0 1 .968-.859l5.806-1.659 9.4-6.343.1.188a16.8 16.8 0 0 1 1.272 2.858 1.27 1.27 0 0 1-.092 1.059 1.007 1.007 0 0 1-.436.365 4.319 4.319 0 0 0 2.346.8c2.4.38 2.9-2.1 2.923-2.21l.016-.083.071-.046c1.142-.735 1.845-1.069 2.086-1 .151.045.4.121 1.085 6.89a6.914 6.914 0 0 1 .221 3.259c-.353 1.621-7.432 1.063-8.848.935-.031.007-5.331.384-8.963.384Z"/><path fill="#dfdfe0" d="M314.188 109.784h-40.2l14.45-47.553h16.026Z"/><path fill="#dfdfe0" d="M290.97 62.238s-9.984-.263-11.034 2.365-13.4 65.156-13.4 65.156h8.144l16.289-67.521Z"/><circle cx="8.801" cy="8.801" r="8.801" fill="#faafb2" transform="translate(283.357 40.398)"/><path fill="#36344e" d="M289.751 38.586s-4.844 19.667.542 28.862l-7.586-1.611s-2.939-21.526 2.972-25.439l4.072-1.812ZM305.835 109.784h-26.379l-14.434 59.236a5.117 5.117 0 0 0 3.752 5.487c7.92 2.121 26.92 5.125 55.68-3.244a5.134 5.134 0 0 0 3.47-6.473l-22.089-55.006Z"/><path fill="#dfdfe0" d="m295.17 62.226 8.2-.361a11.262 11.262 0 0 1 8.671 5.213c5.8 9.163 16.646 28.481 6.959 31.128-12.765 3.487-18.95-15.923-18.95-15.923l-4.88-20.057Z"/><path fill="#faafb2" d="M292.354 67.985c-1.686-2.423-1.747-5.275-.137-6.37s4.281-.017 5.967 2.407a7.125 7.125 0 0 1 1.276 3.245l7.007 10.359-5.142 3.256-6.362-10.558a7.225 7.225 0 0 1-2.609-2.34Z"/><path fill="#dfdfe0" d="m296.502 76.366 5.79-5.33 11.449 10.659-10.647 7.279Z"/><rect width="207.397" height="25.65" fill="#e56969" rx="12.825" transform="translate(0 50.11)"/><g fill="snow"><path d="M106.402 114.921a11.65 11.65 0 1 1 11.65-11.65 11.663 11.663 0 0 1-11.65 11.65Zm0-20.134a8.484 8.484 0 1 0 8.484 8.484 8.494 8.494 0 0 0-8.484-8.484Z"/><path d="M128.378 124.466a1.576 1.576 0 0 1-1.03-.381l-14.726-12.628a1.583 1.583 0 1 1 2.061-2.4l14.726 12.628a1.583 1.583 0 0 1-1.031 2.785Z"/></g><path fill="#484565" d="M80.455 225.546a.446.446 0 0 0 .42.471H338.22a.474.474 0 0 0 0-.942H80.875a.446.446 0 0 0-.42.471Z"/><rect width="40.993" height="3.257" fill="#dfdfe0" rx="1.628" transform="translate(166.404 37.18)"/><rect width="40.993" height="3.257" fill="#dfdfe0" rx="1.628"/><rect width="114.013" height="3.257" fill="#dfdfe0" rx="1.628" transform="translate(0 14.212)"/></svg>