<svg xmlns="http://www.w3.org/2000/svg" width="370" height="222.178"><g transform="translate(0 18.712)"><ellipse cx="129.5" cy="107.5" fill="snow" rx="129.5" ry="107.5" transform="translate(29 -18.712)"/><path fill="#8a8a8a" d="M314.046 135.078h-98.2a25.221 25.221 0 0 0-25.221 25.221v42.034h7.912v-23.194a25.221 25.221 0 0 1 25.224-25.221h82.372a25.221 25.221 0 0 1 25.221 25.221v23.194h7.917v-42.034a25.221 25.221 0 0 0-25.225-25.221Z"/><ellipse cx="25.715" cy="3.674" fill="#e6e6e6" rx="25.715" ry="3.674" transform="translate(260.708 134.513)"/><path fill="#8a8a8a" d="M305.863 139.108h-34.252c-8.455-8.1-14.5-15.913-9.661-22.4a7.026 7.026 0 0 1 7.026-7.026h39.521a7.026 7.026 0 0 1 7.024 7.032c1.846 7.385-1.447 14.851-9.658 22.394Z"/><path fill="#8a8a8a" d="M299.712 100.841a1.587 1.587 0 0 1-1.15-2.75l.109-.432-.043-.1a4.261 4.261 0 0 0-7.86.029c-1.286 3.1-2.922 6.2-3.325 9.471a12.6 12.6 0 0 0 .221 4.335 50.538 50.538 0 0 1-4.6-20.99 48.779 48.779 0 0 1 .3-5.442q.251-2.222.7-4.412a51.124 51.124 0 0 1 10.138-21.667 13.605 13.605 0 0 0 5.658-5.871 10.374 10.374 0 0 0 .944-2.836c-.275.036-1.039-4.159-.831-4.417-.384-.583-1.071-.872-1.49-1.441-2.085-2.827-4.958-2.333-6.458 1.508-3.2 1.617-3.235 4.3-1.269 6.878 1.251 1.641 1.422 3.861 2.52 5.618-.113.145-.23.285-.343.429a51.459 51.459 0 0 0-5.37 8.508 21.39 21.39 0 0 0-1.277-9.935c-1.222-2.949-3.513-5.432-5.531-7.981a4.39 4.39 0 0 0-7.82 2.156l-.012.113q.45.254.88.538a2.152 2.152 0 0 1-.868 3.917l-.044.007a21.42 21.42 0 0 0 .565 3.2c-2.588 10.009 3 13.655 10.978 13.819.176.09.348.181.524.266a52.522 52.522 0 0 0-2.827 13.3 49.8 49.8 0 0 0 .036 8.043l-.014-.095a13.162 13.162 0 0 0-4.493-7.6c-3.458-2.841-8.343-3.886-12.074-6.17a2.47 2.47 0 0 0-3.783 2.4l.015.1a14.456 14.456 0 0 1 1.621.781q.45.254.88.538a2.152 2.152 0 0 1-.868 3.917l-.044.007-.09.014a21.431 21.431 0 0 0 3.942 6.173c1.618 8.738 8.569 9.567 16 7.022a52.5 52.5 0 0 0 3.527 10.3h12.6c.045-.14.086-.285.126-.424a14.314 14.314 0 0 1-3.486-.208c.935-1.147 1.87-2.3 2.8-3.45a.8.8 0 0 0 .059-.068c.474-.587.953-1.17 1.427-1.757a20.969 20.969 0 0 0-.614-5.342Z"/><path fill="#ffb6b6" d="m199.876 139.018 4.519-4.3-14.438-19.482-6.669 6.347Z"/><path fill="#2f2e41" d="m195.455 137.326 6.809-7.3 2.944 3.093 11.375-1.792a2.667 2.667 0 0 1 2.254 4.567l-8.595 8.18-4.393-1.649 2.333 3.61-3.241 3.084ZM199.104 124.339l-6.217 8.478c-5.262-2.8-22.055-13.927-34.919-19.753-8.314-3.775-14.728-6.646-14.728-6.646s-.865 1.226-2.244 3.154c-5.047 7.065-16.966 23.505-18.1 22.9-1.441-.774-3.075.61-2.871 3.448.147 2.069-3.352 3.578-5.262 4.25-.718.249-1.209.384-1.209.384-.328.209-.656.418-.978.616a26.823 26.823 0 0 1-31.141-2.261 27.133 27.133 0 0 1-10.077-20.081l-.752-17.52 25.433-1.13 4.527 8.6 8.031-6.545 17.582-14.327 6.42-5.234s-.17-.023.034-.791a15.356 15.356 0 0 1 2.515-1.085q.22-.076.441-.136c8.28-2.442 14.559 3.911 14.559 3.911s38.406 25.97 39.915 26.213 2.377 2.673 2.558 3.249c.175.543 2.58 3.607 3.659 3.533 3.367-.229 2.824 6.773 2.824 6.773Z"/><path fill="#ffb6b6" d="M122.861 71.87a5.075 5.075 0 0 0-3.131 2.977l-23.321-.128-12.41-17.16-9.221 4.083 15.008 27.193 32.854-7.329-.019-.069a5.086 5.086 0 1 0 .236-9.567Z"/><path fill="#e56969" d="m79.646 45.867-.484.071a9.78 9.78 0 0 0-8.3 10.87c.375 3 .593 5.686.265 6.22-.807 1.315-1.116 2.416.468 2.581s-1.717-.8 3.329.039 4.154-1.838 8.264-2.015 6.884.884 8.179-1.433 4.905-2.411 2.922-4.687-2.52-.31-4.127-5.136l-.048-.144a9.571 9.571 0 0 0-10.469-6.365Z"/><path fill="#8a8a8a" d="M66.032 39.876a18.773 18.773 0 0 1-1.91 1.628q-.3.229-.593.424c-5.737 3.883-11.4 2.221-15.813-1.831-6.822-6.273-10.653-18.272-7.115-24.365 7.924-9.664 18.21-7.59 24.461-1.023 6.07 6.373 8.338 16.973.97 25.167Z"/><path fill="#f2f2f2" d="M90.935 47.922a41.83 41.83 0 0 0-1.469-.9q-.331-.449-.678-.882Z"/><path fill="#2f2e41" d="M77.076 22.286c7.527 5.726 15.909 10.282 17.489 16.583 0 0-.946-9.9 3.468-8.024 7.418 3.153 4.908-13.994 2.828-16.8-3.467-4.673-15.157-7.329-15.157-7.329l-8.293 4.553Z"/><path fill="#8a8a8a" d="M111.736 201.112a2.243 2.243 0 0 0 2.161 1.514l9.26-.238a2.212 2.212 0 0 0 2.091-1.628l1.31-14.012a3.424 3.424 0 0 0 1.481.3 3.377 3.377 0 0 0-.169-6.752 2.86 2.86 0 0 0-.607.063 2.289 2.289 0 0 0-1.7-.735l-14.244.368a2.044 2.044 0 0 0-.351.044 2.225 2.225 0 0 0-1.7 2.889Zm15.091-15.316.932-3.339a2.275 2.275 0 0 0 .007-1.18c.045 0 .085-.021.13-.022a2.416 2.416 0 0 1 .113 4.83 2.274 2.274 0 0 1-1.183-.289Z"/><path fill="#fff" d="M110.961 180.039c.3 1.735 3.715 2.955 7.818 2.743 3.772-.174 6.857-1.5 7.422-3.068a2.106 2.106 0 0 0-.645-.086l-14.244.368a2.044 2.044 0 0 0-.351.044Z"/><circle cx="12.999" cy="12.999" r="12.999" fill="#ffb6b6" transform="translate(77.183 3.236)"/><path fill="#2f2e41" d="m85.5 11.262-.5 2.2 8.744 1.991a3.225 3.225 0 0 1 1.075-2.348 5.494 5.494 0 0 0 .063 2.607c4.716 2.646 4.445 3.584 8.256 2.909a2 2 0 0 0 2.39-1.5c1.534-6.736 2.037-13.621-4.666-15.293a12.617 12.617 0 0 0-15.363 9.441Z"/><path fill="#ccc" d="M151.879 92.989a.556.556 0 0 0-.106-.1 1.138 1.138 0 0 0-.348-.272l-.951-.509-6.315-7.01a1.586 1.586 0 0 0-1.186-.113h-.016l-2.705.837-2.327.722-3.25 1.007-22.135 6.854-14.55 4.5a1.574 1.574 0 0 0-1.034 1.949 1.638 1.638 0 0 0 .332.59l.463.515.971 1.082 2.25 4.663.624.7a1.568 1.568 0 0 0 1.62.454l47.935-13.329a1.6 1.6 0 0 0 .729-2.547Z"/><path fill="#ccc" d="m149.033 23.64-.928.15a.977.977 0 0 0-.633.393l-.409.572-3.689 9.225a.977.977 0 0 0-.168.728l.432 2.628-1.633 46.912a.988.988 0 0 0 .365.613l7.162 9.581.167.133.361.282a.992.992 0 0 0 .648.206l.609-.029a.978.978 0 0 0 .715-.365.963.963 0 0 0 .2-.774l-2.078-69.453a.975.975 0 0 0-1.12-.8Z"/><path fill="#e56969" d="m147.479 27.285-3.268 9.955-1.264 39.761 5.087 4.521ZM82.578 32.444l-4.177-1.957-4.112 7.157s-11.044 15.761-11.2 27.131 1.8 14.751 1.8 14.751-4.762 3.56-2.381 5.736 7.652 3.115 3.6 4.059-3.023 10.494 1.5 12.19 28.8 1.681 28.8 1.681a4.324 4.324 0 0 1 1.068-4.258c1.882-1.887 3.578-.533 1.882-3.471s-4.521-1.242-2.261-5.2 2.26-5.138 2.26-5.138-1.212-27.9-8.154-37.41l.148-.262a15.318 15.318 0 0 0-8.773-15.009Z"/><path fill="#2f2e41" d="M87.64 20.028a13 13 0 0 1 18.008-8.97 7.93 7.93 0 0 0-3.469-4.278l-9.842-4.273c-4.855-1.105-12.54-4.242-16.047-1.238-3.231 2.76-1.658 8.162-4.633 11.187-3.26 3.316-3.537 7.236-2.613 9.491 1.07 2.609 3.21 6.168 5.88 6.938a3.95 3.95 0 0 1 1.293-2.372 6.763 6.763 0 0 0-.049 2.661l16.169 12.9c-1.51-1.313-2.8-4.7-3.683-8.509-.524-2.256-3.654-3.048-1.116-6.877s-.243-5.147.102-6.66Z"/><path fill="#8a8a8a" d="M81.598 150.014h5.652v44.648a2.826 2.826 0 0 1-2.826 2.826 2.826 2.826 0 0 1-2.826-2.826Z"/><path fill="#8a8a8a" d="m65.196 202.136 7.908-10.489c2.509-3.328 4.915-6.788 7.566-10a7.109 7.109 0 0 1 3.429-2.664 2.876 2.876 0 0 1 1.662.07 5.165 5.165 0 0 1 1.717 1.006 14.32 14.32 0 0 1 2.893 3.745 76.134 76.134 0 0 1 2.75 5.26 77.249 77.249 0 0 1 4.68 12.644 1.7 1.7 0 0 0 3.27-.9 82.561 82.561 0 0 0-4.531-12.4q-1.343-2.934-2.923-5.751a20.274 20.274 0 0 0-3.285-4.567 8.364 8.364 0 0 0-4.971-2.542 7.289 7.289 0 0 0-5.44 1.986 27.652 27.652 0 0 0-3.855 4.592l-4.206 5.579-9.591 12.72a1.706 1.706 0 0 0 .608 2.32 1.737 1.737 0 0 0 2.32-.608Z"/><path fill="#ffb6b6" d="M119.464 88.976a5.075 5.075 0 0 0-3.911 1.836l-22.087-7.487-6.351-20.2-10.039.961 5.652 30.541 33.487 3.422v-.071a5.086 5.086 0 1 0 3.245-9Z"/><path fill="#e56969" d="m86.669 50.655-.482-.086a9.779 9.779 0 0 0-11.308 7.692c-.592 2.965-1.234 5.582-1.713 5.985-1.181.992-1.822 1.94-.371 2.6s-1.375-1.306 3.146 1.088 4.521-.432 8.478.7 6.253 3.013 8.213 1.224 5.416-.739 4.253-3.525-2.293-1.09-2.293-6.177v-.152a9.571 9.571 0 0 0-7.922-9.346Z"/><ellipse cx="22.324" cy="3.674" fill="#e6e6e6" rx="22.324" ry="3.674" transform="translate(220.016 139.599)"/><path fill="#3f3d56" d="M264.78 122.057a22.262 22.262 0 0 1-5.488 14.672 21.841 21.841 0 0 1-2.917 2.795 22.172 22.172 0 0 1-5.272 3.144h-17.362a22.173 22.173 0 0 1-5.271-3.144 21.838 21.838 0 0 1-2.917-2.795 22.6 22.6 0 0 1-2.714-3.881 22.359 22.359 0 1 1 41.813-13.2 22.008 22.008 0 0 1 .128 2.409Z"/><path fill="#e56969" d="M259.292 136.729a21.845 21.845 0 0 1-2.917 2.795H228.47a21.838 21.838 0 0 1-2.917-2.795ZM264.651 119.646c-4.671 7.249-13.268 12.873-23.734 14.582a37.429 37.429 0 0 1-18.078-1.38 22.359 22.359 0 1 1 41.813-13.2Z"/><path d="M264.651 119.646c-4.671 7.249-13.268 12.873-23.734 14.582a37.429 37.429 0 0 1-18.078-1.38 22.359 22.359 0 1 1 41.813-13.2Z"/><path fill="#ffb6b6" d="m191.855 153.792 4.954-3.791-12.268-20.918-7.312 5.6Z"/><path fill="#2f2e41" d="m187.642 151.635 7.553-6.529 2.6 3.391 11.5-.562a2.667 2.667 0 0 1 1.751 4.782l-9.422 7.211-4.191-2.111 1.933 3.839-3.553 2.719ZM192.662 139.115l-7.09 7.762c-4.931-3.351-20.434-16.212-32.6-23.385-7.861-4.645-13.93-8.188-13.93-8.188s-.991 1.127-2.569 2.895c-5.776 6.482-19.39 21.55-20.454 20.821-1.35-.924-3.122.277-3.224 3.12-.076 2.072-3.716 3.2-5.687 3.661-.74.17-1.244.252-1.244.252-.348.173-.7.345-1.038.508a26.823 26.823 0 0 1-30.719-5.588 27.133 27.133 0 0 1-7.865-21.046l1.132-17.5 25.407 1.6 3.579 9.032 8.687-5.645 19.018-12.359 6.945-4.515s-.166-.041.119-.783a15.362 15.362 0 0 1 2.617-.809q.227-.052.453-.088c8.494-1.539 14.055 5.45 14.055 5.45s35.4 29.94 36.873 30.344 2.077 2.912 2.195 3.5c.116.558 2.178 3.862 3.259 3.905 3.372.152 2.081 7.056 2.081 7.056Z"/><path fill="#8a8a8a" d="M78.221 159.002c-5.318-11.383-44.1-.379-46.649-25.252-.7-7.24 4.725-13.5 9.879-18.628 36.663-25.354-34.922-44.089-7.11-69.12a65.685 65.685 0 0 1 13.372-5.906c6.437-1.893 11.241-1.543 14.881.435a13.412 13.412 0 0 1 1.526.972c15.949 11.784 6.3 59.394 23.042 74.179 6.375 5.03 34.571 14.774 39.1 22.369a6.084 6.084 0 0 1 .322.633c1.549 2.981-33.395 11.1-30.519 18.085 3.955 9.609-18.184 23.616-17.844 2.233Z"/><path fill="#ccc" d="M0 202.797a.671.671 0 0 0 .673.673h368.654a.673.673 0 1 0 0-1.345H.673a.671.671 0 0 0-.673.673Z"/><path fill="#8a8a8a" d="M109.062 99.379c0 3.59 3.031 10.481-14.694 10.481s-49.495-6.891-49.495-10.481 14.369-6.5 32.095-6.5 32.094 2.91 32.094 6.5Z"/></g></svg>