<?xml version="1.0" encoding="UTF-8" standalone="no"?>
<svg
   width="385"
   height="429.8"
   viewBox="0 0 385 429.8"
   version="1.1"
   id="svg84"
   sodipodi:docname="what-2.svg"
   inkscape:version="1.1.2 (0a00cf5339, 2022-02-04)"
   xmlns:inkscape="http://www.inkscape.org/namespaces/inkscape"
   xmlns:sodipodi="http://sodipodi.sourceforge.net/DTD/sodipodi-0.dtd"
   xmlns="http://www.w3.org/2000/svg"
   xmlns:svg="http://www.w3.org/2000/svg">
  <defs
     id="defs88" />
  <sodipodi:namedview
     id="namedview86"
     pagecolor="#ffffff"
     bordercolor="#666666"
     borderopacity="1.0"
     inkscape:pageshadow="2"
     inkscape:pageopacity="0.0"
     inkscape:pagecheckerboard="0"
     showgrid="false"
     inkscape:zoom="1.819451"
     inkscape:cx="173.40396"
     inkscape:cy="283.32722"
     inkscape:window-width="1920"
     inkscape:window-height="958"
     inkscape:window-x="0"
     inkscape:window-y="0"
     inkscape:window-maximized="1"
     inkscape:current-layer="svg84" />
  <g
     id="g1115"
     transform="matrix(1.0300443,0,0,1.585336,-0.00177041,-278.88885)">
    <ellipse
       style="fill:#fefaf9"
       id="path837"
       transform="scale(1,-1)"
       ry="84.960808"
       rx="96.826942"
       cy="-387.23001"
       cx="157.772" />
  </g>
  <g
     transform="translate(7.5)"
     id="g82">
    <path
       style="fill:#fefaf9;stroke-width:1.31187"
       id="path1312"
       transform="scale(1,-1)"
       sodipodi:type="arc"
       sodipodi:cx="151.43359"
       sodipodi:cy="-366.70041"
       sodipodi:rx="86.557999"
       sodipodi:ry="92.821823"
       sodipodi:start="0"
       sodipodi:end="0.0078044565"
       sodipodi:arc-type="slice"
       d="m 237.99159,-366.70041 a 86.557999,92.821823 0 0 1 -0.003,0.72442 l -86.55537,-0.72442 z" />
    <g
       transform="translate(0.475 37.094)"
       id="g8">
      <path
         d="M329.4,37.094H50.078A18.821,18.821,0,0,0,31.5,56.114v195.96a18.821,18.821,0,0,0,18.578,19.02H329.4a18.821,18.821,0,0,0,18.578-19.02V56.114A18.821,18.821,0,0,0,329.4,37.094Z"
         transform="translate(-0.475 -37.094)"
         fill="#f2f2f2"
         id="path4" />
      <path
         d="M298.373,52.188H19.054A18.821,18.821,0,0,0,.475,71.208v195.96a18.821,18.821,0,0,0,18.578,19.02H298.373a18.821,18.821,0,0,0,18.578-19.02V71.208a18.821,18.821,0,0,0-18.578-19.02ZM315,209.492c0,41.254-32.666,74.7-72.962,74.7H19.054a16.826,16.826,0,0,1-16.625-17.02V71.208a16.826,16.826,0,0,1,16.625-17.02H298.373A16.826,16.826,0,0,1,315,71.208Z"
         transform="translate(-0.475 -37.094)"
         fill="#919095"
         id="path6" />
    </g>
    <g
       transform="translate(39.629 136.674)"
       id="g16">
      <path
         d="M41.321,243.721l-1.692-1.065c1.1-1.749,2.235-3.443,3.373-5.038l1.628,1.162c-1.116,1.563-2.229,3.225-3.309,4.941Z"
         transform="translate(-39.629 -140.188)"
         fill="#ccc"
         id="path10" />
      <path
         d="M52.349,229.468l-1.432-1.4a58.476,58.476,0,0,1,9.546-7.98l1.1,1.669A56.459,56.459,0,0,0,52.349,229.468Zm49.9-12.624a38.213,38.213,0,0,1-6.193-.572l.323-1.974a35.782,35.782,0,0,0,5.87.546,27.08,27.08,0,0,0,5.921-.662l.432,1.953A29.083,29.083,0,0,1,102.245,216.844Zm-29.926-.265-.6-1.907a42.143,42.143,0,0,1,6.615-1.51,38.9,38.9,0,0,1,5.624-.414h.123v2h-.123a36.888,36.888,0,0,0-5.337.393,40.142,40.142,0,0,0-6.3,1.438Zm47.671-5.78-1.278-1.538a40.141,40.141,0,0,0,6.833-8l.835-1.167L128,201.263l-.831,1.16A41.652,41.652,0,0,1,119.99,210.8Zm16.039-18.338-1.23-1.577a36.722,36.722,0,0,1,9.311-5.211q.912-.359,1.747-.643l.646,1.893c-.53.181-1.082.384-1.66.611A34.74,34.74,0,0,0,136.029,192.462Zm24.145-6.947c-.673,0-1.311-.006-1.924-.013l.023-2c.627.007,1.281.009,1.974.013a84.565,84.565,0,0,0,10.127-.587l.23,1.986a87.762,87.762,0,0,1-10.431.6Zm22.6-2.619-.4-1.96c3.592-.727,7.771-1.591,11.908-2.659l.5,1.937c-4.184,1.08-8.394,1.951-12.012,2.682Zm23.793-6.474-.748-1.855a56.3,56.3,0,0,0,10.646-5.575l1.121,1.656a58.265,58.265,0,0,1-11.018,5.773Zm20.208-14.291-1.623-1.169c.558-.774,1.041-1.53,1.507-2.26a25.787,25.787,0,0,1,6.192-7.124l.237-.19,1.239,1.569-.22.176a23.8,23.8,0,0,0-5.763,6.645C227.86,160.532,227.362,161.311,226.771,162.131Zm17.942-15-.729-1.862a66.559,66.559,0,0,1,11.966-3.343l.369,1.966a64.609,64.609,0,0,0-11.605,3.239Z"
         transform="translate(-39.629 -140.188)"
         fill="#ccc"
         id="path12" />
      <path
         d="M268.543,142.423l-.125-2c1.943-.122,3.975-.2,6.039-.239l.036,2C272.459,142.224,270.457,142.3,268.543,142.423Z"
         transform="translate(-39.629 -140.188)"
         fill="#ccc"
         id="path14" />
    </g>
    <g
       transform="translate(33.003 73.859)"
       id="g24">
      <path
         d="M63.624,73.859H35.563a2.565,2.565,0,0,0,0,5.13h28.06a2.565,2.565,0,0,0,0-5.13Z"
         transform="translate(-33.003 -73.859)"
         fill="#e6e6e6"
         id="path18" />
      <path
         d="M110.623,73.859H82.563a2.565,2.565,0,0,0,0,5.13h28.06a2.565,2.565,0,0,0,0-5.13Z"
         transform="translate(-33.003 -73.859)"
         fill="#e6e6e6"
         id="path20" />
      <path
         d="M157.623,73.859h-28.06a2.565,2.565,0,0,0,0,5.13h28.06a2.565,2.565,0,0,0,0-5.13Z"
         transform="translate(-33.003 -73.859)"
         fill="#e6e6e6"
         id="path22" />
    </g>
    <rect
       width="255"
       height="2"
       transform="translate(32.975 237.531)"
       fill="#e6e6e6"
       id="rect26" />
    <path
       d="M274.505,96.188c-18.15.47-31.69,5.81-40.27,15.85a34.675,34.675,0,0,0-5.82,9.75,43.055,43.055,0,0,1-5.94,10.32v-3.4a44.509,44.509,0,0,0,4.11-7.73,36.1,36.1,0,0,1,6.13-10.23c8.96-10.5,23-16.07,41.73-16.56l.06,2Z"
       transform="translate(-4.907 -1.974)"
       fill="#ccc"
       id="path28" />
    <path
       d="M228.415,121.788a43.055,43.055,0,0,1-5.94,10.32q-.57.735-1.23,1.53c-11.58,13.77-27.05,18.29-39.49,21.93-.78.23-1.54.44-2.28.64-11.06,3-17.12,2.89-21.63,2.82-4.53-.08-7.52-.13-12.87,2.93-9.81,5.59-13.83,13.77-17.72,21.68-4.01,8.14-7.79,15.83-17.43,19.44-6.69,2.5-11.39,1.26-16.36-.04-4.27-1.13-11.966-28.944-18.78-33-14.07,2.95-22.62,48.93-33.29,73.55l-1.84-.8c10.95-25.24,19.97-71.61,34.71-74.71,6.57-1.38,15.22,31.84,19.71,33.02,4.66,1.23,9.05,2.38,15.15.1,8.9-3.32,12.34-10.33,16.33-18.44,3.84-7.8,8.19-16.64,18.52-22.54,5.83-3.33,9.22-3.27,13.9-3.19,4.46.08,10.48.18,21.6-2.89.56-.16,1.13-.32,1.72-.49,12.18-3.56,27.33-7.99,38.51-21.29a43.078,43.078,0,0,0,2.77-3.65,44.509,44.509,0,0,0,4.11-7.73c1.42-3.24,3.19-2.29,1.83.81Z"
       transform="translate(0 -3.182)"
       fill="#e56969"
       id="path30" />
    <g
       transform="translate(84.804 169.328)"
       id="g36">
      <path
         d="M121.776,350.568a16.334,16.334,0,0,0-3.761-6.785l-5.864-26.73L99.37,320.184l7.324,26.778a16.208,16.208,0,0,0,.406,7.727c1.808,6.3,6.56,10.479,10.612,9.341s5.872-7.165,4.063-13.462h0Z"
         transform="translate(-86.628 -175.226)"
         fill="#ffb6b6"
         id="path32" />
      <path
         d="M120.008,175.227s-20.184-.413-25.317,14.285c-4.672,13.379-10.209,50.135-7.216,52.259l12.743,90.485,18.171-2.5-4.663-108.569,6.282-45.965Z"
         transform="translate(-86.628 -175.226)"
         fill="#e56969"
         id="path34" />
    </g>
    <path
       d="M213.475,343.188l-3.58,95H162.4l-1.92-42.57-8.44,42.57h-50.91l6.35-73.18,6.56-15.39,4.44-10.43Z"
       transform="translate(-2.708 -8.388)"
       fill="#2f2e41"
       id="path38" />
    <path
       d="M175.475,157.188l-33-2-11,14-24,9,11,107-5,64s70,56,100-6l-8-75,2-87-23-10-9-14Z"
       fill="#e56969"
       id="path40"
       transform="translate(-2.814 -5.89)" />
    <g
       transform="translate(180.967 116.1)"
       id="g46">
      <path
         d="M239.006,132.849a19.93,19.93,0,0,1-1.144,9.341l5.5,32.812-15.69,2.159-3.887-33.517a19.929,19.929,0,0,1-3.029-8.911c-.818-7.92,2.6-14.763,7.645-15.283s9.789,5.478,10.607,13.4h0Z"
         transform="translate(-185.191 -119.419)"
         fill="#ffb6b6"
         id="path42" />
      <path
         d="M211.677,184.945c-5.409-9.245-18.826-10.116-24.835-1.25-1.643,2.424-1.185,5.148-1.577,8.422-1.665,13.9,24.964,54.96,43.39,59.688,2.418.62,3.8,3.229,6.236,3.753h0a11.227,11.227,0,0,0,13.57-11.569l-5.005-94.708-21.027,7.172,1.346,49.171-12.1-20.678Z"
         transform="translate(-185.191 -119.419)"
         fill="#e56969"
         id="path44" />
    </g>
    <g
       transform="translate(124.179 83.698)"
       id="g52">
      <circle
         cx="29.068"
         cy="29.068"
         r="29.068"
         transform="translate(6.212 8.831)"
         fill="#ffb6b6"
         id="circle48" />
      <path
         d="M189.475,102.188a54.383,54.383,0,0,1,4-4c4-2-.11,17.55-3,17-7.11-1.35-10.18-4.03-12.94,2.66-.77,1.86-1.25,3.96-2.75,5.29-2.06,1.81-5.48,1.66-7.16,3.82-1.35,1.74-.96,4.3.04,6.26s2.52,3.64,3.43,5.65c1.02,2.26-3.33,9.45-4.99,13.49v.01l-.01.024c-.441,1.06-1.489-1.993-2.6-2.3-1.324-.365-3.275,2.762-5.384,2.194-.01,0-.02-.01-.03-.01-2.01-.56-4.25-1.16-6.47-1.76h-.01c-6.25-1.7-7.83.74-8.13.67l-3.88-4.06c-1.332-.969-1.181-4.1-2.12-4.94-.768-.687-2.682.9-3.246.24-2.766-3.24-3.4-6.481-5.034-12.88-1.49-5.85-4.58-23.36,1.77-24.15,5.99-.75,1.61-9.09,7.64-8.78a4.761,4.761,0,0,1,1.4-4.27,11.313,11.313,0,0,1,3.97-2.43c7.15-2.92,5.96-5.43,13.5-3.73.75-1.05,11.64-.35,13,0,.1.02-3.37.85,2,0-.2,1.23,3.2,1.77,3,3,.75-1.01,8.81,4.79,9,6,.25,1.51-2.03.74-.51.97.9.14,2.44,1.97,2.29,2.88.65-.88,1.3-1.75,1.96-2.63.12.01.23.03.35.05,3.04.58-.445,10.518-.32,7.42.23-5.69,4.26-2.36,1.23-1.69Z"
         transform="translate(-127.12 -85.633)"
         fill="#2f2e41"
         id="path50" />
    </g>
    <path
       d="M300.835,256.9a.657.657,0,0,0,1.221,0,55.778,55.778,0,0,1,6.2-11.455.661.661,0,0,0-.762-1.01l-5.183,1.875V214.224h-1.735v32.087l-5.185-1.875a.661.661,0,0,0-.762,1.01,55.83,55.83,0,0,1,6.2,11.455Z"
       transform="translate(-7.524 -4.548)"
       fill="#3f3d56"
       id="path54" />
    <path
       d="M334.826,289.937a.657.657,0,0,0,.956.759,55.78,55.78,0,0,1,11.981-5.113.661.661,0,0,0,.031-1.264l-5.225-1.755,19.955-25.127-1.359-1.079L341.21,281.485l-2.894-4.693a.661.661,0,0,0-1.224.317,55.83,55.83,0,0,1-2.266,12.829Z"
       transform="translate(-7.524 -5.326)"
       fill="#3f3d56"
       id="path56" />
    <g
       transform="translate(270.24 259.756)"
       id="g72">
      <path
         d="M318.593,311.349H284.872a3.8,3.8,0,0,1-3.8-3.8,57.1,57.1,0,0,1,0-38.323,3.8,3.8,0,0,1,3.8-3.8h33.721a3.8,3.8,0,0,1,3.8,3.8v38.323A3.8,3.8,0,0,1,318.593,311.349Z"
         transform="translate(-277.764 -265.432)"
         fill="#979797"
         id="path58" />
      <path
         d="M292.1,266.563a9.891,9.891,0,0,0-9.891,9.891v30.285a3.479,3.479,0,0,0,3.479,3.479h18.648a16.926,16.926,0,0,0,16.926-16.926v-23.25a3.479,3.479,0,0,0-3.479-3.479H292.1Z"
         transform="translate(-277.764 -265.432)"
         fill="#fff"
         id="path60" />
      <g
         transform="translate(6.84 10.824)"
         id="g68">
        <path
           d="M309.585,277.7H293.8a.722.722,0,1,1,0-1.444h15.788a.722.722,0,0,1,0,1.444Z"
           transform="translate(-284.603 -276.256)"
           fill="#e6e6e6"
           id="path62" />
        <path
           d="M309.585,293.093H293.8a.722.722,0,1,1,0-1.444h15.788a.722.722,0,0,1,0,1.444Z"
           transform="translate(-284.603 -276.256)"
           fill="#e6e6e6"
           id="path64" />
        <path
           d="M318.057,285.4H285.325a.722.722,0,1,1,0-1.444h32.732a.722.722,0,0,1,0,1.444Z"
           transform="translate(-284.603 -276.256)"
           fill="#e6e6e6"
           id="path66" />
      </g>
      <path
         d="M318.443,299.351H304.785a.722.722,0,1,1,0-1.444h13.658a.722.722,0,0,1,0,1.444Z"
         transform="translate(-277.764 -265.432)"
         fill="#e6e6e6"
         id="path70" />
    </g>
    <g
       id="g80"
       transform="translate(0)">
      <ellipse
         cx="12.463"
         cy="12.201"
         rx="12.463"
         ry="12.201"
         transform="translate(0 0.321)"
         fill="#e56969"
         id="ellipse74" />
      <path
         d="M112.376,8.348H45.291a4.174,4.174,0,0,1,0-8.348h67.085a4.174,4.174,0,0,1,0,8.348Z"
         fill="#f2f2f2"
         id="path76"
         transform="translate(0)" />
      <path
         d="M164.729,22.475H45.291a4.174,4.174,0,1,1,0-8.348H164.729a4.174,4.174,0,0,1,0,8.348Z"
         fill="#f2f2f2"
         id="path78"
         transform="translate(0)" />
    </g>
  </g>
</svg>
