<svg xmlns="http://www.w3.org/2000/svg" width="385" height="429.8"><ellipse cx="157.772" cy="-387.23" rx="96.827" ry="84.961" style="fill:#fefaf9" transform="matrix(1.03004 0 0 -1.58534 -.002 -278.889)"/><path d="M237.992-366.7a86.558 92.822 0 0 1-.003.724l-86.556-.724z" style="fill:#fefaf9;stroke-width:1.31187" transform="matrix(1 0 0 -1 7.5 0)"/><path fill="#f2f2f2" d="M336.9 37.094H57.578A18.821 18.821 0 0 0 39 56.114v195.96a18.821 18.821 0 0 0 18.578 19.02H336.9a18.821 18.821 0 0 0 18.578-19.02V56.114a18.821 18.821 0 0 0-18.578-19.02Z"/><path fill="#919095" d="M305.873 52.188H26.554a18.821 18.821 0 0 0-18.579 19.02v195.96a18.821 18.821 0 0 0 18.578 19.02h279.32a18.821 18.821 0 0 0 18.578-19.02V71.208a18.821 18.821 0 0 0-18.578-19.02ZM322.5 209.492c0 41.254-32.666 74.7-72.962 74.7H26.554a16.826 16.826 0 0 1-16.625-17.02V71.208a16.826 16.826 0 0 1 16.625-17.02h279.319a16.826 16.826 0 0 1 16.627 17.02Z"/><g fill="#ccc"><path d="m48.821 240.207-1.692-1.065c1.1-1.749 2.235-3.443 3.373-5.038l1.628 1.162a102.461 102.461 0 0 0-3.309 4.941ZM59.849 225.954l-1.432-1.4a58.476 58.476 0 0 1 9.546-7.98l1.1 1.669a56.459 56.459 0 0 0-9.214 7.711Zm49.9-12.624a38.213 38.213 0 0 1-6.193-.572l.323-1.974a35.782 35.782 0 0 0 5.87.546 27.08 27.08 0 0 0 5.921-.662l.432 1.953a29.083 29.083 0 0 1-6.357.709Zm-29.926-.265-.6-1.907a42.143 42.143 0 0 1 6.615-1.51 38.9 38.9 0 0 1 5.624-.414h.123v2h-.123a36.888 36.888 0 0 0-5.337.393 40.142 40.142 0 0 0-6.3 1.438Zm47.671-5.78-1.278-1.538a40.141 40.141 0 0 0 6.833-8l.835-1.167 1.616 1.169-.831 1.16a41.652 41.652 0 0 1-7.179 8.377Zm16.039-18.338-1.23-1.577a36.722 36.722 0 0 1 9.311-5.211q.912-.359 1.747-.643l.646 1.893c-.53.181-1.082.384-1.66.611a34.74 34.74 0 0 0-8.818 4.928ZM167.678 182c-.673 0-1.311-.006-1.924-.013l.023-2c.627.007 1.281.009 1.974.013a84.565 84.565 0 0 0 10.127-.587l.23 1.986a87.762 87.762 0 0 1-10.431.6Zm22.6-2.619-.4-1.96c3.592-.727 7.771-1.591 11.908-2.659l.5 1.937c-4.184 1.08-8.394 1.951-12.012 2.682Zm23.793-6.474-.748-1.855a56.3 56.3 0 0 0 10.646-5.575l1.121 1.656a58.265 58.265 0 0 1-11.018 5.773Zm20.208-14.291-1.623-1.169a47.16 47.16 0 0 0 1.507-2.26 25.787 25.787 0 0 1 6.192-7.124l.237-.19 1.239 1.569-.22.176a23.8 23.8 0 0 0-5.763 6.645c-.488.755-.986 1.534-1.577 2.354Zm17.942-15-.729-1.862a66.559 66.559 0 0 1 11.966-3.343l.369 1.966a64.609 64.609 0 0 0-11.605 3.239ZM276.043 138.909l-.125-2c1.943-.122 3.975-.2 6.039-.239l.036 2c-2.034.04-4.036.116-5.95.239Z"/></g><g fill="#e6e6e6"><path d="M71.124 73.859H43.063a2.565 2.565 0 0 0 0 5.13h28.06a2.565 2.565 0 0 0 0-5.13ZM118.123 73.859h-28.06a2.565 2.565 0 0 0 0 5.13h28.06a2.565 2.565 0 0 0 0-5.13ZM165.123 73.859h-28.06a2.565 2.565 0 0 0 0 5.13h28.06a2.565 2.565 0 0 0 0-5.13Z"/></g><path fill="#e6e6e6" d="M40.475 237.531h255v2h-255z"/><path fill="#ccc" d="M277.098 94.214c-18.15.47-31.69 5.81-40.27 15.85a34.675 34.675 0 0 0-5.82 9.75 43.055 43.055 0 0 1-5.94 10.32v-3.4a44.509 44.509 0 0 0 4.11-7.73 36.1 36.1 0 0 1 6.13-10.23c8.96-10.5 23-16.07 41.73-16.56l.06 2Z"/><path fill="#e56969" d="M235.915 118.606a43.055 43.055 0 0 1-5.94 10.32q-.57.735-1.23 1.53c-11.58 13.77-27.05 18.29-39.49 21.93-.78.23-1.54.44-2.28.64-11.06 3-17.12 2.89-21.63 2.82-4.53-.08-7.52-.13-12.87 2.93-9.81 5.59-13.83 13.77-17.72 21.68-4.01 8.14-7.79 15.83-17.43 19.44-6.69 2.5-11.39 1.26-16.36-.04-4.27-1.13-11.966-28.944-18.78-33-14.07 2.95-22.62 48.93-33.29 73.55l-1.84-.8c10.95-25.24 19.97-71.61 34.71-74.71 6.57-1.38 15.22 31.84 19.71 33.02 4.66 1.23 9.05 2.38 15.15.1 8.9-3.32 12.34-10.33 16.33-18.44 3.84-7.8 8.19-16.64 18.52-22.54 5.83-3.33 9.22-3.27 13.9-3.19 4.46.08 10.48.18 21.6-2.89.56-.16 1.13-.32 1.72-.49 12.18-3.56 27.33-7.99 38.51-21.29a43.078 43.078 0 0 0 2.77-3.65 44.509 44.509 0 0 0 4.11-7.73c1.42-3.24 3.19-2.29 1.83.81Z"/><path fill="#ffb6b6" d="M127.452 344.67a16.334 16.334 0 0 0-3.761-6.785l-5.864-26.73-12.781 3.131 7.324 26.778a16.208 16.208 0 0 0 .406 7.727c1.808 6.3 6.56 10.479 10.612 9.341s5.872-7.165 4.063-13.462Z"/><path fill="#e56969" d="M125.684 169.329s-20.184-.413-25.317 14.285c-4.672 13.379-10.209 50.135-7.216 52.259l12.743 90.485 18.171-2.5-4.663-108.569 6.282-45.965Z"/><path fill="#2f2e41" d="m218.267 334.8-3.58 95h-47.495l-1.92-42.57-8.44 42.57h-50.91l6.35-73.18 6.56-15.39 4.44-10.43Z"/><path fill="#e56969" d="m180.161 151.298-33-2-11 14-24 9 11 107-5 64s70 56 100-6l-8-75 2-87-23-10-9-14Z"/><path fill="#ffb6b6" d="M242.282 129.53a19.93 19.93 0 0 1-1.144 9.341l5.5 32.812-15.69 2.159-3.887-33.517a19.929 19.929 0 0 1-3.029-8.911c-.818-7.92 2.6-14.763 7.645-15.283s9.789 5.478 10.607 13.4Z"/><path fill="#e56969" d="M214.953 181.626c-5.409-9.245-18.826-10.116-24.835-1.25-1.643 2.424-1.185 5.148-1.577 8.422-1.665 13.9 24.964 54.96 43.39 59.688 2.418.62 3.8 3.229 6.236 3.753a11.227 11.227 0 0 0 13.57-11.569l-5.005-94.708-21.027 7.172 1.346 49.171-12.1-20.678Z"/><g transform="translate(131.679 83.698)"><circle cx="29.068" cy="29.068" r="29.068" fill="#ffb6b6" transform="translate(6.212 8.831)"/><path fill="#2f2e41" d="M62.355 16.555a54.383 54.383 0 0 1 4-4c4-2-.11 17.55-3 17-7.11-1.35-10.18-4.03-12.94 2.66-.77 1.86-1.25 3.96-2.75 5.29-2.06 1.81-5.48 1.66-7.16 3.82-1.35 1.74-.96 4.3.04 6.26s2.52 3.64 3.43 5.65c1.02 2.26-3.33 9.45-4.99 13.49v.01l-.01.024c-.441 1.06-1.489-1.993-2.6-2.3-1.324-.365-3.275 2.762-5.384 2.194-.01 0-.02-.01-.03-.01-2.01-.56-4.25-1.16-6.47-1.76h-.01c-6.25-1.7-7.83.74-8.13.67l-3.88-4.06c-1.332-.969-1.181-4.1-2.12-4.94-.768-.687-2.682.9-3.246.24-2.766-3.24-3.4-6.481-5.034-12.88-1.49-5.85-4.58-23.36 1.77-24.15 5.99-.75 1.61-9.09 7.64-8.78a4.761 4.761 0 0 1 1.4-4.27 11.313 11.313 0 0 1 3.97-2.43c7.15-2.92 5.96-5.43 13.5-3.73.75-1.05 11.64-.35 13 0 .1.02-3.37.85 2 0-.2 1.23 3.2 1.77 3 3 .75-1.01 8.81 4.79 9 6 .25 1.51-2.03.74-.51.97.9.14 2.44 1.97 2.29 2.88.65-.88 1.3-1.75 1.96-2.63.12.01.23.03.35.05 3.04.58-.445 10.518-.32 7.42.23-5.69 4.26-2.36 1.23-1.69Z"/></g><path fill="#3f3d56" d="M300.811 252.352a.657.657 0 0 0 1.221 0 55.778 55.778 0 0 1 6.2-11.455.661.661 0 0 0-.762-1.01l-5.183 1.875v-32.086h-1.735v32.087l-5.185-1.875a.661.661 0 0 0-.762 1.01 55.83 55.83 0 0 1 6.2 11.455ZM334.802 284.611a.657.657 0 0 0 .956.759 55.78 55.78 0 0 1 11.981-5.113.661.661 0 0 0 .031-1.264l-5.225-1.755 19.955-25.127-1.359-1.079-19.955 25.127-2.894-4.693a.661.661 0 0 0-1.224.317 55.83 55.83 0 0 1-2.266 12.829Z"/><path fill="#979797" d="M318.569 305.673h-33.721a3.8 3.8 0 0 1-3.8-3.8 57.1 57.1 0 0 1 0-38.323 3.8 3.8 0 0 1 3.8-3.8h33.721a3.8 3.8 0 0 1 3.8 3.8v38.323a3.8 3.8 0 0 1-3.8 3.8Z"/><path fill="#fff" d="M292.076 260.887a9.891 9.891 0 0 0-9.891 9.891v30.285a3.479 3.479 0 0 0 3.479 3.479h18.648a16.926 16.926 0 0 0 16.926-16.926v-23.25a3.479 3.479 0 0 0-3.479-3.479h-25.683Z"/><g fill="#e6e6e6"><path d="M309.562 272.024h-15.785a.722.722 0 1 1 0-1.444h15.788a.722.722 0 0 1 0 1.444ZM309.562 287.417h-15.785a.722.722 0 1 1 0-1.444h15.788a.722.722 0 0 1 0 1.444ZM318.034 279.724h-32.732a.722.722 0 1 1 0-1.444h32.732a.722.722 0 0 1 0 1.444Z"/></g><path fill="#e6e6e6" d="M318.419 293.675h-13.658a.722.722 0 1 1 0-1.444h13.658a.722.722 0 0 1 0 1.444Z"/><g transform="translate(7.5)"><ellipse cx="12.463" cy="12.201" fill="#e56969" rx="12.463" ry="12.201" transform="translate(0 .321)"/><path fill="#f2f2f2" d="M112.376 8.348H45.291a4.174 4.174 0 0 1 0-8.348h67.085a4.174 4.174 0 0 1 0 8.348ZM164.729 22.475H45.291a4.174 4.174 0 1 1 0-8.348h119.438a4.174 4.174 0 0 1 0 8.348Z"/></g></svg>