<svg xmlns="http://www.w3.org/2000/svg" width="370" height="307.533" viewBox="0 0 370 307.533"><g transform="translate(-47.673 0)"><ellipse cx="153.5" cy="45" rx="153.5" ry="45" transform="translate(51.071 217.533)" fill="snow"/><path d="M850.6,460.791H741.7a14.96,14.96,0,0,1-14.943-14.943V274.078A14.96,14.96,0,0,1,741.7,259.135H850.6a14.96,14.96,0,0,1,14.943,14.943v171.77A14.96,14.96,0,0,1,850.6,460.791Z" transform="translate(-447.869 -216.546)" fill="#e6e6e6"/><path d="M862.423,276.933H751.517a4.684,4.684,0,0,0-4.678,4.678V455.62a4.685,4.685,0,0,0,4.678,4.678H862.423a4.684,4.684,0,0,0,4.678-4.678V281.611a4.684,4.684,0,0,0-4.678-4.677Z" transform="translate(-457.888 -225.427)" fill="#fff"/><path d="M761.9,258a1.145,1.145,0,0,1,1.143-1.143h7.774a1.143,1.143,0,0,1,0,2.286h-7.773A1.145,1.145,0,0,1,761.9,258Z" transform="translate(-465.402 -215.408)" fill="#e6e6e6"/><path d="M787.454,258a1.144,1.144,0,0,1,1.143-1.143h7.774a1.143,1.143,0,0,1,0,2.286H788.6A1.145,1.145,0,0,1,787.454,258Z" transform="translate(-478.154 -215.408)" fill="#e6e6e6"/><path d="M940.785,258a1.145,1.145,0,0,1,1.143-1.143H949.7a1.143,1.143,0,1,1,0,2.286h-7.773A1.145,1.145,0,0,1,940.785,258Z" transform="translate(-554.664 -215.408)" fill="#e6e6e6"/><path d="M822.339,547.445c0,1.2-.023,2.4-.078,3.585H751.517a4.685,4.685,0,0,1-4.678-4.678V458.767A89.827,89.827,0,0,1,822.339,547.445Z" transform="translate(-457.888 -316.159)" fill="#f2f2f2"/><rect width="30.732" height="7.061" rx="3.53" transform="translate(333.491 96.223)" fill="#e9d182"/><rect width="64.269" height="7.061" rx="3.53" transform="translate(316.723 110.344)" fill="#e6e6e6"/><rect width="64.269" height="7.061" rx="3.53" transform="translate(316.723 124.465)" fill="#e6e6e6"/><path d="M865.794,559.07a1.677,1.677,0,0,1-1.216-2.907l.115-.457-.046-.11a4.5,4.5,0,0,0-8.309.031c-1.359,3.273-3.089,6.552-3.515,10.012a13.324,13.324,0,0,0,.234,4.583,53.426,53.426,0,0,1-4.86-22.189,51.6,51.6,0,0,1,.32-5.753q.265-2.349.735-4.664A54.046,54.046,0,0,1,859.97,514.71a14.382,14.382,0,0,0,5.982-6.206,10.968,10.968,0,0,0,1-3c-.291.038-.587.062-.878.081l-.277.014-.034,0a1.662,1.662,0,0,1-1.365-2.707l.377-.464c.191-.239.387-.473.578-.711a.834.834,0,0,0,.062-.072c.22-.272.439-.539.659-.812a4.805,4.805,0,0,0-1.575-1.523c-2.2-1.289-5.237-.4-6.827,1.594a8.684,8.684,0,0,0-1.342,7.271,19.258,19.258,0,0,0,2.664,5.939c-.119.153-.243.3-.363.453a54.4,54.4,0,0,0-5.677,8.994,22.611,22.611,0,0,0-1.35-10.5c-1.292-3.117-3.714-5.742-5.847-8.437a4.641,4.641,0,0,0-8.266,2.279q-.007.06-.013.119.475.268.93.569a2.275,2.275,0,0,1-.917,4.14l-.046.007a22.652,22.652,0,0,0,.6,3.385,23.309,23.309,0,0,0,11.605,14.608c.186.1.368.191.554.282a55.521,55.521,0,0,0-2.989,14.064,52.663,52.663,0,0,0,.038,8.5l-.014-.1a13.914,13.914,0,0,0-4.75-8.035c-3.655-3-8.82-4.109-12.764-6.522a2.611,2.611,0,0,0-4,2.54l.016.105a15.274,15.274,0,0,1,1.714.826q.475.268.93.569a2.275,2.275,0,0,1-.917,4.14l-.046.007-.1.014a22.659,22.659,0,0,0,4.168,6.526,23.329,23.329,0,0,0,16.919,7.424h0a55.507,55.507,0,0,0,3.729,10.885H865.46c.048-.148.091-.3.134-.449a15.13,15.13,0,0,1-3.685-.22c.988-1.213,1.976-2.435,2.965-3.647a.843.843,0,0,0,.062-.072c.5-.621,1.007-1.236,1.508-1.857h0a22.169,22.169,0,0,0-.649-5.647Zm-15.252-30,.007-.009-.007.019Zm-2.95,26.6-.115-.258c0-.186,0-.372,0-.563,0-.053-.01-.105-.01-.158.043.329.081.659.129.988Z" transform="translate(-497.237 -336.091)" fill="#ccc"/><path d="M866.237,305.949H766.418a.826.826,0,1,1,0-1.652h99.819a.826.826,0,1,1,0,1.652Z" transform="translate(-467.245 -239.081)" fill="#cacaca"/><ellipse cx="2.428" cy="2.482" rx="2.428" ry="2.482" transform="translate(302.071 57.863)" fill="#3f3d56"/><ellipse cx="2.428" cy="2.482" rx="2.428" ry="2.482" transform="translate(310.458 57.863)" fill="#3f3d56"/><ellipse cx="2.428" cy="2.482" rx="2.428" ry="2.482" transform="translate(318.846 57.863)" fill="#3f3d56"/><path d="M952.866,291.535h-5.434a.411.411,0,1,0,0,.823h5.434a.411.411,0,1,0,0-.823Z" transform="translate(-557.775 -232.713)" fill="#3f3d56"/><path d="M952.866,294.618h-5.434a.411.411,0,1,0,0,.823h5.434a.411.411,0,1,0,0-.823Z" transform="translate(-557.775 -234.251)" fill="#3f3d56"/><path d="M952.866,297.7h-5.434a.411.411,0,1,0,0,.823h5.434a.411.411,0,1,0,0-.823Z" transform="translate(-557.775 -235.787)" fill="#3f3d56"/><path d="M574.725,458.9H516.852a3.088,3.088,0,0,0-3.083,3.091v91.421h64.046V461.988a3.089,3.089,0,0,0-3.091-3.091Zm-28.742,51.945a6.866,6.866,0,0,1-6.834-6.834V493.463a6.834,6.834,0,0,1,13.668,0v10.545a6.866,6.866,0,0,1-6.834,6.834Z" transform="translate(-341.59 -316.224)" fill="#e6e6e6"/><path d="M513.372,641.7v8.82a1.728,1.728,0,0,0,1.724,1.724h61a1.733,1.733,0,0,0,1.724-1.724V641.7Z" transform="translate(-341.391 -407.441)" fill="#ccc"/><path d="M572.343,174.129H324.962a8.03,8.03,0,0,0-8.018,8.018V349.081a8.025,8.025,0,0,0,8.018,8.018H572.343a8.025,8.025,0,0,0,8.018-8.018V182.147a8.031,8.031,0,0,0-8.018-8.018Z" transform="translate(-243.377 -174.129)" fill="#e6e6e6"/><path d="M576.051,185.688H332.8a4.3,4.3,0,0,0-4.288,4.3v162.8a4.3,4.3,0,0,0,4.288,4.288h243.25a4.3,4.3,0,0,0,4.288-4.288v-162.8a4.3,4.3,0,0,0-4.287-4.3Z" transform="translate(-249.15 -179.897)" fill="#fff"/><path d="M707.957,189.985v162.8a4.3,4.3,0,0,1-4.288,4.288H617.894a105.258,105.258,0,0,1-22.964-30.9q-.562-1.123-1.07-2.273a104.323,104.323,0,0,1-9.271-35.685c-.062-.758-.116-1.515-.151-2.282-.116-1.961-.169-3.949-.169-5.946a104.774,104.774,0,0,1,7.39-38.787c.294-.767.606-1.524.927-2.282a105.547,105.547,0,0,1,50.233-53.228h60.85A4.3,4.3,0,0,1,707.957,189.985Z" transform="translate(-376.768 -179.897)" fill="#e9d182"/><path d="M570.593,228.654H342.985a.905.905,0,1,1,0-1.81H570.593a.905.905,0,1,1,0,1.81Z" transform="translate(-255.919 -200.433)" fill="#cacaca"/><ellipse cx="5.305" cy="5.423" rx="5.305" ry="5.423" transform="translate(97.255 10.943)" fill="#3f3d56"/><ellipse cx="5.305" cy="5.423" rx="5.305" ry="5.423" transform="translate(115.58 10.943)" fill="#3f3d56"/><ellipse cx="5.305" cy="5.423" rx="5.305" ry="5.423" transform="translate(133.904 10.943)" fill="#3f3d56"/><path d="M762.212,198.655H749.2a.986.986,0,1,0,0,1.971h13.017a.986.986,0,1,0,0-1.971Z" transform="translate(-458.572 -186.367)" fill="#3f3d56"/><path d="M762.212,206.039H749.2a.986.986,0,1,0,0,1.971h13.017a.986.986,0,1,0,0-1.971Z" transform="translate(-458.572 -190.052)" fill="#3f3d56"/><path d="M762.212,213.414H749.2a.986.986,0,1,0,0,1.971h13.017a.986.986,0,1,0,0-1.971Z" transform="translate(-458.572 -193.732)" fill="#3f3d56"/><rect width="36.177" height="7.736" rx="3.868" transform="translate(122.753 81.1)" fill="#e9d182"/><rect width="72.923" height="7.736" rx="3.868" transform="translate(104.381 96.572)" fill="#e6e6e6"/><rect width="72.923" height="7.736" rx="3.868" transform="translate(104.381 112.043)" fill="#e6e6e6"/><path d="M359.483,482.492a26.577,26.577,0,0,1-1.676,9.333H332.8a4.3,4.3,0,0,1-4.288-4.288V456.087a26.414,26.414,0,0,1,4.225-.339,26.742,26.742,0,0,1,26.743,26.745Z" transform="translate(-249.15 -314.653)" fill="#e9d182"/><path d="M708.348,267.869v-2.282H670.1V239.138h-2.274v26.449H623.981V239.138h-2.273v26.449H592.754c-.321.758-.633,1.515-.927,2.282h29.881V312.6h-37.1c.036.767.089,1.524.151,2.282h36.951v35.685H594.029q.508,1.15,1.07,2.273h26.61v30h2.273v-30h43.841v30H670.1v-30h38.252v-2.273H670.1a35.685,35.685,0,0,1,35.685-35.685h2.567V312.6H670.1V267.869Zm-40.526,82.7H623.981V314.885h43.841Zm0-37.967H623.981v-.892a43.841,43.841,0,0,1,43.841-43.841h0Z" transform="translate(-376.936 -206.568)" opacity="0.2"/><path d="M713.39,408.671a2.382,2.382,0,0,1-1.726-4.129l.163-.649-.065-.156a6.4,6.4,0,0,0-11.8.044c-1.93,4.648-4.387,9.3-4.992,14.22a18.926,18.926,0,0,0,.332,6.509A75.874,75.874,0,0,1,688.4,393a73.239,73.239,0,0,1,.454-8.17q.376-3.336,1.044-6.624a76.754,76.754,0,0,1,15.221-32.531,20.426,20.426,0,0,0,8.5-8.814,15.583,15.583,0,0,0,1.417-4.258c-.414.054-.834.088-1.248.115l-.393.02-.049,0a2.36,2.36,0,0,1-1.938-3.845l.536-.659c.271-.339.549-.671.82-1.01a1.178,1.178,0,0,0,.088-.1c.312-.387.624-.766.936-1.153a6.825,6.825,0,0,0-2.237-2.163c-3.126-1.831-7.438-.563-9.7,2.264s-2.692,6.794-1.905,10.326a27.352,27.352,0,0,0,3.783,8.434c-.169.217-.346.427-.515.644a77.247,77.247,0,0,0-8.063,12.774,32.112,32.112,0,0,0-1.917-14.916c-1.835-4.427-5.275-8.156-8.3-11.983a6.592,6.592,0,0,0-11.74,3.237q-.009.085-.018.169.675.381,1.321.808a3.231,3.231,0,0,1-1.3,5.88l-.066.01a32.163,32.163,0,0,0,.847,4.807,33.1,33.1,0,0,0,16.482,20.747c.264.136.522.271.786.4A78.854,78.854,0,0,0,687,387.382a74.79,74.79,0,0,0,.054,12.075l-.02-.142a19.761,19.761,0,0,0-6.746-11.411c-5.191-4.265-12.526-5.835-18.127-9.263a3.709,3.709,0,0,0-5.68,3.608q.011.075.023.15a21.708,21.708,0,0,1,2.434,1.173q.675.381,1.321.808a3.231,3.231,0,0,1-1.3,5.88l-.066.01-.135.02a32.179,32.179,0,0,0,5.919,9.268A33.132,33.132,0,0,0,688.7,410.1h.007A78.822,78.822,0,0,0,694,425.56h18.916c.068-.21.129-.427.19-.637a21.5,21.5,0,0,1-5.234-.312c1.4-1.722,2.807-3.458,4.21-5.18a1.185,1.185,0,0,0,.088-.1c.712-.881,1.431-1.756,2.143-2.637h0a31.483,31.483,0,0,0-.923-8.02Zm-21.662-42.612.01-.013-.01.027Zm-4.19,37.772-.163-.366c.007-.264.007-.529,0-.8,0-.075-.013-.149-.013-.224.061.468.115.936.183,1.4Z" transform="translate(-412.776 -248.388)" fill="#2f2e41"/><path d="M350.957,365.766h0V340.343a14.714,14.714,0,0,0-14.714-14.714H282.38a14.714,14.714,0,0,0-14.714,14.714V479.817a14.714,14.714,0,0,0,14.714,14.714h53.863a14.714,14.714,0,0,0,14.714-14.714V383.863h0a.928.928,0,0,0,.928-.928v-16.24a.928.928,0,0,0-.928-.928Z" transform="translate(-218.788 -249.726)" fill="#e6e6e6"/><path d="M351.87,344.256V483.529A10.982,10.982,0,0,1,341,494.511a.955.955,0,0,1-.119.005H286.758a10.988,10.988,0,0,1-10.987-10.986V344.256a10.988,10.988,0,0,1,10.986-10.987h6.569a5.224,5.224,0,0,0,4.835,7.195h30.858a5.228,5.228,0,0,0,4.83-7.195h7.034a10.988,10.988,0,0,1,10.987,10.986Z" transform="translate(-222.832 -253.538)" fill="#fff"/><path d="M341.139,578.053q0,2.164-.135,4.294a.953.953,0,0,1-.12.005H286.758a10.988,10.988,0,0,1-10.987-10.986V509.3a68.833,68.833,0,0,1,65.367,68.754Z" transform="translate(-222.832 -341.374)" fill="#f2f2f2"/><path d="M267.014,423.151a1.254,1.254,0,0,1-1.253-1.253v-8.517a1.253,1.253,0,0,1,2.505,0V421.9A1.254,1.254,0,0,1,267.014,423.151Z" transform="translate(-217.837 -292.888)" fill="#e6e6e6"/><rect width="17.639" height="7.736" rx="3.868" transform="translate(82.169 123.463)" fill="#e9d182"/><rect width="54.385" height="7.736" rx="3.868" transform="translate(63.796 138.935)" fill="#e6e6e6"/><rect width="54.385" height="7.736" rx="3.868" transform="translate(63.796 154.407)" fill="#e6e6e6"/><path d="M351.006,599.227a1.118,1.118,0,0,1-.81-1.938l.077-.3-.03-.073a3,3,0,0,0-5.538.021c-.906,2.181-2.059,4.367-2.343,6.673a8.882,8.882,0,0,0,.156,3.054,35.606,35.606,0,0,1-3.239-14.788,34.37,34.37,0,0,1,.213-3.834q.177-1.565.49-3.109a36.018,36.018,0,0,1,7.143-15.266,9.586,9.586,0,0,0,3.987-4.136,7.312,7.312,0,0,0,.665-2c-.194.025-.391.041-.585.054l-.185.01h-.023a1.108,1.108,0,0,1-.91-1.8l.251-.309c.127-.159.258-.315.385-.474a.556.556,0,0,0,.041-.048c.146-.181.293-.359.439-.541a3.2,3.2,0,0,0-1.05-1.015,3.692,3.692,0,0,0-4.55,1.063,5.788,5.788,0,0,0-.894,4.846,12.835,12.835,0,0,0,1.775,3.958c-.08.1-.162.2-.242.3a36.246,36.246,0,0,0-3.784,5.994,15.069,15.069,0,0,0-.9-7,25.243,25.243,0,0,0-3.9-5.623,3.093,3.093,0,0,0-5.509,1.519l-.009.079q.317.179.62.379a1.516,1.516,0,0,1-.611,2.759l-.031,0a15.084,15.084,0,0,0,.4,2.256,15.534,15.534,0,0,0,7.735,9.736c.124.064.245.127.369.188a37,37,0,0,0-1.992,9.373,35.1,35.1,0,0,0,.025,5.667l-.01-.067a9.274,9.274,0,0,0-3.166-5.355c-2.436-2-5.878-2.738-8.506-4.347a1.74,1.74,0,0,0-2.666,1.693l.011.07a10.184,10.184,0,0,1,1.142.55q.317.179.62.379a1.516,1.516,0,0,1-.611,2.759l-.031,0-.064.01a15.1,15.1,0,0,0,2.778,4.349,15.548,15.548,0,0,0,11.276,4.948h0a36.99,36.99,0,0,0,2.485,7.254h8.877c.032-.1.06-.2.089-.3a10.086,10.086,0,0,1-2.456-.146c.659-.808,1.317-1.623,1.976-2.431a.55.55,0,0,0,.041-.048c.334-.414.671-.824,1.005-1.238h0a14.775,14.775,0,0,0-.433-3.763Zm-10.165-20,0-.006,0,.013Zm-1.966,17.725-.076-.172c0-.124,0-.248,0-.375,0-.035-.006-.07-.006-.1.029.22.054.439.086.659Z" transform="translate(-247.039 -366.174)" fill="#ccc"/><path d="M266.514,390.151a1.254,1.254,0,0,1-1.253-1.253v-8.517a1.253,1.253,0,1,1,2.505,0V388.9A1.254,1.254,0,0,1,266.514,390.151Z" transform="translate(-217.588 -276.421)" fill="#e6e6e6"/><path d="M334.261,334.882a1.254,1.254,0,0,1,1.253-1.253h8.517a1.253,1.253,0,1,1,0,2.505h-8.517A1.254,1.254,0,0,1,334.261,334.882Z" transform="translate(-252.018 -253.717)" fill="#fff"/><path d="M267.014,452.151a1.254,1.254,0,0,1-1.253-1.253v-8.517a1.253,1.253,0,1,1,2.505,0V450.9a1.254,1.254,0,0,1-1.253,1.253Z" transform="translate(-217.837 -307.358)" fill="#e6e6e6"/><circle cx="1.253" cy="1.253" r="1.253" transform="translate(95.52 79.912)" fill="#fff"/><path d="M507.531,379.093l-2.26.484a13.015,13.015,0,0,0-.351-2.807,8.427,8.427,0,0,1-1.273,3.153l-12.965,2.769-12.447-13.135C478.216,362.989,481.863,358,488.4,358c.394,0,.8.019,1.216.057a13.83,13.83,0,0,1,15.833,10.87C510.085,373.489,508.4,376.172,507.531,379.093Z" transform="translate(-323.859 -265.81)" fill="#2f2e41"/><path d="M379.494,514.645h4.7l2.237-18.139h-6.941Z" transform="translate(-189.448 -247.749)" fill="#ffb6b6"/><path d="M546.168,701.768l7.434-.444v3.185l7.068,4.881a1.99,1.99,0,0,1-1.13,3.627h-8.85l-1.525-3.15-.6,3.15h-3.337Z" transform="translate(-357.289 -437.192)" fill="#2f2e41"/><path d="M269.531,506.781l4.09,2.321,10.9-14.672-6.037-3.425Z" transform="translate(-134.579 -245.004)" fill="#ffb6b6"/><path d="M433.385,691.448l6.685,3.283L438.5,697.5l3.738,7.733a1.989,1.989,0,0,1-2.773,2.6l-7.7-4.368.228-3.493-2.073,2.446-2.9-1.647Z" transform="translate(-298.303 -432.263)" fill="#2f2e41"/><path d="M573.614,406.531a4.165,4.165,0,0,0-3.357,5.433l-7.2,6.229,2.719,5.3,10.039-8.939a4.187,4.187,0,0,0-2.2-8.019Z" transform="translate(-366.185 -290.071)" fill="#ffb6b6"/><path d="M537.764,434.229c-2.4,3.636-7.78,7.147-15.765,10.259a3.426,3.426,0,0,1-2.755-.09c-3.013-1.371-4.944-6.469-5.126-6.964l-5.836-7.872c-.1-.115-2.832-3.212-2.52-6.257a4.447,4.447,0,0,1,1.915-3.187c4.418-3.275,14.318,8.1,15.6,9.611l6.461-3.937,4.708-2.1,3.8-4.625,5.352,5.471L538.79,432.2a9.229,9.229,0,0,1-1.026,2.034Z" transform="translate(-337.582 -296.35)" fill="#2f2e41"/><path d="M532.469,477.169s13.827,22.025,11.322,24.53a13.373,13.373,0,0,1-6.4,3.163l-8.627-11.179Z" transform="translate(-349.07 -325.342)" fill="#2f2e41"/><path d="M511.761,417.129l6.517,4.408a16.81,16.81,0,0,1,6.549,19.177l-1.835,5.577Z" transform="translate(-340.588 -295.383)" fill="#2f2e41"/><path d="M300.2,337.372l-.871,3.035L296.36,377l-14.853,27.681,7.089,5.063,20.255-26.331,8.011-26.145,12.581,57.877,9.452-.675-6.565-80.245-12.457-22.587Z" transform="translate(-140.555 -155.503)" fill="#2f2e41"/><path d="M504.908,419.342l9.07,7.413a12.353,12.353,0,0,1,4.1,6.314h0a12.354,12.354,0,0,1,.433,3.458l-.27,16.1,8.316,22.225s-22.546,8.517-25.552,1S504.908,419.342,504.908,419.342Z" transform="translate(-334.843 -296.487)" fill="#e9d182"/><path d="M500.658,472.25c-11.263,0-14.008.085-14.186.049l-.178-.036v-6.774l2.739-12.17c-.32-3.778-1.07-8.76-1-13.026.246-15.419-.512-30.48-.512-30.48l5.961-5.5,2.708,1.762,5.023,5.023c5.839,14.37,10.472,27.9,10.5,28.768l.367,14.959-1.5,6.012C503.777,465.634,509.989,472.25,500.658,472.25Z" transform="translate(-327.88 -288.986)" fill="#2f2e41"/><path d="M322.482,267.973l-1.369,8.546,9.269,3.823Z" transform="translate(-160.317 -133.715)" opacity="0.2"/><circle cx="9.075" cy="9.075" r="9.075" transform="translate(162.428 95.57)" fill="#ffb6b6"/><path d="M482.067,474.9h0a16.67,16.67,0,0,0,20.01,4.045l1.975-.978Z" transform="translate(-325.771 -324.211)" opacity="0.2"/><path d="M526.705,468.363a4.165,4.165,0,0,0-6.383.193l-9.163-2.572-2.921,5.187,12.991,3.451a4.187,4.187,0,0,0,5.477-6.258Z" transform="translate(-338.829 -319.76)" fill="#ffb6b6"/><path d="M482.782,449.144c-4.357,0-10.251-2.554-17.249-7.5a3.426,3.426,0,0,1-1.443-2.348c-.516-3.27,2.673-7.691,2.986-8.114l3.353-9.208c.039-.15,1.119-4.134,3.832-5.551a4.448,4.448,0,0,1,3.715-.158c5.167,1.882,1.132,16.411.579,18.317L485.4,437.8l4.347,2.771,5.954.623-1.616,7.481-9.042.2A9.231,9.231,0,0,1,482.782,449.144Z" transform="translate(-316.773 -294.785)" fill="#2f2e41"/><path d="M503.379,363.124c-.727.945-3.229,1.781-6.2,2.455,0-.062,0-.123,0-.185a13.015,13.015,0,0,0-.351-2.807,8.429,8.429,0,0,1-1.273,3.153c-.047.071-.095.142-.147.214-2.55.5-5.247.893-7.361,1.154,1.453,5.233,7.024,9.526,6.421,12.708l-16.322,3.334a12.8,12.8,0,0,0-.313-3.942,8.484,8.484,0,0,1-2.365,4.488l-1.387.285-.413-2.037c-3.581-8.6,1.41-17.4,9.588-21.959a9.94,9.94,0,0,1,6.3-4.226l2.037-.418A9.987,9.987,0,0,1,503.379,363.124Z" transform="translate(-320.994 -264.449)" fill="#2f2e41"/><path d="M603.022,692l.241-5.427a17.527,17.527,0,0,1,8.175-2.069c-3.927,3.21-3.436,9.4-6.1,13.715a10.543,10.543,0,0,1-7.731,4.872l-3.286,2.012a17.666,17.666,0,0,1,3.724-14.315,17.069,17.069,0,0,1,3.136-2.914C601.971,689.948,603.022,692,603.022,692Z" transform="translate(-381.647 -428.798)" fill="#2d3032"/><path d="M513.308,724.683H398.885a.6.6,0,1,1,0-1.193H513.308a.6.6,0,1,1,0,1.193Z" transform="translate(-283.966 -448.252)" fill="#cacaca"/></g></svg>