<svg xmlns="http://www.w3.org/2000/svg" width="404.576" height="404.959"><g transform="translate(-.424)"><path fill="snow" d="M178 74.958h192v286H178z"/><ellipse cx="81.5" cy="30" fill="snow" rx="81.5" ry="30" transform="translate(242 344.958)"/><path fill="#3f3d56" d="M266.446 90.047h-2.08V33.011A33.011 33.011 0 0 0 231.356 0H110.514a33.011 33.011 0 0 0-33.011 33.011v312.9a33.011 33.011 0 0 0 33.011 33.011h120.84a33.011 33.011 0 0 0 33.011-33.011V130.646h2.079Z"/><path fill="#fff" d="M257.595 30.8v317.325a25.036 25.036 0 0 1-25.024 25.033H109.246a25.041 25.041 0 0 1-25.044-25.037V30.8a25.04 25.04 0 0 1 25.043-25.033h14.96a11.905 11.905 0 0 0 11.013 16.389h70.307a11.9 11.9 0 0 0 11.013-16.389h16.021a25.036 25.036 0 0 1 25.033 25.023Z"/><path fill="#e6e6e6" d="M227.027 213.583H117.442a2.031 2.031 0 0 1-2.029-2.029v-27.183a2.032 2.032 0 0 1 2.029-2.029h109.585a2.032 2.032 0 0 1 2.029 2.029v27.183a2.032 2.032 0 0 1-2.029 2.029Zm-109.585-30.43a1.219 1.219 0 0 0-1.218 1.218v27.183a1.219 1.219 0 0 0 1.218 1.218h109.585a1.219 1.219 0 0 0 1.218-1.218v-27.183a1.219 1.219 0 0 0-1.218-1.218Z"/><path fill="#e6e6e6" d="M151.332 192.131a1.421 1.421 0 1 0 0 2.841H218.3a1.421 1.421 0 1 0 .109-2.84h-67.077ZM151.332 200.653a1.421 1.421 0 1 0 0 2.841H218.3a1.421 1.421 0 1 0 .109-2.84h-67.077ZM227.027 258.891H117.442a2.031 2.031 0 0 1-2.029-2.029v-27.183a2.032 2.032 0 0 1 2.029-2.029h109.585a2.032 2.032 0 0 1 2.029 2.029v27.183a2.032 2.032 0 0 1-2.029 2.028Zm-109.585-30.435a1.219 1.219 0 0 0-1.218 1.218v27.183a1.219 1.219 0 0 0 1.218 1.218h109.585a1.219 1.219 0 0 0 1.218-1.218v-27.178a1.219 1.219 0 0 0-1.218-1.218Z"/><path fill="#e6e6e6" d="M151.332 237.586a1.421 1.421 0 1 0 0 2.841H218.3a1.421 1.421 0 0 0 .046-2.841h-67.014ZM151.332 246.11a1.421 1.421 0 1 0 0 2.841H218.3a1.421 1.421 0 1 0 .046-2.841h-67.014ZM227.027 304.347H117.442a2.031 2.031 0 0 1-2.029-2.029v-27.183a2.032 2.032 0 0 1 2.029-2.029h109.585a2.032 2.032 0 0 1 2.029 2.029v27.183a2.032 2.032 0 0 1-2.029 2.029Zm-109.585-30.43a1.219 1.219 0 0 0-1.218 1.218v27.183a1.219 1.219 0 0 0 1.218 1.218h109.585a1.219 1.219 0 0 0 1.218-1.218v-27.183a1.219 1.219 0 0 0-1.218-1.218Z"/><path fill="#e6e6e6" d="M151.332 283.044a1.421 1.421 0 1 0 0 2.841H218.3a1.421 1.421 0 1 0 .109-2.84h-67.077ZM151.332 291.568a1.421 1.421 0 1 0 0 2.841H218.3a1.421 1.421 0 1 0 .109-2.84h-67.077ZM369.035 385.507H1.389c-.533 0-.965-1.5-.965-3.352s.432-3.352.965-3.352h367.647c.533 0 .965 1.5.965 3.352s-.433 3.352-.966 3.352ZM15.501 358.183a10.383 10.383 0 0 0 10.027-1.766c3.512-2.947 4.613-7.8 5.509-12.3l2.65-13.3-5.548 3.82c-3.99 2.747-8.069 5.582-10.832 9.561s-3.968 9.411-1.749 13.717"/><path fill="#f2f2f2" d="M16.357 375.21c-.7-5.087-1.417-10.24-.927-15.382a24.189 24.189 0 0 1 4.665-12.683 21.1 21.1 0 0 1 5.413-4.905c.541-.342 1.04.516.5.856a20.059 20.059 0 0 0-7.936 9.573 32.139 32.139 0 0 0-1.706 13.85c.18 2.823.561 5.626.946 8.427a.514.514 0 0 1-.347.61.5.5 0 0 1-.61-.347Z"/><path fill="#e6e6e6" d="M21.384 367.048a7.643 7.643 0 0 0 6.66 3.437c3.371-.16 6.182-2.513 8.712-4.745l7.483-6.607-4.953-.237c-3.562-.171-7.215-.329-10.61.769s-6.521 3.742-7.141 7.251"/><path fill="#f2f2f2" d="M14.383 378.132c3.359-5.948 7.261-12.559 14.227-14.672a15.877 15.877 0 0 1 5.984-.618c.636.053.477 1.034-.16.979a14.75 14.75 0 0 0-9.55 2.527 24.814 24.814 0 0 0-6.564 7.084c-1.087 1.653-2.061 3.381-3.034 5.1-.309.557-1.216.16-.903-.4Z"/><path fill="#e56969" d="M131.113 189.272a8.523 8.523 0 1 1-8.523 8.523 8.523 8.523 0 0 1 8.523-8.523Z"/><path fill="#e6e6e6" d="M127.034 196.203a5.772 5.772 0 0 0 0 2.841h8.379c.1.013.179-.613.181-1.4a3.169 3.169 0 0 0-.175-1.444h-8.387Z"/><path fill="#e56969" d="M131.113 234.747a8.523 8.523 0 1 1-8.523 8.523 8.523 8.523 0 0 1 8.523-8.523Z"/><path fill="#e6e6e6" d="M127.034 241.678a5.772 5.772 0 0 0 0 2.841h8.379c.1.013.179-.613.181-1.4a3.169 3.169 0 0 0-.175-1.444h-8.387Z"/><path fill="#e56969" d="M131.113 280.203a8.523 8.523 0 1 1-8.523 8.523 8.523 8.523 0 0 1 8.523-8.523Z"/><path fill="#e6e6e6" d="M127.034 287.134a5.772 5.772 0 0 0 0 2.841h8.379c.1.013.179-.613.181-1.4a3.169 3.169 0 0 0-.175-1.444h-8.387ZM198.436 136.846a2.392 2.392 0 0 1-2.139-1.308 28.191 28.191 0 0 0-16.726-14.08 31.992 31.992 0 0 0-4.483-1.015l-.309-.047 15.952-49.876.27.009c30.992 8.421 48.723 33.259 53.419 40.671a2.4 2.4 0 0 1-.958 3.425l-43.949 21.965a2.4 2.4 0 0 1-1.077.256Z"/><path fill="#feb8b8" d="M294.106 243.118a4.946 4.946 0 0 1 6.777-3.4l11.88-12.952 2.22 8.859-11.623 10.938a4.972 4.972 0 0 1-9.255-3.445ZM319.622 372.323h-7.258l-3.454-28h10.717Z"/><path fill="#2f2e41" d="M321.473 369.955h-14.3a9.111 9.111 0 0 0-9.111 9.11v.3h23.406Z"/><path fill="#feb8b8" d="m361.309 365.132-6.787 2.576-13.165-24.952 10.016-3.8Z"/><path fill="#2f2e41" d="m362.196 362.259-13.366 5.073a9.111 9.111 0 0 0-5.284 11.75l.107.277 21.884-8.306ZM337.413 279.189l6.016 32.37s16.328 45.547 15.182 46.693-16.9 5.156-16.042 2.578-18.906-41.25-18.906-41.25Z"/><path fill="#e4e4e4" d="M313.017 220.365s-12.143 15.87-10.552 16.741 7.756 5.457 7.756 5.457l6.272-17.213Z"/><path fill="#2f2e41" d="M309.626 236.388s-2.005 14.9-1.146 18.047.286 92.527-.286 93.959-2.293 6.3-1.432 8.594 12.6 8.021 14.323 6.016 14.324-75.052 14.324-75.052 17.761-44.115 13.75-48.411-39.533-3.153-39.533-3.153Z"/><circle cx="14.037" cy="14.037" r="14.037" fill="#feb8b8" transform="translate(321.361 112.58)"/><path fill="#e4e4e4" d="M320.731 158.34a9.951 9.951 0 0 1 3.2-5.886l2.559-7.824h15.04l4.191 6.577c4.532 1.952 7.891 5.047 8.018 8.7.693 2.423-2.293 79.35-3.151 82.214-.252.834-3.679 1.28-8.5 1.478-4.417.18-10 .155-15.36.031-8.875-.206-17.148-.682-18.54-.937-3.145-.576 12.231-82.545 12.543-84.353Z"/><path fill="#feb8b8" d="M334.028 260.349a4.946 4.946 0 0 0 .974-7.521l8.3-15.492-9.1.831-6.488 14.583a4.972 4.972 0 0 0 6.309 7.6Z"/><path fill="#e4e4e4" d="M335.408 149.877s-13.177 5.443-8.307 19.194 10.312 30.078 10.312 30.078-6.875 36.954-6.875 38.388-4.3 9.167-2.578 10.6 13.177 4.3 13.463 2.865a96.918 96.918 0 0 1 3.151-9.74c.573-1.146 14.037-36.953 12.316-40.1-1.265-2.319-2.375-23.566-2.873-34.623a18.185 18.185 0 0 0-9.48-15.31 12.6 12.6 0 0 0-9.129-1.352Z"/><path fill="#2f2e41" d="M340.8 132.89a21.076 21.076 0 0 0-3.454-.9c-4.124-1.094-6.886-5.166-6-8.851a3.986 3.986 0 0 0 .216-1.459c-.154-1.091-1.433-1.8-2.658-2.046a29.485 29.485 0 0 1-3.7-.616 5.006 5.006 0 0 1-3.271-3.927 7.29 7.29 0 0 1 1.241-4.89l.443 1.113a4.143 4.143 0 0 0 1.447-1.89 2.932 2.932 0 0 1 2.271 1.6c.711.366.813-1.137 1.6-1.359a1.57 1.57 0 0 1 .98.213c1.582.645 3.42.093 5.118-.264a21.978 21.978 0 0 1 8.942-.009 11.316 11.316 0 0 1 5.285 2.375 10.85 10.85 0 0 1 2.472 3.711 19 19 0 0 1 1.995 10.382 13.89 13.89 0 0 1-3.965 7.784c-1.132 1.139-4.825 5.114-6.85 4.436-2.555-.855.886-4.018-2.112-5.403Z"/><circle cx="4.265" cy="4.265" r="4.265" fill="#3f3d56" transform="translate(167.402 137.8)"/><path fill="#e56969" d="M143.043 136.783a2.4 2.4 0 0 1-1.12-.28l-43.694-23.051a2.4 2.4 0 0 1-.928-3.372 96.859 96.859 0 0 1 21.855-24.512c15.089-11.959 32.253-17.959 51.012-17.858a80.978 80.978 0 0 1 20.827 2.82l.269.073-15.956 49.872-.224-.034a35.559 35.559 0 0 0-4.339-.385c-16.235-.458-23.271 10.6-25.543 15.371a2.354 2.354 0 0 1-1.4 1.232 2.415 2.415 0 0 1-.759.124Z"/><path fill="#3f3d56" d="m190.93 70.788-11.285 50.417a32.193 32.193 0 0 0-4.521-1.024l15.8-49.392Z"/></g></svg>