<svg xmlns="http://www.w3.org/2000/svg" width="370" height="307.533"><g transform="translate(-47.673)"><ellipse cx="153.5" cy="45" fill="snow" rx="153.5" ry="45" transform="translate(51.071 217.533)"/><path fill="#e6e6e6" d="M402.731 244.245h-108.9a14.96 14.96 0 0 1-14.943-14.943V57.532a14.96 14.96 0 0 1 14.943-14.943h108.9a14.96 14.96 0 0 1 14.943 14.943v171.77a14.96 14.96 0 0 1-14.943 14.943Z"/><path fill="#fff" d="M404.535 51.506H293.629a4.684 4.684 0 0 0-4.678 4.678v174.009a4.685 4.685 0 0 0 4.678 4.678h110.906a4.684 4.684 0 0 0 4.678-4.678V56.184a4.684 4.684 0 0 0-4.678-4.677Z"/><path fill="#e6e6e6" d="M296.498 42.592a1.145 1.145 0 0 1 1.143-1.143h7.774a1.143 1.143 0 0 1 0 2.286h-7.773a1.145 1.145 0 0 1-1.144-1.143ZM309.3 42.592a1.144 1.144 0 0 1 1.143-1.143h7.774a1.143 1.143 0 0 1 0 2.286h-7.771a1.145 1.145 0 0 1-1.146-1.143ZM386.121 42.592a1.145 1.145 0 0 1 1.143-1.143h7.772a1.143 1.143 0 1 1 0 2.286h-7.773a1.145 1.145 0 0 1-1.142-1.143Z"/><path fill="#f2f2f2" d="M364.451 231.286c0 1.2-.023 2.4-.078 3.585h-70.744a4.685 4.685 0 0 1-4.678-4.678v-87.585a89.827 89.827 0 0 1 75.5 88.678Z"/><rect width="30.732" height="7.061" fill="#e56969" rx="3.53" transform="translate(333.491 96.223)"/><rect width="64.269" height="7.061" fill="#e6e6e6" rx="3.53" transform="translate(316.723 110.344)"/><rect width="64.269" height="7.061" fill="#e6e6e6" rx="3.53" transform="translate(316.723 124.465)"/><path fill="#ccc" d="M368.557 222.979a1.677 1.677 0 0 1-1.216-2.907l.115-.457-.046-.11a4.5 4.5 0 0 0-8.309.031c-1.359 3.273-3.089 6.552-3.515 10.012a13.324 13.324 0 0 0 .234 4.583 53.426 53.426 0 0 1-4.86-22.189 51.6 51.6 0 0 1 .32-5.753q.265-2.349.735-4.664a54.046 54.046 0 0 1 10.718-22.906 14.382 14.382 0 0 0 5.982-6.206 10.968 10.968 0 0 0 1-3 13.7 13.7 0 0 1-.878.081l-.277.014h-.034a1.662 1.662 0 0 1-1.365-2.707l.377-.464c.191-.239.387-.473.578-.711a.834.834 0 0 0 .062-.072c.22-.272.439-.539.659-.812a4.805 4.805 0 0 0-1.575-1.523c-2.2-1.289-5.237-.4-6.827 1.594a8.684 8.684 0 0 0-1.342 7.271 19.258 19.258 0 0 0 2.664 5.939c-.119.153-.243.3-.363.453a54.4 54.4 0 0 0-5.677 8.994 22.611 22.611 0 0 0-1.35-10.5c-1.292-3.117-3.714-5.742-5.847-8.437a4.641 4.641 0 0 0-8.266 2.279l-.013.119q.475.268.93.569a2.275 2.275 0 0 1-.917 4.14l-.046.007a22.652 22.652 0 0 0 .6 3.385 23.309 23.309 0 0 0 11.605 14.608c.186.1.368.191.554.282a55.521 55.521 0 0 0-2.989 14.064 52.663 52.663 0 0 0 .038 8.5l-.014-.1a13.914 13.914 0 0 0-4.75-8.035c-3.655-3-8.82-4.109-12.764-6.522a2.611 2.611 0 0 0-4 2.54l.016.105a15.274 15.274 0 0 1 1.714.826q.475.268.93.569a2.275 2.275 0 0 1-.917 4.14l-.046.007-.1.014a22.659 22.659 0 0 0 4.168 6.526 23.329 23.329 0 0 0 16.919 7.424 55.507 55.507 0 0 0 3.729 10.885h13.322c.048-.148.091-.3.134-.449a15.13 15.13 0 0 1-3.685-.22c.988-1.213 1.976-2.435 2.965-3.647a.843.843 0 0 0 .062-.072c.5-.621 1.007-1.236 1.508-1.857a22.169 22.169 0 0 0-.649-5.647Zm-15.252-30 .007-.009-.007.019Zm-2.95 26.6-.115-.258v-.563c0-.053-.01-.105-.01-.158.043.329.081.659.129.988Z"/><path fill="#cacaca" d="M398.992 66.868h-99.819a.826.826 0 1 1 0-1.652h99.819a.826.826 0 1 1 0 1.652Z"/><ellipse cx="2.428" cy="2.482" fill="#3f3d56" rx="2.428" ry="2.482" transform="translate(302.071 57.863)"/><ellipse cx="2.428" cy="2.482" fill="#3f3d56" rx="2.428" ry="2.482" transform="translate(310.458 57.863)"/><ellipse cx="2.428" cy="2.482" fill="#3f3d56" rx="2.428" ry="2.482" transform="translate(318.846 57.863)"/><path fill="#3f3d56" d="M395.091 58.822h-5.434a.411.411 0 1 0 0 .823h5.434a.411.411 0 1 0 0-.823ZM395.091 60.367h-5.434a.411.411 0 1 0 0 .823h5.434a.411.411 0 1 0 0-.823ZM395.091 61.913h-5.434a.411.411 0 1 0 0 .823h5.434a.411.411 0 1 0 0-.823Z"/><path fill="#e6e6e6" d="M233.135 142.676h-57.873a3.088 3.088 0 0 0-3.083 3.091v91.421h64.046v-91.424a3.089 3.089 0 0 0-3.091-3.091Zm-28.742 51.945a6.866 6.866 0 0 1-6.834-6.834v-10.548a6.834 6.834 0 0 1 13.668 0v10.545a6.866 6.866 0 0 1-6.834 6.834Z"/><path fill="#ccc" d="M171.981 234.259v8.82a1.728 1.728 0 0 0 1.724 1.724h61a1.733 1.733 0 0 0 1.724-1.724v-8.82Z"/><path fill="#e6e6e6" d="M328.966 0H81.585a8.03 8.03 0 0 0-8.018 8.018v166.934a8.025 8.025 0 0 0 8.018 8.018h247.381a8.025 8.025 0 0 0 8.018-8.018V8.018A8.031 8.031 0 0 0 328.966 0Z"/><path fill="#fff" d="M326.901 5.791H83.65a4.3 4.3 0 0 0-4.288 4.3v162.8a4.3 4.3 0 0 0 4.288 4.288H326.9a4.3 4.3 0 0 0 4.288-4.288v-162.8a4.3 4.3 0 0 0-4.287-4.3Z"/><path fill="#e56969" d="M331.189 10.088v162.8a4.3 4.3 0 0 1-4.288 4.288h-85.775a105.258 105.258 0 0 1-22.964-30.9q-.562-1.123-1.07-2.273a104.323 104.323 0 0 1-9.271-35.685 63.321 63.321 0 0 1-.151-2.282 100.849 100.849 0 0 1-.169-5.946 104.774 104.774 0 0 1 7.39-38.787c.294-.767.606-1.524.927-2.282a105.547 105.547 0 0 1 50.233-53.228h60.85a4.3 4.3 0 0 1 4.288 4.295Z"/><path fill="#cacaca" d="M314.674 28.221H87.066a.905.905 0 1 1 0-1.81h227.608a.905.905 0 1 1 0 1.81Z"/><ellipse cx="5.305" cy="5.423" fill="#3f3d56" rx="5.305" ry="5.423" transform="translate(97.255 10.943)"/><ellipse cx="5.305" cy="5.423" fill="#3f3d56" rx="5.305" ry="5.423" transform="translate(115.58 10.943)"/><ellipse cx="5.305" cy="5.423" fill="#3f3d56" rx="5.305" ry="5.423" transform="translate(133.904 10.943)"/><path fill="#3f3d56" d="M303.64 12.288h-13.012a.986.986 0 1 0 0 1.971h13.017a.986.986 0 1 0 0-1.971ZM303.64 15.987h-13.012a.986.986 0 1 0 0 1.971h13.017a.986.986 0 1 0 0-1.971ZM303.64 19.682h-13.012a.986.986 0 1 0 0 1.971h13.017a.986.986 0 1 0 0-1.971Z"/><rect width="36.177" height="7.736" fill="#e56969" rx="3.868" transform="translate(122.753 81.1)"/><rect width="72.923" height="7.736" fill="#e6e6e6" rx="3.868" transform="translate(104.381 96.572)"/><rect width="72.923" height="7.736" fill="#e6e6e6" rx="3.868" transform="translate(104.381 112.043)"/><path fill="#e56969" d="M110.333 167.839a26.577 26.577 0 0 1-1.676 9.333H83.65a4.3 4.3 0 0 1-4.288-4.288v-31.45a26.414 26.414 0 0 1 4.225-.339 26.742 26.742 0 0 1 26.743 26.745Z"/><path d="M331.412 61.301v-2.282h-38.248V32.57h-2.274v26.449h-43.845V32.57h-2.273v26.449h-28.954a71.207 71.207 0 0 0-.927 2.282h29.881v44.731h-37.1c.036.767.089 1.524.151 2.282h36.951v35.685h-27.681q.508 1.15 1.07 2.273h26.61v30h2.273v-30h43.841v30h2.277v-30h38.252v-2.273h-38.252a35.685 35.685 0 0 1 35.685-35.685h2.567v-2.282h-38.252V61.301Zm-40.526 82.7h-43.841v-35.684h43.841Zm0-37.967h-43.841v-.892a43.841 43.841 0 0 1 43.841-43.841Z" opacity=".2"/><path fill="#2f2e41" d="M300.614 160.283a2.382 2.382 0 0 1-1.726-4.129l.163-.649-.065-.156a6.4 6.4 0 0 0-11.8.044c-1.93 4.648-4.387 9.3-4.992 14.22a18.926 18.926 0 0 0 .332 6.509 75.874 75.874 0 0 1-6.902-31.51 73.239 73.239 0 0 1 .454-8.17q.376-3.336 1.044-6.624a76.754 76.754 0 0 1 15.221-32.531 20.426 20.426 0 0 0 8.5-8.814 15.583 15.583 0 0 0 1.417-4.258c-.414.054-.834.088-1.248.115l-.393.02h-.049a2.36 2.36 0 0 1-1.938-3.845l.536-.659c.271-.339.549-.671.82-1.01a1.178 1.178 0 0 0 .088-.1c.312-.387.624-.766.936-1.153a6.825 6.825 0 0 0-2.237-2.163c-3.126-1.831-7.438-.563-9.7 2.264s-2.692 6.794-1.905 10.326a27.352 27.352 0 0 0 3.783 8.434c-.169.217-.346.427-.515.644a77.247 77.247 0 0 0-8.063 12.774 32.112 32.112 0 0 0-1.917-14.916c-1.835-4.427-5.275-8.156-8.3-11.983a6.592 6.592 0 0 0-11.74 3.237l-.018.169q.675.381 1.321.808a3.231 3.231 0 0 1-1.3 5.88l-.066.01a32.163 32.163 0 0 0 .847 4.807 33.1 33.1 0 0 0 16.482 20.747c.264.136.522.271.786.4a78.854 78.854 0 0 0-4.246 19.973 74.79 74.79 0 0 0 .054 12.075l-.02-.142a19.761 19.761 0 0 0-6.746-11.411c-5.191-4.265-12.526-5.835-18.127-9.263a3.709 3.709 0 0 0-5.68 3.608l.023.15a21.708 21.708 0 0 1 2.434 1.173q.675.381 1.321.808a3.231 3.231 0 0 1-1.3 5.88l-.066.01-.135.02a32.179 32.179 0 0 0 5.919 9.268 33.132 33.132 0 0 0 24.023 10.542h.007a78.822 78.822 0 0 0 5.293 15.46h18.916c.068-.21.129-.427.19-.637a21.5 21.5 0 0 1-5.234-.312c1.4-1.722 2.807-3.458 4.21-5.18a1.185 1.185 0 0 0 .088-.1c.712-.881 1.431-1.756 2.143-2.637a31.483 31.483 0 0 0-.923-8.02Zm-21.662-42.612.01-.013-.01.027Zm-4.19 37.772-.163-.366a15.24 15.24 0 0 0 0-.8c0-.075-.013-.149-.013-.224.061.468.115.936.183 1.4Z"/><path fill="#e6e6e6" d="M132.169 116.04V90.617a14.714 14.714 0 0 0-14.714-14.714H63.592a14.714 14.714 0 0 0-14.714 14.714v139.474a14.714 14.714 0 0 0 14.714 14.714h53.863a14.714 14.714 0 0 0 14.714-14.714v-95.954a.928.928 0 0 0 .928-.928v-16.24a.928.928 0 0 0-.928-.928Z"/><path fill="#fff" d="M129.038 90.718v139.273a10.982 10.982 0 0 1-10.87 10.982.955.955 0 0 1-.119.005H63.926a10.988 10.988 0 0 1-10.987-10.986V90.718a10.988 10.988 0 0 1 10.986-10.987h6.569a5.224 5.224 0 0 0 4.835 7.195h30.858a5.228 5.228 0 0 0 4.83-7.195h7.034a10.988 10.988 0 0 1 10.987 10.986Z"/><path fill="#f2f2f2" d="M118.307 236.679q0 2.164-.135 4.294a.953.953 0 0 1-.12.005H63.926a10.988 10.988 0 0 1-10.987-10.986v-62.066a68.833 68.833 0 0 1 65.367 68.754Z"/><path fill="#e6e6e6" d="M49.177 130.263a1.254 1.254 0 0 1-1.253-1.253v-8.517a1.253 1.253 0 0 1 2.505 0v8.519a1.254 1.254 0 0 1-1.252 1.251Z"/><rect width="17.639" height="7.736" fill="#e56969" rx="3.868" transform="translate(82.169 123.463)"/><rect width="54.385" height="7.736" fill="#e6e6e6" rx="3.868" transform="translate(63.796 138.935)"/><rect width="54.385" height="7.736" fill="#e6e6e6" rx="3.868" transform="translate(63.796 154.407)"/><path fill="#ccc" d="M103.967 233.053a1.118 1.118 0 0 1-.81-1.938l.077-.3-.03-.073a3 3 0 0 0-5.538.021c-.906 2.181-2.059 4.367-2.343 6.673a8.882 8.882 0 0 0 .156 3.054 35.606 35.606 0 0 1-3.239-14.788 34.37 34.37 0 0 1 .213-3.834q.177-1.565.49-3.109a36.018 36.018 0 0 1 7.143-15.266 9.586 9.586 0 0 0 3.987-4.136 7.312 7.312 0 0 0 .665-2 9.63 9.63 0 0 1-.585.054l-.185.01h-.023a1.108 1.108 0 0 1-.91-1.8l.251-.309c.127-.159.258-.315.385-.474a.556.556 0 0 0 .041-.048c.146-.181.293-.359.439-.541a3.2 3.2 0 0 0-1.05-1.015 3.692 3.692 0 0 0-4.55 1.063 5.788 5.788 0 0 0-.894 4.846 12.835 12.835 0 0 0 1.775 3.958l-.242.3a36.246 36.246 0 0 0-3.784 5.994 15.069 15.069 0 0 0-.9-7 25.243 25.243 0 0 0-3.9-5.623 3.093 3.093 0 0 0-5.509 1.519l-.009.079q.317.179.62.379a1.516 1.516 0 0 1-.611 2.759h-.031a15.084 15.084 0 0 0 .4 2.256 15.534 15.534 0 0 0 7.735 9.736c.124.064.245.127.369.188a37 37 0 0 0-1.992 9.373 35.1 35.1 0 0 0 .025 5.667l-.01-.067a9.274 9.274 0 0 0-3.166-5.355c-2.436-2-5.878-2.738-8.506-4.347a1.74 1.74 0 0 0-2.666 1.693l.011.07a10.184 10.184 0 0 1 1.142.55q.317.179.62.379a1.516 1.516 0 0 1-.611 2.759h-.031l-.064.01a15.1 15.1 0 0 0 2.778 4.349 15.548 15.548 0 0 0 11.276 4.948 36.99 36.99 0 0 0 2.485 7.254h8.877c.032-.1.06-.2.089-.3a10.086 10.086 0 0 1-2.456-.146c.659-.808 1.317-1.623 1.976-2.431a.55.55 0 0 0 .041-.048c.334-.414.671-.824 1.005-1.238a14.775 14.775 0 0 0-.433-3.763Zm-10.165-20v-.006.013Zm-1.966 17.725-.076-.172v-.375c0-.035-.006-.07-.006-.1.029.22.054.439.086.659Z"/><path fill="#e6e6e6" d="M48.926 113.73a1.254 1.254 0 0 1-1.253-1.253v-8.517a1.253 1.253 0 1 1 2.505 0v8.519a1.254 1.254 0 0 1-1.252 1.251Z"/><path fill="#fff" d="M82.243 81.165a1.254 1.254 0 0 1 1.253-1.253h8.517a1.253 1.253 0 1 1 0 2.505h-8.517a1.254 1.254 0 0 1-1.253-1.252Z"/><path fill="#e6e6e6" d="M49.177 144.793a1.254 1.254 0 0 1-1.253-1.253v-8.517a1.253 1.253 0 1 1 2.505 0v8.519a1.254 1.254 0 0 1-1.253 1.253Z"/><circle cx="1.253" cy="1.253" r="1.253" fill="#fff" transform="translate(95.52 79.912)"/><path fill="#2f2e41" d="m183.672 113.283-2.26.484a13.015 13.015 0 0 0-.351-2.807 8.427 8.427 0 0 1-1.273 3.153l-12.965 2.769-12.447-13.135c-.019-6.568 3.628-11.557 10.165-11.557.394 0 .8.019 1.216.057a13.83 13.83 0 0 1 15.833 10.87c4.636 4.562 2.951 7.245 2.082 10.166Z"/><path fill="#ffb6b6" d="M190.046 266.896h4.7l2.237-18.139h-6.941Z"/><path fill="#2f2e41" d="m188.879 264.576 7.434-.444v3.185l7.068 4.881a1.99 1.99 0 0 1-1.13 3.627h-8.85l-1.525-3.15-.6 3.15h-3.337Z"/><path fill="#ffb6b6" d="m134.952 261.777 4.09 2.321 10.9-14.672-6.037-3.425Z"/><path fill="#2f2e41" d="m135.082 259.185 6.685 3.283-1.57 2.769 3.738 7.733a1.989 1.989 0 0 1-2.773 2.6l-7.7-4.368.228-3.493-2.073 2.446-2.9-1.647Z"/><path fill="#ffb6b6" d="M207.429 116.46a4.165 4.165 0 0 0-3.357 5.433l-7.2 6.229 2.719 5.3 10.039-8.939a4.187 4.187 0 0 0-2.2-8.019Z"/><path fill="#2f2e41" d="M200.182 137.879c-2.4 3.636-7.78 7.147-15.765 10.259a3.426 3.426 0 0 1-2.755-.09c-3.013-1.371-4.944-6.469-5.126-6.964l-5.836-7.872c-.1-.115-2.832-3.212-2.52-6.257a4.447 4.447 0 0 1 1.915-3.187c4.418-3.275 14.318 8.1 15.6 9.611l6.461-3.937 4.708-2.1 3.8-4.625 5.352 5.471-4.808 7.662a9.229 9.229 0 0 1-1.026 2.034ZM183.399 151.827s13.827 22.025 11.322 24.53a13.373 13.373 0 0 1-6.4 3.163l-8.627-11.179Z"/><path fill="#2f2e41" d="m171.173 121.746 6.517 4.408a16.81 16.81 0 0 1 6.549 19.177l-1.835 5.577ZM159.645 181.869l-.871 3.035-2.969 36.593-14.853 27.681 7.089 5.063 20.255-26.331 8.011-26.145 12.581 57.877 9.452-.675-6.565-80.245-12.457-22.587Z"/><path fill="#e56969" d="m170.065 122.855 9.07 7.413a12.353 12.353 0 0 1 4.1 6.314 12.354 12.354 0 0 1 .433 3.458l-.27 16.1 8.316 22.225s-22.546 8.517-25.552 1 3.903-56.51 3.903-56.51Z"/><path fill="#2f2e41" d="M172.778 183.264c-11.263 0-14.008.085-14.186.049l-.178-.036v-6.774l2.739-12.17c-.32-3.778-1.07-8.76-1-13.026.246-15.419-.512-30.48-.512-30.48l5.961-5.5 2.708 1.762 5.023 5.023c5.839 14.37 10.472 27.9 10.5 28.768l.367 14.959-1.5 6.012c-6.803 4.797-.591 11.413-9.922 11.413Z"/><path d="m162.165 134.258-1.369 8.546 9.269 3.823Z" opacity=".2"/><circle cx="9.075" cy="9.075" r="9.075" fill="#ffb6b6" transform="translate(162.428 95.57)"/><path d="M156.296 150.689a16.67 16.67 0 0 0 20.01 4.045l1.975-.978Z" opacity=".2"/><path fill="#ffb6b6" d="M187.876 148.603a4.165 4.165 0 0 0-6.383.193l-9.163-2.572-2.921 5.187 12.991 3.451a4.187 4.187 0 0 0 5.477-6.258Z"/><path fill="#2f2e41" d="M166.009 154.359c-4.357 0-10.251-2.554-17.249-7.5a3.426 3.426 0 0 1-1.443-2.348c-.516-3.27 2.673-7.691 2.986-8.114l3.353-9.208c.039-.15 1.119-4.134 3.832-5.551a4.448 4.448 0 0 1 3.715-.158c5.167 1.882 1.132 16.411.579 18.317l6.845 3.218 4.347 2.771 5.954.623-1.616 7.481-9.042.2a9.231 9.231 0 0 1-2.261.269ZM182.385 98.675c-.727.945-3.229 1.781-6.2 2.455v-.185a13.015 13.015 0 0 0-.351-2.807 8.429 8.429 0 0 1-1.273 3.153 6.32 6.32 0 0 1-.147.214c-2.55.5-5.247.893-7.361 1.154 1.453 5.233 7.024 9.526 6.421 12.708l-16.322 3.334a12.8 12.8 0 0 0-.313-3.942 8.484 8.484 0 0 1-2.365 4.488l-1.387.285-.413-2.037c-3.581-8.6 1.41-17.4 9.588-21.959a9.94 9.94 0 0 1 6.3-4.226l2.037-.418a9.987 9.987 0 0 1 11.786 7.783Z"/><path fill="#2d3032" d="m221.375 263.202.241-5.427a17.527 17.527 0 0 1 8.175-2.069c-3.927 3.21-3.436 9.4-6.1 13.715a10.543 10.543 0 0 1-7.731 4.872l-3.286 2.012a17.666 17.666 0 0 1 3.724-14.315 17.069 17.069 0 0 1 3.136-2.914c.79 2.074 1.841 4.126 1.841 4.126Z"/><path fill="#cacaca" d="M229.342 276.431H114.919a.6.6 0 1 1 0-1.193h114.423a.6.6 0 1 1 0 1.193Z"/></g></svg>